SplineFontDB: 3.0
FontName: Oltartkhica-Regular-B
FullName: Oltartkhica
FamilyName: Oltartkhica
Weight: Regular
Copyright: Copyright (c) 2016, Infusiastic
UComments: "2016-8-25: Created with FontForge (http://fontforge.org)"
Version: 042.002
ItalicAngle: 0
UnderlinePosition: -100
UnderlineWidth: 50
Ascent: 800
Descent: 200
InvalidEm: 0
LayerCount: 2
Layer: 0 0 "Back" 1
Layer: 1 0 "Fore" 0
XUID: [1021 589 -1086611993 12184640]
StyleMap: 0x0000
FSType: 0
OS2Version: 0
OS2_WeightWidthSlopeOnly: 0
OS2_UseTypoMetrics: 1
CreationTime: 1472085517
ModificationTime: 1472955240
OS2TypoAscent: 0
OS2TypoAOffset: 1
OS2TypoDescent: 0
OS2TypoDOffset: 1
OS2TypoLinegap: 90
OS2WinAscent: 0
OS2WinAOffset: 1
OS2WinDescent: 0
OS2WinDOffset: 1
HheadAscent: 0
HheadAOffset: 1
HheadDescent: 0
HheadDOffset: 1
OS2Vendor: 'PfEd'
MarkAttachClasses: 1
DEI: 91125
Encoding: UnicodeFull
UnicodeInterp: none
NameList: AGL For New Fonts
DisplaySize: -48
AntiAlias: 1
FitToEm: 0
WinInfo: 984940 20 9
BeginPrivate: 0
EndPrivate
BeginChars: 1114112 8348

StartChar: uF0000
Encoding: 983040 983040 0
Width: 1000
Flags: W
HStem: 0 21G<623.848 844> 746 58<556.517 578>
LayerCount: 2
Fore
SplineSet
844 802 m 1
 349 399 l 1
 844 0 l 1
 649 0 l 1
 151 396 l 1
 578 746 l 5
 400 804 l 1
 844 802 l 1
EndSplineSet
EndChar

StartChar: uF0001
Encoding: 983041 983041 1
Width: 1000
Flags: W
HStem: 399 109<486 725> 739 65<560.031 582>
VStem: 721 123<105 399>
LayerCount: 2
Fore
SplineSet
842 803 m 1
 486 508 l 1
 844 513 l 1
 844 105 l 1
 721 5 l 1
 725 399 l 1
 157 399 l 1
 582 739 l 1
 378 804 l 5
 842 803 l 1
EndSplineSet
EndChar

StartChar: uF0002
Encoding: 983042 983042 2
Width: 1000
Flags: W
HStem: 0 21G<175.253 332> 399 105<470 578> 746 55<559.764 587>
LayerCount: 2
Fore
SplineSet
844 803 m 1
 470 504 l 1
 844 507 l 1
 332 8 l 1
 154 0 l 1
 578 399 l 1
 158 399 l 1
 587 746 l 5
 373 801 l 1
 844 803 l 1
EndSplineSet
EndChar

StartChar: uF0003
Encoding: 983043 983043 3
Width: 1000
Flags: W
HStem: 0 21G<693.424 844> 399 104<358 493> 757 47<383.617 414>
LayerCount: 2
Fore
SplineSet
570 804 m 1
 358 503 l 1
 581 504 l 1
 844 0 l 1
 704 0 l 1
 493 399 l 1
 151 399 l 1
 414 757 l 1
 210 804 l 5
 570 804 l 1
EndSplineSet
EndChar

StartChar: uF0004
Encoding: 983044 983044 4
Width: 1000
Flags: W
HStem: 0 21G<154 367.226> 757.185 43.8149<581.012 616>
LayerCount: 2
Fore
SplineSet
844 803 m 1
 566 580 l 1
 844 398 l 1
 342 0 l 1
 154 0 l 1
 654 399 l 1
 389 573 l 1
 616 757.185053381 l 1
 397 801 l 5
 844 803 l 1
EndSplineSet
EndChar

StartChar: uF0005
Encoding: 983045 983045 5
Width: 1000
Flags: W
HStem: 0 21G<836 973.905> 764 35<585.2 634>
LayerCount: 2
Fore
SplineSet
625 606 m 1
 843 419 l 1
 573 419 l 1
 994 0 l 1
 836 1 l 1
 307 511 l 1
 559 511 l 1
 455 607 l 1
 634 764 l 5
 390 799 l 1
 847 801 l 1
 625 606 l 1
EndSplineSet
EndChar

StartChar: uF0006
Encoding: 983046 983046 6
Width: 1000
Flags: W
HStem: -1 21G<498.051 523.631> 756 44<419.963 459.118>
VStem: 498 132<102 395>
LayerCount: 2
Fore
SplineSet
659 801 m 1
 486 614 l 1
 636 399 l 1
 630 102 l 1
 498 -1 l 1
 499 395 l 1
 323 613 l 1
 459.117647059 756 l 1
 213 800 l 5
 659 801 l 1
EndSplineSet
EndChar

StartChar: uF0007
Encoding: 983047 983047 7
Width: 1000
Flags: HW
HStem: 0 802<152 840 152 646>
VStem: 150 145
LayerCount: 2
Fore
SplineSet
458 618 m 1
 284.475585938 670 l 5
 291 390 l 1
 840 0 l 1
 646 0 l 1
 148 340 l 1
 152 802 l 1
 458 618 l 1
EndSplineSet
EndChar

StartChar: uF0008
Encoding: 983048 983048 8
Width: 1000
Flags: W
HStem: 752.576 49.4238<426.566 459>
LayerCount: 2
Fore
SplineSet
331 399 m 1
 151 396 l 1
 459 752.576171875 l 1
 230 802 l 5
 659 801 l 1
 331 399 l 1
331 399 m 1
 703 0 l 1
 844 0 l 1
 490 399 l 1
 331 399 l 1
EndSplineSet
EndChar

StartChar: uF0009
Encoding: 983049 983049 9
Width: 1000
Flags: W
VStem: 497 116<601.017 675.623>
LayerCount: 2
Fore
SplineSet
497 601.016601562 m 1
 497 399 l 1
 613 399 l 1
 613 602.016601562 l 1
 497 601.016601562 l 1
336 399 m 1
 701 0 l 1
 839 0 l 1
 497 399 l 1
 336 399 l 1
497 601.016601562 m 1
 497 798 l 1
 774.611328125 620.623046875 l 5
 613 675.623046875 l 1
 613 602.016601562 l 1
 497 601.016601562 l 1
EndSplineSet
EndChar

StartChar: uF000A
Encoding: 983050 983050 10
Width: 1000
Flags: W
VStem: 391 108<603.017 674.624> 497.389 1.61133<601.017 603.017>
LayerCount: 2
Fore
SplineSet
391 321 m 1x80
 499 399 l 1x40
 499 603.016601562 l 1
 391 601.016601562 l 1
 391 321 l 1x80
499 399 m 1
 726 0 l 1
 840 0 l 1
 578 449 l 1
 499 399 l 1
391 601.016601562 m 1x80
 391 798 l 1x80
 659 619.624023438 l 5
 497.388671875 674.624023438 l 1
 497.388671875 601.016601562 l 1x40
 391 601.016601562 l 1x80
EndSplineSet
EndChar

StartChar: uF000B
Encoding: 983051 983051 11
Width: 1000
Flags: W
HStem: 0 21G<820.863 844> 399 94<584 727> 742 62<575.516 599>
VStem: 726 118<102 399>
LayerCount: 2
Fore
SplineSet
844 803 m 1
 500 493 l 1
 847 498 l 1
 847 360 844 202 844 0 c 1
 726 102 l 1
 727 399 l 1
 584 399 l 1
 417 581 l 1
 599 742 l 1
 391 804 l 5
 844 803 l 1
EndSplineSet
EndChar

StartChar: uF000C
Encoding: 983052 983052 12
Width: 1000
Flags: W
HStem: 0 21G<816.747 841.865> 402 105<415 599> 748 52<429.682 457.01>
VStem: 717 125<99 297>
LayerCount: 2
Fore
SplineSet
676 801 m 1
 415 507 l 1
 599 511 l 1
 840 297 l 1
 842 0 l 1
 717 99 l 1
 711 399 l 1
 151 402 l 1
 457.010050251 748 l 1
 254 800 l 5
 676 801 l 1
EndSplineSet
EndChar

StartChar: uF000D
Encoding: 983053 983053 13
Width: 1000
Flags: W
HStem: 1 21G<316 518.572> 400 104<492 656> 750.75 50.25<578 606>
LayerCount: 2
Fore
SplineSet
844 801 m 1
 492 504 l 1
 656 505 l 1
 840 319 l 1
 497 1 l 1
 316 1 l 1
 751 400 l 1
 158 399 l 1
 606 750.75 l 1
 405 801 l 5
 844 801 l 1
EndSplineSet
EndChar

StartChar: uF000E
Encoding: 983054 983054 14
Width: 1000
Flags: W
HStem: 0 21G<826.424 844> 399 114<494 626> 747.378 53.622<418.46 440>
VStem: 728 116<132 289>
LayerCount: 2
Fore
SplineSet
666 803 m 1
 349 510 l 1
 626 513 l 1
 844 289 l 1
 844 0 l 1
 728 132 l 1
 729 399 l 1
 494 399 l 1
 246 574 l 1
 440 747.377952756 l 1
 275 801 l 5
 666 803 l 1
EndSplineSet
EndChar

StartChar: uF000F
Encoding: 983055 983055 15
Width: 1000
Flags: W
HStem: 741.741 59.259<569.422 596>
LayerCount: 2
Fore
SplineSet
844 803 m 1
 371 801 l 5
 596 741.741035857 l 1
 168 399 l 1
 727 399 l 1
 844 508 l 1
 492 504 l 1
 844 803 l 1
728 109 m 1
 727 399 l 1
 606 302 l 1
 609 7 l 1
 728 109 l 1
EndSplineSet
EndChar

StartChar: uF0010
Encoding: 983056 983056 16
Width: 1000
Flags: W
HStem: 0 21G<151 280.971> 379 105<442 556> 768 35<618.8 666>
LayerCount: 2
Fore
SplineSet
643 565 m 1
 844 381 l 1
 442 379 l 1
 272 0 l 1
 151 0 l 1
 364 484 l 1
 556 484 l 1
 482 568 l 1
 666 768 l 1
 430 803 l 5
 844 803 l 1
 643 565 l 1
EndSplineSet
EndChar

StartChar: uF0011
Encoding: 983057 983057 17
Width: 1000
Flags: W
HStem: 0 21G<726.431 844> 399 115<413 583> 399 107<413 583> 760 45<417.2 448>
LayerCount: 2
Fore
SplineSet
667 804 m 1xd0
 332 506 l 1xb0
 658 514 l 1
 844 0 l 1
 734 0 l 1
 583 399 l 1
 413 399 l 1
 244 580 l 1
 448 760 l 1
 250 805 l 5
 667 804 l 1xd0
EndSplineSet
EndChar

StartChar: uF0012
Encoding: 983058 983058 18
Width: 1000
Flags: W
HStem: 755 51<428.765 465>
LayerCount: 2
Fore
SplineSet
201 806 m 1
 465 755 l 5
 151 352 l 1
 464 349 l 1
 566 464 l 1
 395 467 l 1
 649 800 l 1
 201 806 l 1
563 -2 m 1
 680 112 l 1
 680 595 l 1
 566 464 l 1
 563 -2 l 1
EndSplineSet
EndChar

StartChar: uF0013
Encoding: 983059 983059 19
Width: 1000
Flags: W
HStem: 760 41<417.244 463>
LayerCount: 2
Fore
SplineSet
684 803 m 1
 195 801 l 1
 463 760 l 5
 305 617 l 1
 530 399 l 1
 715 398 l 1
 485 623 l 1
 684 803 l 1
516 199 m 1
 334 0 l 1
 499 0 l 1
 665 203 l 1
 530 399 l 1
 391 398 l 1
 516 199 l 1
EndSplineSet
EndChar

StartChar: uF0014
Encoding: 983060 983060 20
Width: 1000
Flags: W
HStem: 760 39<425.513 472>
LayerCount: 2
Fore
SplineSet
213 799 m 1
 472 760 l 5
 306 595 l 1
 525 397 l 1
 686 396 l 1
 486 600 l 1
 685 801 l 1
 213 799 l 1
339 -2 m 1
 499 0 l 1
 840 398 l 1
 686 396 l 1
 339 -2 l 1
EndSplineSet
EndChar

StartChar: uF0015
Encoding: 983061 983061 21
Width: 1000
Flags: W
HStem: 754 45<433.4 474>
LayerCount: 2
Fore
SplineSet
685 801 m 1
 213 799 l 1
 474 754 l 5
 316 595 l 1
 495 398 l 1
 656 400 l 1
 486 600 l 1
 685 801 l 1
349 401 m 1
 696 0 l 1
 836 0 l 1
 495 398 l 1
 349 401 l 1
EndSplineSet
EndChar

StartChar: uF0016
Encoding: 983062 983062 22
Width: 1000
Flags: W
HStem: 751 48<441.938 473>
LayerCount: 2
Fore
SplineSet
685 801 m 1
 260 799 l 1
 473 751 l 5
 316 585 l 1
 495 399 l 1
 656 400 l 1
 486 588 l 1
 685 801 l 1
499 2 m 1
 495 399 l 1
 374 399 l 1
 376 95 l 1
 499 2 l 1
EndSplineSet
EndChar

StartChar: uF0017
Encoding: 983063 983063 23
Width: 1000
Flags: W
HStem: 757 42<432.5 471>
LayerCount: 2
Fore
SplineSet
240 799 m 1
 471 757 l 5
 306 602 l 1
 494 402 l 1
 495 404 l 1
 656 400 l 1
 486 607 l 1
 685 801 l 1
 240 799 l 1
494 402 m 1
 494 401 l 1
 495 401 l 1
 494 402 l 1
305 0 m 1
 494 401 l 1
 351 401 l 1
 155 0 l 1
 305 0 l 1
EndSplineSet
EndChar

StartChar: uF0030
Encoding: 983088 983088 48
Width: 1000
Flags: W
HStem: 761 44<406.568 450>
LayerCount: 2
Fore
SplineSet
177 805 m 1
 450 761 l 5
 236 571 l 1
 483 355 l 1
 650 355 l 1
 423 571 l 1
 671 807 l 1
 177 805 l 1
650 355 m 1
 821 190 l 1
 605 0 l 1
 793 1 l 1
 1000 184 l 1
 815 355 l 1
 650 355 l 1
EndSplineSet
EndChar

StartChar: uF0032
Encoding: 983090 983090 50
Width: 1000
Flags: HW
LayerCount: 2
Fore
SplineSet
844 803 m 1
 470 504 l 1
 631 507 l 1
 829 324 l 1
 485 2 l 1
 307 2 l 1
 738 404 l 1
 578 399 l 1
 383 582 l 1
 604 763.269662921 l 1
 384 801 l 5
 844 803 l 1
EndSplineSet
EndChar

StartChar: uF0060
Encoding: 983136 983136 96
Width: 1000
Flags: W
HStem: 0 21G<623.848 844>
LayerCount: 2
Fore
SplineSet
738 717 m 1
 349 399 l 1
 844 0 l 1
 649 0 l 1
 151 396 l 1
 646 802 l 1
 738 717 l 1
738 717 m 5
 841 802 l 5
 977 799 l 5
 820 647 l 5
 738 717 l 5
EndSplineSet
EndChar

StartChar: uF0061
Encoding: 983137 983137 97
Width: 1000
Flags: W
HStem: 399 109<486 725>
VStem: 721 123<105 399>
LayerCount: 2
Fore
SplineSet
744 720 m 5
 847 805 l 5
 983 802 l 5
 826 650 l 5
 744 720 l 5
744 720 m 1
 486 508 l 1
 844 513 l 1
 844 105 l 1
 721 5 l 1
 725 399 l 1
 157 399 l 1
 659 804 l 1
 744 720 l 1
EndSplineSet
EndChar

StartChar: uF0062
Encoding: 983138 983138 98
Width: 1000
Flags: W
HStem: 0 21G<175.253 332> 399 105<470 578>
LayerCount: 2
Fore
SplineSet
738 717 m 5
 841 802 l 5
 977 799 l 5
 820 647 l 5
 738 717 l 5
738 720 m 1
 470 504 l 1
 844 507 l 1
 332 8 l 1
 154 0 l 1
 578 399 l 1
 158 399 l 1
 650 801 l 1
 738 720 l 1
EndSplineSet
EndChar

StartChar: uF0063
Encoding: 983139 983139 99
Width: 1000
Flags: W
HStem: 0 21G<693.424 844> 399 104<358 493>
LayerCount: 2
Fore
SplineSet
522 718 m 5
 625 803 l 1
 761 800 l 1
 604 648 l 1
 522 718 l 5
522 718 m 5
 358 503 l 1
 581 504 l 1
 844 0 l 1
 704 0 l 1
 493 399 l 1
 151 399 l 1
 440 804 l 1
 522 718 l 5
EndSplineSet
EndChar

StartChar: uF0064
Encoding: 983140 983140 100
Width: 1000
Flags: W
HStem: 0 21G<154 367.226>
LayerCount: 2
Fore
SplineSet
747 726 m 5
 850 811 l 5
 986 808 l 5
 829 656 l 5
 747 726 l 5
747 726 m 1
 566 580 l 1
 844 398 l 1
 342 0 l 1
 154 0 l 1
 654 399 l 1
 389 573 l 1
 670 801 l 1
 747 726 l 1
EndSplineSet
EndChar

StartChar: uF0065
Encoding: 983141 983141 101
Width: 1000
Flags: W
HStem: 0 21G<836 973.905>
LayerCount: 2
Fore
SplineSet
768 735 m 1
 871 810 l 5
 1007 807 l 5
 850 655 l 5
 768 735 l 1
625 606 m 1
 843 419 l 1
 573 419 l 1
 994 0 l 1
 836 1 l 1
 307 511 l 1
 559 511 l 1
 455 607 l 1
 690 802 l 1
 768 735 l 1
 625 606 l 1
EndSplineSet
EndChar

StartChar: uF0066
Encoding: 983142 983142 102
Width: 1000
Flags: W
HStem: -1 21G<498.051 523.631>
VStem: 498 132<102 395>
LayerCount: 2
Fore
SplineSet
591 722 m 5
 694 807 l 5
 830 804 l 5
 673 652 l 5
 591 722 l 5
591 722 m 1
 486 614 l 1
 636 399 l 1
 630 102 l 1
 498 -1 l 1
 499 395 l 1
 323 613 l 1
 501 800 l 1
 591 722 l 1
EndSplineSet
EndChar

StartChar: uF0067
Encoding: 983143 983143 103
Width: 1000
Flags: W
HStem: 0 21G<616.706 840>
VStem: 148 143<390 661.25> 152 131<428.75 700>
LayerCount: 2
Fore
SplineSet
283 700 m 5xa0
 291 390 l 1
 840 0 l 1
 646 0 l 1
 148 340 l 1xc0
 152 802 l 1
 283 700 l 5xa0
283 700 m 5xa0
 386 805 l 5
 522 802 l 5
 365 630 l 5
 283 700 l 5xa0
EndSplineSet
EndChar

StartChar: uF0068
Encoding: 983144 983144 104
Width: 1000
Flags: W
LayerCount: 2
Fore
SplineSet
597 719 m 5
 700 804 l 5
 836 801 l 5
 679 649 l 5
 597 719 l 5
331 399 m 1
 151 396 l 1
 500 802 l 1
 597 719 l 5
 331 399 l 1
331 399 m 1
 703 0 l 1
 844 0 l 1
 490 399 l 1
 331 399 l 1
EndSplineSet
EndChar

StartChar: uF0069
Encoding: 983145 983145 105
Width: 1000
Flags: W
LayerCount: 2
Fore
SplineSet
497 798 m 1
 497 399 l 1
 613 399 l 1
 613 695 l 5
 497 798 l 1
336 399 m 1
 701 0 l 1
 839 0 l 1
 497 399 l 1
 336 399 l 1
613 695 m 5
 716 800 l 5
 852 797 l 5
 695 625 l 5
 613 695 l 5
EndSplineSet
EndChar

StartChar: uF006A
Encoding: 983146 983146 106
Width: 1000
Flags: W
LayerCount: 2
Fore
SplineSet
391 321 m 1
 499 399 l 1
 499 695 l 5
 391 798 l 1
 391 321 l 1
499 399 m 1
 726 0 l 1
 840 0 l 1
 578 449 l 1
 499 399 l 1
499 695 m 5
 602 800 l 5
 738 797 l 5
 581 625 l 5
 499 695 l 5
EndSplineSet
EndChar

StartChar: uF006B
Encoding: 983147 983147 107
Width: 1000
Flags: W
HStem: 0 21G<820.863 844> 399 94<584 727>
VStem: 726 118<102 399>
LayerCount: 2
Fore
SplineSet
754 726 m 1
 500 493 l 1
 847 498 l 1
 847 360 844 202 844 0 c 1
 726 102 l 1
 727 399 l 1
 584 399 l 1
 417 581 l 1
 671 802 l 1
 754 726 l 1
754 726 m 1
 837 811 l 5
 973 808 l 5
 836 656 l 1
 754 726 l 1
EndSplineSet
EndChar

StartChar: uF006C
Encoding: 983148 983148 108
Width: 1000
Flags: W
HStem: 0 21G<816.747 841.865> 402 105<415 599>
VStem: 717 125<99 297>
LayerCount: 2
Fore
SplineSet
602 720 m 5
 705 805 l 5
 841 802 l 5
 684 650 l 5
 602 720 l 5
602 720 m 1
 415 507 l 1
 599 511 l 1
 840 297 l 1
 842 0 l 1
 717 99 l 1
 711 399 l 1
 151 402 l 1
 503 800 l 1
 602 720 l 1
EndSplineSet
EndChar

StartChar: uF006D
Encoding: 983149 983149 109
Width: 1000
Flags: W
HStem: 1 21G<316 518.572> 400 104<492 656>
LayerCount: 2
Fore
SplineSet
746 717 m 5
 849 802 l 5
 985 799 l 5
 828 647 l 5
 746 717 l 5
744 717 m 1
 492 504 l 1
 656 505 l 1
 840 319 l 1
 497 1 l 1
 316 1 l 1
 751 400 l 1
 158 399 l 1
 670 801 l 1
 744 717 l 1
EndSplineSet
EndChar

StartChar: uF006E
Encoding: 983150 983150 110
Width: 1000
Flags: W
HStem: 0 21G<826.424 844> 399 114<494 626>
VStem: 728 116<132 289>
LayerCount: 2
Fore
SplineSet
582 719 m 5
 685 804 l 5
 821 801 l 5
 664 649 l 5
 582 719 l 5
582 719 m 5
 349 510 l 1
 626 513 l 1
 844 289 l 1
 844 0 l 1
 728 132 l 1
 729 399 l 1
 494 399 l 1
 246 574 l 1
 500 801 l 1
 582 719 l 5
EndSplineSet
EndChar

StartChar: uF006F
Encoding: 983151 983151 111
Width: 1000
Flags: W
LayerCount: 2
Fore
SplineSet
747 720 m 1
 670 801 l 1
 168 399 l 1
 727 399 l 1
 844 508 l 1
 492 504 l 1
 747 720 l 1
728 109 m 1
 727 399 l 1
 606 302 l 1
 609 7 l 1
 728 109 l 1
747 720 m 1
 840 805 l 5
 976 802 l 5
 829 650 l 1
 747 720 l 1
EndSplineSet
EndChar

StartChar: uF0070
Encoding: 983152 983152 112
Width: 1000
Flags: W
HStem: 0 21G<151 280.971> 379 105<442 556>
LayerCount: 2
Fore
SplineSet
780 726 m 1
 863 811 l 1
 999 808 l 1
 842 666 l 1
 780 726 l 1
643 565 m 1
 844 381 l 1
 442 379 l 1
 272 0 l 1
 151 0 l 1
 364 484 l 1
 556 484 l 1
 482 568 l 1
 695 803 l 1
 780 726 l 1
 643 565 l 1
EndSplineSet
EndChar

StartChar: uF0071
Encoding: 983153 983153 113
Width: 1000
Flags: W
HStem: 0 21G<726.431 844> 399 115<413 583> 399 107<413 583>
LayerCount: 2
Fore
SplineSet
579 726 m 1xc0
 332 506 l 1xa0
 658 514 l 1
 844 0 l 1
 734 0 l 1
 583 399 l 1
 413 399 l 1
 244 580 l 1
 499 805 l 1
 579 726 l 1xc0
579 726 m 1
 662 801 l 5
 798 798 l 5
 661 656 l 1
 579 726 l 1
EndSplineSet
EndChar

StartChar: uF0072
Encoding: 983154 983154 114
Width: 1000
Flags: W
LayerCount: 2
Fore
SplineSet
592 716 m 1
 695 801 l 1
 831 798 l 1
 674 646 l 1
 592 716 l 1
496 798 m 1
 151 352 l 1
 464 349 l 1
 566 464 l 1
 395 467 l 1
 592 716 l 1
 496 798 l 1
563 -2 m 1
 680 112 l 1
 680 595 l 1
 566 464 l 1
 563 -2 l 1
EndSplineSet
EndChar

StartChar: uF0073
Encoding: 983155 983155 115
Width: 1000
Flags: W
LayerCount: 2
Fore
SplineSet
595 717 m 5
 698 802 l 5
 834 799 l 5
 677 647 l 5
 595 717 l 5
595 717 m 1
 510 801 l 1
 305 617 l 1
 530 399 l 1
 715 398 l 1
 485 623 l 1
 595 717 l 1
516 199 m 1
 334 0 l 1
 499 0 l 1
 665 203 l 1
 530 399 l 1
 391 398 l 1
 516 199 l 1
EndSplineSet
EndChar

StartChar: uF0074
Encoding: 983156 983156 116
Width: 1000
Flags: W
LayerCount: 2
Fore
SplineSet
603 717 m 5
 706 802 l 5
 842 799 l 5
 685 647 l 5
 603 717 l 5
511 799 m 1
 306 595 l 1
 525 397 l 1
 686 396 l 1
 486 600 l 1
 603 717 l 1
 511 799 l 1
339 -2 m 1
 499 0 l 1
 840 398 l 1
 686 396 l 1
 339 -2 l 1
EndSplineSet
EndChar

StartChar: uF0075
Encoding: 983157 983157 117
Width: 1000
Flags: W
LayerCount: 2
Fore
SplineSet
596 717 m 5
 699 802 l 5
 835 799 l 5
 678 647 l 5
 596 717 l 5
596 717 m 1
 511 799 l 1
 316 595 l 1
 495 398 l 1
 656 400 l 1
 486 600 l 1
 596 717 l 1
349 401 m 1
 696 0 l 1
 836 0 l 1
 495 398 l 1
 349 401 l 1
EndSplineSet
EndChar

StartChar: uF0076
Encoding: 983158 983158 118
Width: 1000
Flags: W
LayerCount: 2
Fore
SplineSet
610 720 m 5
 713 805 l 5
 849 802 l 5
 692 650 l 5
 610 720 l 5
610 720 m 1
 511 799 l 1
 316 585 l 1
 495 399 l 1
 656 400 l 1
 486 588 l 1
 610 720 l 1
499 2 m 1
 495 399 l 1
 374 399 l 1
 376 95 l 1
 499 2 l 1
EndSplineSet
EndChar

StartChar: uF0077
Encoding: 983159 983159 119
Width: 1000
Flags: W
LayerCount: 2
Fore
SplineSet
595 720 m 5
 698 805 l 5
 834 802 l 5
 677 650 l 5
 595 720 l 5
511 799 m 1
 306 602 l 1
 494 402 l 1
 495 404 l 1
 656 400 l 1
 486 607 l 1
 595 720 l 1
 511 799 l 1
494 402 m 1
 494 401 l 1
 495 401 l 1
 494 402 l 1
305 0 m 1
 494 401 l 1
 351 401 l 1
 155 0 l 1
 305 0 l 1
EndSplineSet
EndChar

StartChar: uF0078
Encoding: 983160 983160 120
Width: 1000
Flags: W
LayerCount: 2
Fore
SplineSet
257 717 m 5
 646 399 l 5
 151 0 l 5
 346 0 l 5
 844 396 l 5
 349 802 l 5
 257 717 l 5
257 717 m 5
 154 802 l 5
 18 799 l 5
 175 647 l 5
 257 717 l 5
EndSplineSet
EndChar

StartChar: uF0079
Encoding: 983161 983161 121
Width: 1000
Flags: W
LayerCount: 2
Fore
SplineSet
257 720 m 5
 154 805 l 5
 18 802 l 5
 175 650 l 5
 257 720 l 5
257 720 m 5
 515 508 l 5
 157 513 l 5
 157 105 l 5
 280 5 l 5
 276 399 l 5
 844 399 l 5
 342 804 l 5
 257 720 l 5
EndSplineSet
EndChar

StartChar: uF007A
Encoding: 983162 983162 122
Width: 1000
Flags: W
LayerCount: 2
Fore
SplineSet
260 717 m 5
 157 802 l 5
 21 799 l 5
 178 647 l 5
 260 717 l 5
260 720 m 5
 528 504 l 5
 154 507 l 5
 666 8 l 5
 844 0 l 5
 420 399 l 5
 840 399 l 5
 348 801 l 5
 260 720 l 5
EndSplineSet
EndChar

StartChar: uF007B
Encoding: 983163 983163 123
Width: 1000
Flags: W
LayerCount: 2
Fore
SplineSet
473 718 m 5
 370 803 l 5
 234 800 l 5
 391 648 l 5
 473 718 l 5
473 718 m 5
 637 503 l 5
 414 504 l 5
 151 0 l 5
 291 0 l 5
 502 399 l 5
 844 399 l 5
 555 804 l 5
 473 718 l 5
EndSplineSet
EndChar

StartChar: uF007C
Encoding: 983164 983164 124
Width: 1000
Flags: W
LayerCount: 2
Fore
SplineSet
251 726 m 5
 148 811 l 5
 12 808 l 5
 169 656 l 5
 251 726 l 5
251 726 m 5
 432 580 l 5
 154 398 l 5
 656 0 l 5
 844 0 l 5
 344 399 l 5
 609 573 l 5
 328 801 l 5
 251 726 l 5
EndSplineSet
EndChar

StartChar: uF007D
Encoding: 983165 983165 125
Width: 1000
Flags: W
LayerCount: 2
Fore
SplineSet
533 735 m 5
 430 810 l 5
 294 807 l 5
 451 655 l 5
 533 735 l 5
676 606 m 5
 458 419 l 5
 728 419 l 5
 307 0 l 5
 465 1 l 5
 994 511 l 5
 742 511 l 5
 846 607 l 5
 611 802 l 5
 533 735 l 5
 676 606 l 5
EndSplineSet
EndChar

StartChar: uF007E
Encoding: 983166 983166 126
Width: 1000
Flags: W
LayerCount: 2
Fore
SplineSet
391 722 m 5
 288 807 l 5
 152 804 l 5
 309 652 l 5
 391 722 l 5
391 722 m 5
 496 614 l 5
 346 399 l 5
 352 102 l 5
 484 -1 l 5
 483 395 l 5
 659 613 l 5
 481 800 l 5
 391 722 l 5
EndSplineSet
EndChar

StartChar: uF007F
Encoding: 983167 983167 127
Width: 1000
Flags: W
VStem: 697 143<390 661.25> 705 131<428.75 700>
LayerCount: 2
Fore
SplineSet
705 700 m 5x40
 697 390 l 5
 148 0 l 5
 342 0 l 5
 840 340 l 5x80
 836 802 l 5
 705 700 l 5x40
705 700 m 5x40
 602 805 l 5
 466 802 l 5
 623 630 l 5
 705 700 l 5x40
EndSplineSet
EndChar

StartChar: uF0080
Encoding: 983168 983168 128
Width: 1000
Flags: W
HStem: 0 21G<151 310.647>
LayerCount: 2
Fore
SplineSet
398 719 m 5
 295 804 l 5
 159 801 l 5
 316 649 l 5
 398 719 l 5
664 399 m 5
 844 396 l 5
 495 802 l 5
 398 719 l 5
 664 399 l 5
664 399 m 5
 292 0 l 5
 151 0 l 5
 505 399 l 5
 664 399 l 5
EndSplineSet
EndChar

StartChar: uF0081
Encoding: 983169 983169 129
Width: 1000
Flags: W
HStem: 0 21G<336 492.296>
LayerCount: 2
Fore
SplineSet
678 798 m 5
 678 399 l 5
 562 399 l 5
 562 695 l 5
 678 798 l 5
839 399 m 5
 474 0 l 5
 336 0 l 5
 678 399 l 5
 839 399 l 5
562 695 m 5
 459 800 l 5
 323 797 l 5
 480 625 l 5
 562 695 l 5
EndSplineSet
EndChar

StartChar: uF0082
Encoding: 983170 983170 130
Width: 1000
Flags: W
HStem: 0 21G<391 516.378>
LayerCount: 2
Fore
SplineSet
840 321 m 5
 732 399 l 5
 732 695 l 5
 840 798 l 5
 840 321 l 5
732 399 m 5
 505 0 l 5
 391 0 l 5
 653 449 l 5
 732 399 l 5
732 695 m 5
 629 800 l 5
 493 797 l 5
 650 625 l 5
 732 695 l 5
EndSplineSet
EndChar

StartChar: uF0083
Encoding: 983171 983171 131
Width: 1000
Flags: W
LayerCount: 2
Fore
SplineSet
510 726 m 5
 764 493 l 5
 417 498 l 5
 417 360 420 202 420 0 c 5
 538 102 l 5
 537 399 l 5
 680 399 l 5
 847 581 l 5
 593 802 l 5
 510 726 l 5
510 726 m 5
 427 811 l 5
 291 808 l 5
 428 656 l 5
 510 726 l 5
EndSplineSet
EndChar

StartChar: uF0084
Encoding: 983172 983172 132
Width: 1000
Flags: W
LayerCount: 2
Fore
SplineSet
391 720 m 5
 288 805 l 5
 152 802 l 5
 309 650 l 5
 391 720 l 5
391 720 m 5
 578 507 l 5
 394 511 l 5
 153 297 l 5
 151 0 l 5
 276 99 l 5
 282 399 l 5
 842 402 l 5
 490 800 l 5
 391 720 l 5
EndSplineSet
EndChar

StartChar: uF0085
Encoding: 983173 983173 133
Width: 1000
Flags: W
LayerCount: 2
Fore
SplineSet
256 717 m 5
 153 802 l 5
 17 799 l 5
 174 647 l 5
 256 717 l 5
258 717 m 5
 510 504 l 5
 346 505 l 5
 162 319 l 5
 505 1 l 5
 686 1 l 5
 251 400 l 5
 844 399 l 5
 332 801 l 5
 258 717 l 5
EndSplineSet
EndChar

StartChar: uF0086
Encoding: 983174 983174 134
Width: 1000
Flags: W
LayerCount: 2
Fore
SplineSet
508 719 m 5
 405 804 l 5
 269 801 l 5
 426 649 l 5
 508 719 l 5
508 719 m 5
 741 510 l 5
 464 513 l 5
 246 289 l 5
 246 0 l 5
 362 132 l 5
 361 399 l 5
 596 399 l 5
 844 574 l 5
 590 801 l 5
 508 719 l 5
EndSplineSet
EndChar

StartChar: uF0087
Encoding: 983175 983175 135
Width: 1000
Flags: W
HStem: 399 109<285 520>
VStem: 284 119<109 302>
LayerCount: 2
Fore
SplineSet
265 720 m 5
 342 801 l 5
 844 399 l 5
 285 399 l 5
 168 508 l 5
 520 504 l 5
 265 720 l 5
284 109 m 5
 285 399 l 5
 406 302 l 5
 403 7 l 5
 284 109 l 5
265 720 m 5
 172 805 l 5
 36 802 l 5
 183 650 l 5
 265 720 l 5
EndSplineSet
EndChar

StartChar: uF0088
Encoding: 983176 983176 136
Width: 1000
Flags: W
LayerCount: 2
Fore
SplineSet
215 726 m 5
 132 811 l 5
 -4 808 l 5
 153 666 l 5
 215 726 l 5
352 565 m 5
 151 381 l 5
 553 379 l 5
 723 0 l 5
 844 0 l 5
 631 484 l 5
 439 484 l 5
 513 568 l 5
 300 803 l 5
 215 726 l 5
 352 565 l 5
EndSplineSet
EndChar

StartChar: uF0089
Encoding: 983177 983177 137
Width: 1000
Flags: W
HStem: 399 115<505 675> 399 107<505 675>
LayerCount: 2
Fore
SplineSet
509 726 m 5x80
 756 506 l 5x40
 430 514 l 5
 244 0 l 5
 354 0 l 5
 505 399 l 5
 675 399 l 5
 844 580 l 5
 589 805 l 5
 509 726 l 5x80
509 726 m 5
 426 801 l 5
 290 798 l 5
 427 656 l 5
 509 726 l 5
EndSplineSet
EndChar

StartChar: uF008A
Encoding: 983178 983178 138
Width: 1000
Flags: W
HStem: 349 118<367 436>
VStem: 151 117<112 464>
LayerCount: 2
Fore
SplineSet
239 716 m 5
 136 801 l 5
 0 798 l 5
 157 646 l 5
 239 716 l 5
335 798 m 5
 680 352 l 5
 367 349 l 5
 265 464 l 5
 436 467 l 5
 239 716 l 5
 335 798 l 5
268 -2 m 5
 151 112 l 5
 151 595 l 5
 265 464 l 5
 268 -2 l 5
EndSplineSet
EndChar

StartChar: uF008B
Encoding: 983179 983179 139
Width: 1000
Flags: W
HStem: 0 21G<504.645 686>
LayerCount: 2
Fore
SplineSet
425 717 m 5
 322 802 l 5
 186 799 l 5
 343 647 l 5
 425 717 l 5
425 717 m 5
 510 801 l 5
 715 617 l 5
 490 399 l 5
 305 398 l 5
 535 623 l 5
 425 717 l 5
504 199 m 5
 686 0 l 5
 521 0 l 5
 355 203 l 5
 490 399 l 5
 629 398 l 5
 504 199 l 5
EndSplineSet
EndChar

StartChar: uF008C
Encoding: 983180 983180 140
Width: 1000
Flags: W
LayerCount: 2
Fore
SplineSet
543 717 m 5
 440 802 l 5
 304 799 l 5
 461 647 l 5
 543 717 l 5
635 799 m 5
 840 595 l 5
 621 397 l 5
 460 396 l 5
 660 600 l 5
 543 717 l 5
 635 799 l 5
807 -2 m 5
 647 0 l 5
 306 398 l 5
 460 396 l 5
 807 -2 l 5
EndSplineSet
EndChar

StartChar: uF008D
Encoding: 983181 983181 141
Width: 1000
Flags: W
HStem: 0 21G<316 473.307>
LayerCount: 2
Fore
SplineSet
556 717 m 5
 453 802 l 5
 317 799 l 5
 474 647 l 5
 556 717 l 5
556 717 m 5
 641 799 l 5
 836 595 l 5
 657 398 l 5
 496 400 l 5
 666 600 l 5
 556 717 l 5
803 401 m 5
 456 0 l 5
 316 0 l 5
 657 398 l 5
 803 401 l 5
EndSplineSet
EndChar

StartChar: uF008E
Encoding: 983182 983182 142
Width: 1000
Flags: W
VStem: 502 123<95 399>
LayerCount: 2
Fore
SplineSet
391 720 m 5
 288 805 l 5
 152 802 l 5
 309 650 l 5
 391 720 l 5
391 720 m 5
 490 799 l 5
 685 585 l 5
 506 399 l 5
 345 400 l 5
 515 588 l 5
 391 720 l 5
502 2 m 5
 506 399 l 5
 627 399 l 5
 625 95 l 5
 502 2 l 5
EndSplineSet
EndChar

StartChar: uF008F
Encoding: 983183 983183 143
Width: 1000
Flags: W
HStem: 0 21G<525.574 685>
LayerCount: 2
Fore
SplineSet
245 720 m 5
 142 805 l 5
 6 802 l 5
 163 650 l 5
 245 720 l 5
329 799 m 5
 534 602 l 5
 346 402 l 5
 345 404 l 5
 184 400 l 5
 354 607 l 5
 245 720 l 5
 329 799 l 5
346 402 m 5
 346 401 l 5
 345 401 l 5
 346 402 l 5
535 0 m 5
 346 401 l 5
 489 401 l 5
 685 0 l 5
 535 0 l 5
EndSplineSet
EndChar

StartChar: uF0090
Encoding: 983184 983184 144
Width: 1000
Flags: W
LayerCount: 2
Fore
SplineSet
592 720 m 5
 695 805 l 5
 831 802 l 5
 674 650 l 5
 592 720 l 5
497 805 m 1
 236 571 l 1
 483 355 l 1
 650 355 l 1
 423 571 l 1
 592 720 l 5
 497 805 l 1
650 355 m 1
 821 190 l 1
 605 0 l 1
 793 1 l 1
 1000 184 l 1
 815 355 l 1
 650 355 l 1
EndSplineSet
EndChar

StartChar: uF0091
Encoding: 983185 983185 145
Width: 1000
Flags: W
LayerCount: 2
Fore
SplineSet
744 89 m 5
 847 4 l 5
 983 7 l 5
 826 159 l 5
 744 89 l 5
744 89 m 5
 486 301 l 5
 844 296 l 5
 844 704 l 5
 721 804 l 5
 725 410 l 5
 157 410 l 5
 659 5 l 5
 744 89 l 5
EndSplineSet
EndChar

StartChar: uF0092
Encoding: 983186 983186 146
Width: 1000
Flags: W
LayerCount: 2
Fore
SplineSet
738 86 m 5
 841 1 l 5
 977 4 l 5
 820 156 l 5
 738 86 l 5
738 83 m 5
 470 299 l 5
 844 296 l 5
 332 795 l 5
 154 803 l 5
 578 404 l 5
 158 404 l 5
 650 2 l 5
 738 83 l 5
EndSplineSet
EndChar

StartChar: uF0093
Encoding: 983187 983187 147
Width: 1000
Flags: W
LayerCount: 2
Fore
SplineSet
522 86 m 5
 625 1 l 5
 761 4 l 5
 604 156 l 5
 522 86 l 5
522 86 m 5
 358 301 l 5
 581 300 l 5
 844 804 l 5
 704 804 l 5
 493 405 l 5
 151 405 l 5
 440 0 l 5
 522 86 l 5
EndSplineSet
EndChar

StartChar: uF0094
Encoding: 983188 983188 148
Width: 1000
Flags: W
LayerCount: 2
Fore
SplineSet
747 77 m 5
 850 -8 l 5
 986 -5 l 5
 829 147 l 5
 747 77 l 5
747 77 m 5
 566 223 l 5
 844 405 l 5
 342 803 l 5
 154 803 l 5
 654 404 l 5
 389 230 l 5
 670 2 l 5
 747 77 l 5
EndSplineSet
EndChar

StartChar: uF0095
Encoding: 983189 983189 149
Width: 1000
Flags: W
LayerCount: 2
Fore
SplineSet
768 67 m 5
 871 -8 l 5
 1007 -5 l 5
 850 147 l 5
 768 67 l 5
625 196 m 5
 843 383 l 5
 573 383 l 5
 994 802 l 5
 836 801 l 5
 307 291 l 5
 559 291 l 5
 455 195 l 5
 690 0 l 5
 768 67 l 5
 625 196 l 5
EndSplineSet
EndChar

StartChar: uF0096
Encoding: 983190 983190 150
Width: 1000
Flags: W
LayerCount: 2
Fore
SplineSet
591 78 m 5
 694 -7 l 5
 830 -4 l 5
 673 148 l 5
 591 78 l 5
591 78 m 5
 486 186 l 5
 636 401 l 5
 630 698 l 5
 498 801 l 5
 499 405 l 5
 323 187 l 5
 501 0 l 5
 591 78 l 5
EndSplineSet
EndChar

StartChar: uF0097
Encoding: 983191 983191 151
Width: 1000
Flags: W
VStem: 148 143<140.75 412> 152 131<102 373.25>
LayerCount: 2
Fore
SplineSet
283 102 m 5x40
 291 412 l 5
 840 802 l 5
 646 802 l 5
 148 462 l 5x80
 152 0 l 5
 283 102 l 5x40
283 102 m 5x40
 386 -3 l 5
 522 0 l 5
 365 172 l 5
 283 102 l 5x40
EndSplineSet
EndChar

StartChar: uF0098
Encoding: 983192 983192 152
Width: 1000
Flags: W
LayerCount: 2
Fore
SplineSet
597 83 m 5
 700 -2 l 5
 836 1 l 5
 679 153 l 5
 597 83 l 5
331 403 m 5
 151 406 l 5
 500 0 l 5
 597 83 l 5
 331 403 l 5
331 403 m 5
 703 802 l 5
 844 802 l 5
 490 403 l 5
 331 403 l 5
EndSplineSet
EndChar

StartChar: uF0099
Encoding: 983193 983193 153
Width: 1000
Flags: W
HStem: 0 21G<497 519.524>
VStem: 497 116<103 399>
LayerCount: 2
Fore
SplineSet
497 0 m 5
 497 399 l 5
 613 399 l 5
 613 103 l 5
 497 0 l 5
336 399 m 5
 701 798 l 5
 839 798 l 5
 497 399 l 5
 336 399 l 5
613 103 m 5
 716 -2 l 5
 852 1 l 5
 695 173 l 5
 613 103 l 5
EndSplineSet
EndChar

StartChar: uF009A
Encoding: 983194 983194 154
Width: 1000
Flags: W
HStem: 0 21G<391 411.971>
VStem: 391 108<103 399>
LayerCount: 2
Fore
SplineSet
391 477 m 5
 499 399 l 5
 499 103 l 5
 391 0 l 5
 391 477 l 5
499 399 m 5
 726 798 l 5
 840 798 l 5
 578 349 l 5
 499 399 l 5
499 103 m 5
 602 -2 l 5
 738 1 l 5
 581 173 l 5
 499 103 l 5
EndSplineSet
EndChar

StartChar: uF009B
Encoding: 983195 983195 155
Width: 1000
Flags: W
LayerCount: 2
Fore
SplineSet
754 77 m 5
 500 310 l 5
 847 305 l 5
 847 443 844 601 844 803 c 5
 726 701 l 5
 727 404 l 5
 584 404 l 5
 417 222 l 5
 671 1 l 5
 754 77 l 5
754 77 m 5
 837 -8 l 5
 973 -5 l 5
 836 147 l 5
 754 77 l 5
EndSplineSet
EndChar

StartChar: uF009C
Encoding: 983196 983196 156
Width: 1000
Flags: W
LayerCount: 2
Fore
SplineSet
602 81 m 5
 705 -4 l 5
 841 -1 l 5
 684 151 l 5
 602 81 l 5
602 81 m 5
 415 294 l 5
 599 290 l 5
 840 504 l 5
 842 801 l 5
 717 702 l 5
 711 402 l 5
 151 399 l 5
 503 1 l 5
 602 81 l 5
EndSplineSet
EndChar

StartChar: uF009D
Encoding: 983197 983197 157
Width: 1000
Flags: W
LayerCount: 2
Fore
SplineSet
746 85 m 5
 849 0 l 5
 985 3 l 5
 828 155 l 5
 746 85 l 5
744 85 m 5
 492 298 l 5
 656 297 l 5
 840 483 l 5
 497 801 l 5
 316 801 l 5
 751 402 l 5
 158 403 l 5
 670 1 l 5
 744 85 l 5
EndSplineSet
EndChar

StartChar: uF009E
Encoding: 983198 983198 158
Width: 1000
Flags: W
LayerCount: 2
Fore
SplineSet
582 84 m 5
 685 -1 l 5
 821 2 l 5
 664 154 l 5
 582 84 l 5
582 84 m 5
 349 293 l 5
 626 290 l 5
 844 514 l 5
 844 803 l 5
 728 671 l 5
 729 404 l 5
 494 404 l 5
 246 229 l 5
 500 2 l 5
 582 84 l 5
EndSplineSet
EndChar

StartChar: uF009F
Encoding: 983199 983199 159
Width: 1000
Flags: W
HStem: 306 105<492 727>
VStem: 606 121<508 701>
LayerCount: 2
Fore
SplineSet
747 90 m 5
 670 9 l 5
 168 411 l 5
 727 411 l 5
 844 302 l 5
 492 306 l 5
 747 90 l 5
728 701 m 5
 727 411 l 5
 606 508 l 5
 609 803 l 5
 728 701 l 5
747 90 m 5
 840 5 l 5
 976 8 l 5
 829 160 l 5
 747 90 l 5
EndSplineSet
EndChar

StartChar: uF00A0
Encoding: 983200 983200 160
Width: 1000
Flags: W
LayerCount: 2
Fore
SplineSet
780 77 m 5
 863 -8 l 5
 999 -5 l 5
 842 137 l 5
 780 77 l 5
643 238 m 5
 844 422 l 5
 442 424 l 5
 272 803 l 5
 151 803 l 5
 364 319 l 5
 556 319 l 5
 482 235 l 5
 695 0 l 5
 780 77 l 5
 643 238 l 5
EndSplineSet
EndChar

StartChar: uF00A1
Encoding: 983201 983201 161
Width: 1000
Flags: W
HStem: 291 115<413 583> 299 107<413 583>
LayerCount: 2
Fore
SplineSet
579 79 m 5x80
 332 299 l 5x40
 658 291 l 5
 844 805 l 5
 734 805 l 5
 583 406 l 5
 413 406 l 5
 244 225 l 5
 499 0 l 5
 579 79 l 5x80
579 79 m 5
 662 4 l 5
 798 7 l 5
 661 149 l 5
 579 79 l 5
EndSplineSet
EndChar

StartChar: uF00A2
Encoding: 983202 983202 162
Width: 1000
Flags: W
HStem: 0 21G<480.529 519.415> 331 118<395 464>
VStem: 566 114<334 686>
LayerCount: 2
Fore
SplineSet
592 82 m 5
 695 -3 l 5
 831 0 l 5
 674 152 l 5
 592 82 l 5
496 0 m 5
 151 446 l 5
 464 449 l 5
 566 334 l 5
 395 331 l 5
 592 82 l 5
 496 0 l 5
563 800 m 5
 680 686 l 5
 680 203 l 5
 566 334 l 5
 563 800 l 5
EndSplineSet
EndChar

StartChar: uF00A3
Encoding: 983203 983203 163
Width: 1000
Flags: W
LayerCount: 2
Fore
SplineSet
595 86 m 5
 698 1 l 5
 834 4 l 5
 677 156 l 5
 595 86 l 5
595 86 m 5
 510 2 l 5
 305 186 l 5
 530 404 l 5
 715 405 l 5
 485 180 l 5
 595 86 l 5
516 604 m 5
 334 803 l 5
 499 803 l 5
 665 600 l 5
 530 404 l 5
 391 405 l 5
 516 604 l 5
EndSplineSet
EndChar

StartChar: uF00A4
Encoding: 983204 983204 164
Width: 1000
Flags: W
HStem: 0 21G<490.902 533.439>
LayerCount: 2
Fore
SplineSet
603 82 m 5
 706 -3 l 5
 842 0 l 5
 685 152 l 5
 603 82 l 5
511 0 m 5
 306 204 l 5
 525 402 l 5
 686 403 l 5
 486 199 l 5
 603 82 l 5
 511 0 l 5
339 801 m 5
 499 799 l 5
 840 401 l 5
 686 403 l 5
 339 801 l 5
EndSplineSet
EndChar

StartChar: uF00A5
Encoding: 983205 983205 165
Width: 1000
Flags: W
LayerCount: 2
Fore
SplineSet
596 84 m 5
 699 -1 l 5
 835 2 l 5
 678 154 l 5
 596 84 l 5
596 84 m 5
 511 2 l 5
 316 206 l 5
 495 403 l 5
 656 401 l 5
 486 201 l 5
 596 84 l 5
349 400 m 5
 696 801 l 5
 836 801 l 5
 495 403 l 5
 349 400 l 5
EndSplineSet
EndChar

StartChar: uF00A6
Encoding: 983206 983206 166
Width: 1000
Flags: W
VStem: 374 121<404 708>
LayerCount: 2
Fore
SplineSet
610 83 m 5
 713 -2 l 5
 849 1 l 5
 692 153 l 5
 610 83 l 5
610 83 m 5
 511 4 l 5
 316 218 l 5
 495 404 l 5
 656 403 l 5
 486 215 l 5
 610 83 l 5
499 801 m 5
 495 404 l 5
 374 404 l 5
 376 708 l 5
 499 801 l 5
EndSplineSet
EndChar

StartChar: uF00A7
Encoding: 983207 983207 167
Width: 1000
Flags: W
LayerCount: 2
Fore
SplineSet
595 81 m 5
 698 -4 l 5
 834 -1 l 5
 677 151 l 5
 595 81 l 5
511 2 m 5
 306 199 l 5
 494 399 l 5
 495 397 l 5
 656 401 l 5
 486 194 l 5
 595 81 l 5
 511 2 l 5
494 399 m 5
 494 400 l 5
 495 400 l 5
 494 399 l 5
305 801 m 5
 494 400 l 5
 351 400 l 5
 155 801 l 5
 305 801 l 5
EndSplineSet
EndChar

StartChar: uF00A8
Encoding: 983208 983208 168
Width: 1000
Flags: W
HStem: 0 21G<497 649.983>
LayerCount: 2
Fore
SplineSet
497 2 m 1
 236 236 l 1
 483 452 l 1
 650 452 l 1
 423 236 l 1
 671 0 l 1
 497 2 l 1
650 452 m 1
 821 617 l 1
 605 807 l 1
 793 806 l 1
 1000 623 l 1
 815 452 l 1
 650 452 l 1
-155 799 m 1
 -52 904 l 1
 84 901 l 1
 -73 729 l 1
 -155 799 l 1
EndSplineSet
EndChar

StartChar: uF00A9
Encoding: 983209 983209 169
Width: 1000
Flags: W
HStem: 296 114<276 515>
VStem: 157 119<410 704>
LayerCount: 2
Fore
SplineSet
257 89 m 5
 154 4 l 5
 18 7 l 5
 175 159 l 5
 257 89 l 5
257 89 m 5
 515 301 l 5
 157 296 l 5
 157 704 l 5
 280 804 l 5
 276 410 l 5
 844 410 l 5
 342 5 l 5
 257 89 l 5
EndSplineSet
EndChar

StartChar: uF00AA
Encoding: 983210 983210 170
Width: 1000
Flags: W
HStem: 1 21G<21 181.235> 299 105<420 528>
LayerCount: 2
Fore
SplineSet
260 86 m 5
 157 1 l 5
 21 4 l 5
 178 156 l 5
 260 86 l 5
260 83 m 5
 528 299 l 5
 154 296 l 5
 666 795 l 5
 844 803 l 5
 420 404 l 5
 840 404 l 5
 348 2 l 5
 260 83 l 5
EndSplineSet
EndChar

StartChar: uF00AB
Encoding: 983211 983211 171
Width: 1000
Flags: W
HStem: 1 21G<234 394.235 535.93 569.272> 300 105<502 637>
LayerCount: 2
Fore
SplineSet
473 86 m 5
 370 1 l 5
 234 4 l 5
 391 156 l 5
 473 86 l 5
473 86 m 5
 637 301 l 5
 414 300 l 5
 151 804 l 5
 291 804 l 5
 502 405 l 5
 844 405 l 5
 555 0 l 5
 473 86 l 5
EndSplineSet
EndChar

StartChar: uF00AC
Encoding: 983212 983212 172
Width: 1000
Flags: W
LayerCount: 2
Fore
SplineSet
251 77 m 5
 148 -8 l 5
 12 -5 l 5
 169 147 l 5
 251 77 l 5
251 77 m 5
 432 223 l 5
 154 405 l 5
 656 803 l 5
 844 803 l 5
 344 404 l 5
 609 230 l 5
 328 2 l 5
 251 77 l 5
EndSplineSet
EndChar

StartChar: uF00AD
Encoding: 983213 983213 173
Width: 1000
Flags: W
HStem: 0 21G<587.716 635.103>
LayerCount: 2
Fore
SplineSet
533 67 m 5
 430 -8 l 5
 294 -5 l 5
 451 147 l 5
 533 67 l 5
676 196 m 5
 458 383 l 5
 728 383 l 5
 307 802 l 5
 465 801 l 5
 994 291 l 5
 742 291 l 5
 846 195 l 5
 611 0 l 5
 533 67 l 5
 676 196 l 5
EndSplineSet
EndChar

StartChar: uF00AE
Encoding: 983214 983214 174
Width: 1000
Flags: W
HStem: 0 21G<457.923 500.037>
VStem: 346 137<405 698>
LayerCount: 2
Fore
SplineSet
391 78 m 5
 288 -7 l 5
 152 -4 l 5
 309 148 l 5
 391 78 l 5
391 78 m 5
 496 186 l 5
 346 401 l 5
 352 698 l 5
 484 801 l 5
 483 405 l 5
 659 187 l 5
 481 0 l 5
 391 78 l 5
EndSplineSet
EndChar

StartChar: uF00AF
Encoding: 983215 983215 175
Width: 1000
Flags: W
HStem: 0 21G<810.314 836.173>
VStem: 697 143<140.75 412> 705 131<102 373.25>
LayerCount: 2
Fore
SplineSet
705 102 m 5xa0
 697 412 l 5
 148 802 l 5
 342 802 l 5
 840 462 l 5xc0
 836 0 l 5
 705 102 l 5xa0
705 102 m 5xa0
 602 -3 l 5
 466 0 l 5
 623 172 l 5
 705 102 l 5xa0
EndSplineSet
EndChar

StartChar: uF00B0
Encoding: 983216 983216 176
Width: 1000
Flags: W
HStem: 0 21G<471.627 512.192>
LayerCount: 2
Fore
SplineSet
398 83 m 5
 295 -2 l 5
 159 1 l 5
 316 153 l 5
 398 83 l 5
664 403 m 5
 844 406 l 5
 495 0 l 5
 398 83 l 5
 664 403 l 5
664 403 m 5
 292 802 l 5
 151 802 l 5
 505 403 l 5
 664 403 l 5
EndSplineSet
EndChar

StartChar: uF00B1
Encoding: 983217 983217 177
Width: 1000
Flags: W
LayerCount: 2
Fore
SplineSet
678 0 m 5
 678 399 l 5
 562 399 l 5
 562 103 l 5
 678 0 l 5
839 399 m 5
 474 798 l 5
 336 798 l 5
 678 399 l 5
 839 399 l 5
562 103 m 5
 459 -2 l 5
 323 1 l 5
 480 173 l 5
 562 103 l 5
EndSplineSet
EndChar

StartChar: uF00B2
Encoding: 983218 983218 178
Width: 1000
Flags: W
LayerCount: 2
Fore
SplineSet
840 477 m 5
 732 399 l 5
 732 103 l 5
 840 0 l 5
 840 477 l 5
732 399 m 5
 505 798 l 5
 391 798 l 5
 653 349 l 5
 732 399 l 5
732 103 m 5
 629 -2 l 5
 493 1 l 5
 650 173 l 5
 732 103 l 5
EndSplineSet
EndChar

StartChar: uF00B3
Encoding: 983219 983219 179
Width: 1000
Flags: W
HStem: 1 21G<571.158 615.986> 305 99<537 680>
VStem: 417 120<404 701>
LayerCount: 2
Fore
SplineSet
510 77 m 5
 764 310 l 5
 417 305 l 5
 417 443 420 601 420 803 c 5
 538 701 l 5
 537 404 l 5
 680 404 l 5
 847 222 l 5
 593 1 l 5
 510 77 l 5
510 77 m 5
 427 -8 l 5
 291 -5 l 5
 428 147 l 5
 510 77 l 5
EndSplineSet
EndChar

StartChar: uF00B4
Encoding: 983220 983220 180
Width: 1000
Flags: W
HStem: 1 21G<465.25 507.688> 294 105<394 578>
VStem: 153 129<504 702>
LayerCount: 2
Fore
SplineSet
391 81 m 5
 288 -4 l 5
 152 -1 l 5
 309 151 l 5
 391 81 l 5
391 81 m 5
 578 294 l 5
 394 290 l 5
 153 504 l 5
 151 801 l 5
 276 702 l 5
 282 402 l 5
 842 399 l 5
 490 1 l 5
 391 81 l 5
EndSplineSet
EndChar

StartChar: uF00B5
Encoding: 983221 983221 181
Width: 1000
Flags: W
HStem: 0 21G<17 177.235 314.381 357.473> 297 105<346 510>
LayerCount: 2
Fore
SplineSet
256 85 m 5
 153 0 l 5
 17 3 l 5
 174 155 l 5
 256 85 l 5
258 85 m 5
 510 298 l 5
 346 297 l 5
 162 483 l 5
 505 801 l 5
 686 801 l 5
 251 402 l 5
 844 403 l 5
 332 1 l 5
 258 85 l 5
EndSplineSet
EndChar

StartChar: uF00B6
Encoding: 983222 983222 182
Width: 1000
Flags: W
HStem: -1 21G<269 429.235> 290 114<464 596>
VStem: 246 115<514 671>
LayerCount: 2
Fore
SplineSet
508 84 m 5
 405 -1 l 5
 269 2 l 5
 426 154 l 5
 508 84 l 5
508 84 m 5
 741 293 l 5
 464 290 l 5
 246 514 l 5
 246 803 l 5
 362 671 l 5
 361 404 l 5
 596 404 l 5
 844 229 l 5
 590 2 l 5
 508 84 l 5
EndSplineSet
EndChar

StartChar: uF00B7
Encoding: 983223 983223 183
Width: 1000
Flags: W
LayerCount: 2
Fore
SplineSet
265 90 m 5
 342 9 l 5
 844 411 l 5
 285 411 l 5
 168 302 l 5
 520 306 l 5
 265 90 l 5
284 701 m 5
 285 411 l 5
 406 508 l 5
 403 803 l 5
 284 701 l 5
265 90 m 5
 172 5 l 5
 36 8 l 5
 183 160 l 5
 265 90 l 5
EndSplineSet
EndChar

StartChar: uF00B8
Encoding: 983224 983224 184
Width: 1000
Flags: W
HStem: 0 21G<277.922 318.128> 319 105<439 553>
LayerCount: 2
Fore
SplineSet
215 77 m 5
 132 -8 l 5
 -4 -5 l 5
 153 137 l 5
 215 77 l 5
352 238 m 5
 151 422 l 5
 553 424 l 5
 723 803 l 5
 844 803 l 5
 631 319 l 5
 439 319 l 5
 513 235 l 5
 300 0 l 5
 215 77 l 5
 352 238 l 5
EndSplineSet
EndChar

StartChar: uF00B9
Encoding: 983225 983225 185
Width: 1000
Flags: W
HStem: 0 21G<568.747 611.667> 291 115<505 675> 299 107<505 675>
LayerCount: 2
Fore
SplineSet
509 79 m 5xc0
 756 299 l 5xa0
 430 291 l 5
 244 805 l 5
 354 805 l 5
 505 406 l 5
 675 406 l 5
 844 225 l 5
 589 0 l 5
 509 79 l 5xc0
509 79 m 5
 426 4 l 5
 290 7 l 5
 427 149 l 5
 509 79 l 5
EndSplineSet
EndChar

StartChar: uF00BA
Encoding: 983226 983226 186
Width: 1000
Flags: W
LayerCount: 2
Fore
SplineSet
239 82 m 5
 136 -3 l 5
 0 0 l 5
 157 152 l 5
 239 82 l 5
335 0 m 5
 680 446 l 5
 367 449 l 5
 265 334 l 5
 436 331 l 5
 239 82 l 5
 335 0 l 5
268 800 m 5
 151 686 l 5
 151 203 l 5
 265 334 l 5
 268 800 l 5
EndSplineSet
EndChar

StartChar: uF00BB
Encoding: 983227 983227 187
Width: 1000
Flags: W
HStem: 1 21G<186 346.235>
LayerCount: 2
Fore
SplineSet
425 86 m 5
 322 1 l 5
 186 4 l 5
 343 156 l 5
 425 86 l 5
425 86 m 5
 510 2 l 5
 715 186 l 5
 490 404 l 5
 305 405 l 5
 535 180 l 5
 425 86 l 5
504 604 m 5
 686 803 l 5
 521 803 l 5
 355 600 l 5
 490 404 l 5
 629 405 l 5
 504 604 l 5
EndSplineSet
EndChar

StartChar: uF00BC
Encoding: 983228 983228 188
Width: 1000
Flags: W
LayerCount: 2
Fore
SplineSet
543 82 m 5
 440 -3 l 5
 304 0 l 5
 461 152 l 5
 543 82 l 5
635 0 m 5
 840 204 l 5
 621 402 l 5
 460 403 l 5
 660 199 l 5
 543 82 l 5
 635 0 l 5
807 801 m 5
 647 799 l 5
 306 401 l 5
 460 403 l 5
 807 801 l 5
EndSplineSet
EndChar

StartChar: uF00BD
Encoding: 983229 983229 189
Width: 1000
Flags: W
HStem: -1 21G<317 477.235>
LayerCount: 2
Fore
SplineSet
556 84 m 5
 453 -1 l 5
 317 2 l 5
 474 154 l 5
 556 84 l 5
556 84 m 5
 641 2 l 5
 836 206 l 5
 657 403 l 5
 496 401 l 5
 666 201 l 5
 556 84 l 5
803 400 m 5
 456 801 l 5
 316 801 l 5
 657 403 l 5
 803 400 l 5
EndSplineSet
EndChar

StartChar: uF00BE
Encoding: 983230 983230 190
Width: 1000
Flags: W
LayerCount: 2
Fore
SplineSet
391 83 m 5
 288 -2 l 5
 152 1 l 5
 309 153 l 5
 391 83 l 5
391 83 m 5
 490 4 l 5
 685 218 l 5
 506 404 l 5
 345 403 l 5
 515 215 l 5
 391 83 l 5
502 801 m 5
 506 404 l 5
 627 404 l 5
 625 708 l 5
 502 801 l 5
EndSplineSet
EndChar

StartChar: uF00BF
Encoding: 983231 983231 191
Width: 1000
Flags: W
LayerCount: 2
Fore
SplineSet
245 81 m 5
 142 -4 l 5
 6 -1 l 5
 163 151 l 5
 245 81 l 5
329 2 m 5
 534 199 l 5
 346 399 l 5
 345 397 l 5
 184 401 l 5
 354 194 l 5
 245 81 l 5
 329 2 l 5
346 399 m 5
 346 400 l 5
 345 400 l 5
 346 399 l 5
535 801 m 5
 346 400 l 5
 489 400 l 5
 685 801 l 5
 535 801 l 5
EndSplineSet
EndChar

StartChar: uF00C0
Encoding: 983232 983232 192
Width: 1000
Flags: W
HStem: 0 21G<623.848 844>
LayerCount: 2
Fore
SplineSet
744 714 m 5
 780.319335938 816.471679688 988.659179688 922.682617188 1057 771 c 5
 865 830.139648438 867 655.73828125 855 618 c 5
 744 714 l 5
744 714 m 5
 349 399 l 1
 844 0 l 1
 649 0 l 1
 151 396 l 1
 646 802 l 1
 744 714 l 5
EndSplineSet
EndChar

StartChar: uF00C1
Encoding: 983233 983233 193
Width: 1000
Flags: W
HStem: 399 109<486 725>
VStem: 721 123<105 399>
LayerCount: 2
Fore
SplineSet
742 722 m 5
 778.319335938 824.471679688 986.659179688 930.682617188 1055 779 c 5
 863 838.139648438 865 663.73828125 853 626 c 5
 742 722 l 5
742 722 m 1
 486 508 l 1
 844 513 l 1
 844 105 l 1
 721 5 l 1
 725 399 l 1
 157 399 l 1
 659 804 l 1
 742 722 l 1
EndSplineSet
EndChar

StartChar: uF00C2
Encoding: 983234 983234 194
Width: 1000
Flags: W
HStem: 0 21G<175.253 332> 399 105<470 578>
LayerCount: 2
Fore
SplineSet
728 724 m 5
 764.319335938 826.471679688 972.659179688 922.682617188 1041 771 c 1
 849 830.139648438 851 655.73828125 839 618 c 1
 728 724 l 5
728 724 m 5
 470 504 l 1
 844 507 l 1
 332 8 l 1
 154 0 l 1
 578 399 l 1
 158 399 l 1
 650 801 l 1
 728 724 l 5
EndSplineSet
EndChar

StartChar: uF00C3
Encoding: 983235 983235 195
Width: 1000
Flags: W
HStem: 0 21G<693.424 844> 399 104<358 493>
LayerCount: 2
Fore
SplineSet
516 726 m 5
 552.319335938 828.471679688 760.659179688 934.682617188 829 783 c 5
 637 842.139648438 639 667.73828125 627 630 c 5
 516 726 l 5
516 726 m 5
 358 503 l 1
 581 504 l 1
 844 0 l 1
 704 0 l 1
 493 399 l 1
 151 399 l 1
 440 804 l 1
 516 726 l 5
EndSplineSet
EndChar

StartChar: uF00C4
Encoding: 983236 983236 196
Width: 1000
Flags: W
HStem: 0 21G<154 367.226>
LayerCount: 2
Fore
SplineSet
744 729 m 5
 780.319335938 831.471679688 988.659179688 937.682617188 1057 786 c 5
 865 845.139648438 867 670.73828125 855 633 c 5
 744 729 l 5
744 729 m 5
 566 580 l 1
 844 398 l 1
 342 0 l 1
 154 0 l 1
 654 399 l 1
 389 573 l 1
 670 801 l 1
 744 729 l 5
EndSplineSet
EndChar

StartChar: uF00C5
Encoding: 983237 983237 197
Width: 1000
Flags: W
HStem: 0 21G<836 973.905>
LayerCount: 2
Fore
SplineSet
764 728 m 5
 800.319335938 830.471679688 1008.65917969 936.682617188 1077 785 c 5
 885 844.139648438 887 669.73828125 875 632 c 5
 764 728 l 5
625 606 m 1
 843 419 l 1
 573 419 l 1
 994 0 l 1
 836 1 l 1
 307 511 l 1
 559 511 l 1
 455 607 l 1
 690 802 l 1
 764 728 l 1
 625 606 l 1
EndSplineSet
EndChar

StartChar: uF00C6
Encoding: 983238 983238 198
Width: 1000
Flags: W
HStem: -1 21G<498.051 523.631>
VStem: 498 132<102 395>
LayerCount: 2
Fore
SplineSet
590 724 m 5
 626.319335938 826.471679688 834.659179688 932.682617188 903 781 c 5
 711 840.139648438 713 665.73828125 701 628 c 5
 590 724 l 5
590 724 m 1
 486 614 l 1
 636 399 l 1
 630 102 l 1
 498 -1 l 1
 499 395 l 1
 323 613 l 1
 501 800 l 1
 590 724 l 1
EndSplineSet
EndChar

StartChar: uF00C7
Encoding: 983239 983239 199
Width: 1000
Flags: W
HStem: 0 21G<616.706 840>
VStem: 148 143<390 629.75> 152 131<424.25 664>
LayerCount: 2
Fore
SplineSet
283 664 m 5xa0
 319.319335938 766.471679688 527.659179688 872.682617188 596 721 c 5
 404 780.139648438 406 605.73828125 394 568 c 5
 283 664 l 5xa0
283 664 m 1
 291 390 l 1
 840 0 l 1
 646 0 l 1
 148 340 l 1xc0
 152 802 l 1
 283 664 l 1
EndSplineSet
EndChar

StartChar: uF00C8
Encoding: 983240 983240 200
Width: 1000
Flags: W
LayerCount: 2
Fore
SplineSet
586 713 m 5
 622.319335938 815.471679688 830.659179688 921.682617188 899 770 c 5
 707 829.139648438 709 654.73828125 697 617 c 5
 586 713 l 5
331 399 m 1
 151 396 l 1
 500 802 l 1
 586 713 l 1
 331 399 l 1
331 399 m 1
 703 0 l 1
 844 0 l 1
 490 399 l 1
 331 399 l 1
EndSplineSet
EndChar

StartChar: uF00C9
Encoding: 983241 983241 201
Width: 1000
Flags: W
LayerCount: 2
Fore
SplineSet
613 675 m 5
 649.319335938 777.471679688 857.659179688 883.682617188 926 732 c 5
 734 791.139648438 736 616.73828125 724 579 c 5
 613 675 l 5
497 798 m 1
 497 399 l 1
 613 399 l 1
 613 675 l 1
 497 798 l 1
336 399 m 1
 701 0 l 1
 839 0 l 1
 497 399 l 1
 336 399 l 1
EndSplineSet
EndChar

StartChar: uF00CA
Encoding: 983242 983242 202
Width: 1000
Flags: W
LayerCount: 2
Fore
SplineSet
499 675 m 5
 535.319335938 777.471679688 743.659179688 883.682617188 812 732 c 5
 620 791.139648438 622 616.73828125 610 579 c 5
 499 675 l 5
391 321 m 1
 499 399 l 1
 499 675 l 1
 391 798 l 1
 391 321 l 1
499 399 m 1
 726 0 l 1
 840 0 l 1
 578 449 l 1
 499 399 l 1
EndSplineSet
EndChar

StartChar: uF00CB
Encoding: 983243 983243 203
Width: 1000
Flags: W
HStem: 0 21G<820.863 844> 399 94<584 727>
VStem: 726 118<102 399>
LayerCount: 2
Fore
SplineSet
747 729 m 5
 783.319335938 831.471679688 991.659179688 937.682617188 1060 786 c 5
 868 845.139648438 870 670.73828125 858 633 c 5
 747 729 l 5
747 729 m 5
 500 493 l 1
 847 498 l 1
 847 360 844 202 844 0 c 1
 726 102 l 1
 727 399 l 1
 584 399 l 1
 417 581 l 1
 671 802 l 1
 747 729 l 5
EndSplineSet
EndChar

StartChar: uF00CC
Encoding: 983244 983244 204
Width: 1000
Flags: W
HStem: 0 21G<816.747 841.865> 402 105<415 599>
VStem: 717 125<99 297>
LayerCount: 2
Fore
SplineSet
591 701 m 5
 627.319335938 803.471679688 835.659179688 909.682617188 904 758 c 5
 712 817.139648438 714 642.73828125 702 605 c 5
 591 701 l 5
591 701 m 1
 415 507 l 1
 599 511 l 1
 840 297 l 1
 842 0 l 1
 717 99 l 1
 711 399 l 1
 151 402 l 1
 503 800 l 1
 591 701 l 1
EndSplineSet
EndChar

StartChar: uF00CD
Encoding: 983245 983245 205
Width: 1000
Flags: W
HStem: 1 21G<316 518.572> 400 104<492 656>
LayerCount: 2
Fore
SplineSet
742 723 m 5
 778.319335938 825.471679688 986.659179688 931.682617188 1055 780 c 5
 863 839.139648438 865 664.73828125 853 627 c 5
 742 723 l 5
742 723 m 5
 492 504 l 1
 656 505 l 1
 840 319 l 1
 497 1 l 1
 316 1 l 1
 751 400 l 1
 158 399 l 1
 670 801 l 1
 742 723 l 5
EndSplineSet
EndChar

StartChar: uF00CE
Encoding: 983246 983246 206
Width: 1000
Flags: W
HStem: 0 21G<826.424 844> 399 114<494 626>
VStem: 728 116<132 289>
LayerCount: 2
Fore
SplineSet
584 728 m 1
 349 510 l 1
 626 513 l 1
 844 289 l 1
 844 0 l 1
 728 132 l 1
 729 399 l 1
 494 399 l 1
 246 574 l 1
 500 801 l 1
 584 728 l 1
584 728 m 5
 620 830 743 887 843 782 c 5
 651 789 707 673 695 632 c 5
 584 728 l 5
EndSplineSet
EndChar

StartChar: uF00CF
Encoding: 983247 983247 207
Width: 1000
Flags: W
LayerCount: 2
Fore
SplineSet
742 716 m 5
 778.319335938 818.471679688 986.659179688 924.682617188 1055 773 c 5
 863 832.139648438 865 657.73828125 853 620 c 5
 742 716 l 5
742 716 m 1
 670 801 l 1
 168 399 l 1
 727 399 l 1
 844 508 l 1
 492 504 l 1
 742 716 l 1
728 109 m 1
 727 399 l 1
 606 302 l 1
 609 7 l 1
 728 109 l 1
EndSplineSet
EndChar

StartChar: uF00D0
Encoding: 983248 983248 208
Width: 1000
Flags: W
HStem: 0 21G<151 280.971> 379 105<442 556>
LayerCount: 2
Fore
SplineSet
772 719 m 5
 808.319335938 821.471679688 1016.65917969 927.682617188 1085 776 c 5
 893 835.139648438 895 660.73828125 883 623 c 5
 772 719 l 5
643 565 m 1
 844 381 l 1
 442 379 l 1
 272 0 l 1
 151 0 l 1
 364 484 l 1
 556 484 l 1
 482 568 l 1
 695 803 l 1
 772 719 l 1
 643 565 l 1
EndSplineSet
EndChar

StartChar: uF00D1
Encoding: 983249 983249 209
Width: 1000
Flags: W
HStem: 0 21G<726.431 844> 399 115<413 583> 399 107<413 583>
LayerCount: 2
Fore
SplineSet
582 726 m 5x80
 618.319335938 828.471679688 826.659179688 934.682617188 895 783 c 5
 703 842.139648438 705 667.73828125 693 630 c 5
 582 726 l 5x80
582 726 m 5
 332 506 l 1xa0
 658 514 l 1
 844 0 l 1
 734 0 l 1
 583 399 l 1
 413 399 l 1xc0
 244 580 l 1
 499 805 l 1
 582 726 l 5
EndSplineSet
EndChar

StartChar: uF00D2
Encoding: 983250 983250 210
Width: 1000
Flags: W
LayerCount: 2
Fore
SplineSet
582 708 m 5
 618.319335938 810.471679688 826.659179688 916.682617188 895 765 c 5
 703 824.139648438 705 649.73828125 693 612 c 5
 582 708 l 5
496 798 m 1
 151 352 l 1
 464 349 l 1
 566 464 l 1
 395 467 l 1
 582 708 l 1
 496 798 l 1
563 -2 m 1
 680 112 l 1
 680 595 l 1
 566 464 l 1
 563 -2 l 1
EndSplineSet
EndChar

StartChar: uF00D3
Encoding: 983251 983251 211
Width: 1000
Flags: W
LayerCount: 2
Fore
SplineSet
594 725 m 5
 630.319335938 827.471679688 838.659179688 933.682617188 907 782 c 5
 715 841.139648438 717 666.73828125 705 629 c 5
 594 725 l 5
594 725 m 1
 510 801 l 1
 305 617 l 1
 530 399 l 1
 715 398 l 1
 485 623 l 1
 594 725 l 1
516 199 m 1
 334 0 l 1
 499 0 l 1
 665 203 l 1
 530 399 l 1
 391 398 l 1
 516 199 l 1
EndSplineSet
EndChar

StartChar: uF00D4
Encoding: 983252 983252 212
Width: 1000
Flags: W
LayerCount: 2
Fore
SplineSet
600 720 m 5
 636.319335938 822.471679688 844.659179688 928.682617188 913 777 c 5
 721 836.139648438 723 661.73828125 711 624 c 5
 600 720 l 5
511 799 m 1
 306 595 l 1
 525 397 l 1
 686 396 l 1
 486 600 l 1
 600 720 l 1
 511 799 l 1
339 -2 m 1
 499 0 l 1
 840 398 l 1
 686 396 l 1
 339 -2 l 1
EndSplineSet
EndChar

StartChar: uF00D5
Encoding: 983253 983253 213
Width: 1000
Flags: W
LayerCount: 2
Fore
SplineSet
606 719 m 5
 642.319335938 821.471679688 850.659179688 927.682617188 919 776 c 5
 727 835.139648438 729 660.73828125 717 623 c 5
 606 719 l 5
606 719 m 1
 511 799 l 1
 316 595 l 1
 495 398 l 1
 656 400 l 1
 486 600 l 1
 606 719 l 1
349 401 m 1
 696 0 l 1
 836 0 l 1
 495 398 l 1
 349 401 l 1
EndSplineSet
EndChar

StartChar: uF00D6
Encoding: 983254 983254 214
Width: 1000
Flags: W
LayerCount: 2
Fore
SplineSet
603 719 m 5
 639.319335938 821.471679688 847.659179688 927.682617188 916 776 c 5
 724 835.139648438 726 660.73828125 714 623 c 5
 603 719 l 5
603 719 m 1
 511 799 l 1
 316 585 l 1
 495 399 l 1
 656 400 l 1
 486 588 l 1
 603 719 l 1
499 2 m 1
 495 399 l 1
 374 399 l 1
 376 95 l 1
 499 2 l 1
EndSplineSet
EndChar

StartChar: uF00D7
Encoding: 983255 983255 215
Width: 1000
Flags: W
LayerCount: 2
Fore
SplineSet
600 719 m 5
 636.319335938 821.471679688 844.659179688 927.682617188 913 776 c 5
 721 835.139648438 723 660.73828125 711 623 c 5
 600 719 l 5
511 799 m 1
 306 602 l 1
 494 402 l 1
 495 404 l 1
 656 400 l 1
 486 607 l 1
 600 719 l 1
 511 799 l 1
494 402 m 1
 494 401 l 1
 495 401 l 1
 494 402 l 1
305 0 m 1
 494 401 l 1
 351 401 l 1
 155 0 l 1
 305 0 l 1
EndSplineSet
EndChar

StartChar: uF00D8
Encoding: 983256 983256 216
Width: 1000
Flags: W
LayerCount: 2
Fore
SplineSet
251 714 m 5
 214.680664062 816.471679688 6.3408203125 922.682617188 -62 771 c 5
 130 830.139648438 128 655.73828125 140 618 c 5
 251 714 l 5
251 714 m 5
 646 399 l 5
 151 0 l 5
 346 0 l 5
 844 396 l 5
 349 802 l 5
 251 714 l 5
EndSplineSet
EndChar

StartChar: uF00D9
Encoding: 983257 983257 217
Width: 1000
Flags: W
LayerCount: 2
Fore
SplineSet
259 722 m 5
 222.680664062 824.471679688 14.3408203125 930.682617188 -54 779 c 5
 138 838.139648438 136 663.73828125 148 626 c 5
 259 722 l 5
259 722 m 5
 515 508 l 5
 157 513 l 5
 157 105 l 5
 280 5 l 5
 276 399 l 5
 844 399 l 5
 342 804 l 5
 259 722 l 5
EndSplineSet
EndChar

StartChar: uF00DA
Encoding: 983258 983258 218
Width: 1000
Flags: W
LayerCount: 2
Fore
SplineSet
270 724 m 5
 233.680664062 826.471679688 25.3408203125 922.682617188 -43 771 c 5
 149 830.139648438 147 655.73828125 159 618 c 5
 270 724 l 5
270 724 m 5
 528 504 l 5
 154 507 l 5
 666 8 l 5
 844 0 l 5
 420 399 l 5
 840 399 l 5
 348 801 l 5
 270 724 l 5
EndSplineSet
EndChar

StartChar: uF00DB
Encoding: 983259 983259 219
Width: 1000
Flags: W
LayerCount: 2
Fore
SplineSet
479 726 m 5
 442.680664062 828.471679688 234.340820312 934.682617188 166 783 c 5
 358 842.139648438 356 667.73828125 368 630 c 5
 479 726 l 5
479 726 m 5
 637 503 l 5
 414 504 l 5
 151 0 l 5
 291 0 l 5
 502 399 l 5
 844 399 l 5
 555 804 l 5
 479 726 l 5
EndSplineSet
EndChar

StartChar: uF00DC
Encoding: 983260 983260 220
Width: 1000
Flags: W
LayerCount: 2
Fore
SplineSet
254 729 m 5
 217.680664062 831.471679688 9.3408203125 937.682617188 -59 786 c 5
 133 845.139648438 131 670.73828125 143 633 c 5
 254 729 l 5
254 729 m 5
 432 580 l 5
 154 398 l 5
 656 0 l 5
 844 0 l 5
 344 399 l 5
 609 573 l 5
 328 801 l 5
 254 729 l 5
EndSplineSet
EndChar

StartChar: uF00DD
Encoding: 983261 983261 221
Width: 1000
Flags: W
LayerCount: 2
Fore
SplineSet
537 728 m 5
 500.680664062 830.471679688 292.340820312 936.682617188 224 785 c 5
 416 844.139648438 414 669.73828125 426 632 c 5
 537 728 l 5
676 606 m 5
 458 419 l 5
 728 419 l 5
 307 0 l 5
 465 1 l 5
 994 511 l 5
 742 511 l 5
 846 607 l 5
 611 802 l 5
 537 728 l 5
 676 606 l 5
EndSplineSet
EndChar

StartChar: uF00DE
Encoding: 983262 983262 222
Width: 1000
Flags: W
LayerCount: 2
Fore
SplineSet
392 724 m 5
 355.680664062 826.471679688 147.340820312 932.682617188 79 781 c 5
 271 840.139648438 269 665.73828125 281 628 c 5
 392 724 l 5
392 724 m 5
 496 614 l 5
 346 399 l 5
 352 102 l 5
 484 -1 l 5
 483 395 l 5
 659 613 l 5
 481 800 l 5
 392 724 l 5
EndSplineSet
EndChar

StartChar: uF00DF
Encoding: 983263 983263 223
Width: 1000
Flags: W
VStem: 697 143<390 629.75> 705 131<424.25 664>
LayerCount: 2
Fore
SplineSet
705 664 m 5x40
 668.680664062 766.471679688 460.340820312 872.682617188 392 721 c 5
 584 780.139648438 582 605.73828125 594 568 c 5
 705 664 l 5x40
705 664 m 5
 697 390 l 5
 148 0 l 5
 342 0 l 5
 840 340 l 5x80
 836 802 l 5
 705 664 l 5
EndSplineSet
EndChar

StartChar: uF00E0
Encoding: 983264 983264 224
Width: 1000
Flags: W
HStem: 0 21G<151 310.647>
LayerCount: 2
Fore
SplineSet
409 713 m 5
 372.680664062 815.471679688 164.340820312 921.682617188 96 770 c 5
 288 829.139648438 286 654.73828125 298 617 c 5
 409 713 l 5
664 399 m 5
 844 396 l 5
 495 802 l 5
 409 713 l 5
 664 399 l 5
664 399 m 5
 292 0 l 5
 151 0 l 5
 505 399 l 5
 664 399 l 5
EndSplineSet
EndChar

StartChar: uF00E1
Encoding: 983265 983265 225
Width: 1000
Flags: W
HStem: 0 21G<336 492.296>
LayerCount: 2
Fore
SplineSet
562 675 m 5
 525.680664062 777.471679688 317.340820312 883.682617188 249 732 c 5
 441 791.139648438 439 616.73828125 451 579 c 5
 562 675 l 5
678 798 m 5
 678 399 l 5
 562 399 l 5
 562 675 l 5
 678 798 l 5
839 399 m 5
 474 0 l 5
 336 0 l 5
 678 399 l 5
 839 399 l 5
EndSplineSet
EndChar

StartChar: uF00E2
Encoding: 983266 983266 226
Width: 1000
Flags: W
HStem: 0 21G<391 516.378>
LayerCount: 2
Fore
SplineSet
732 675 m 5
 695.680664062 777.471679688 487.340820312 883.682617188 419 732 c 5
 611 791.139648438 609 616.73828125 621 579 c 5
 732 675 l 5
840 321 m 5
 732 399 l 5
 732 675 l 5
 840 798 l 5
 840 321 l 5
732 399 m 5
 505 0 l 5
 391 0 l 5
 653 449 l 5
 732 399 l 5
EndSplineSet
EndChar

StartChar: uF00E3
Encoding: 983267 983267 227
Width: 1000
Flags: W
LayerCount: 2
Fore
SplineSet
517 729 m 5
 480.680664062 831.471679688 272.340820312 937.682617188 204 786 c 5
 396 845.139648438 394 670.73828125 406 633 c 5
 517 729 l 5
517 729 m 5
 764 493 l 5
 417 498 l 5
 417 360 420 202 420 0 c 5
 538 102 l 5
 537 399 l 5
 680 399 l 5
 847 581 l 5
 593 802 l 5
 517 729 l 5
EndSplineSet
EndChar

StartChar: uF00E4
Encoding: 983268 983268 228
Width: 1000
Flags: W
LayerCount: 2
Fore
SplineSet
402 701 m 5
 365.680664062 803.471679688 157.340820312 909.682617188 89 758 c 5
 281 817.139648438 279 642.73828125 291 605 c 5
 402 701 l 5
402 701 m 5
 578 507 l 5
 394 511 l 5
 153 297 l 5
 151 0 l 5
 276 99 l 5
 282 399 l 5
 842 402 l 5
 490 800 l 5
 402 701 l 5
EndSplineSet
EndChar

StartChar: uF00E5
Encoding: 983269 983269 229
Width: 1000
Flags: W
LayerCount: 2
Fore
SplineSet
260 723 m 5
 223.680664062 825.471679688 15.3408203125 931.682617188 -53 780 c 5
 139 839.139648438 137 664.73828125 149 627 c 5
 260 723 l 5
260 723 m 5
 510 504 l 5
 346 505 l 5
 162 319 l 5
 505 1 l 5
 686 1 l 5
 251 400 l 5
 844 399 l 5
 332 801 l 5
 260 723 l 5
EndSplineSet
EndChar

StartChar: uF00E6
Encoding: 983270 983270 230
Width: 1000
Flags: W
LayerCount: 2
Fore
SplineSet
506 728 m 5
 741 510 l 5
 464 513 l 5
 246 289 l 5
 246 0 l 5
 362 132 l 5
 361 399 l 5
 596 399 l 5
 844 574 l 5
 590 801 l 5
 506 728 l 5
506 728 m 5
 470 830 347 887 247 782 c 5
 439 789 383 673 395 632 c 5
 506 728 l 5
EndSplineSet
EndChar

StartChar: uF00E7
Encoding: 983271 983271 231
Width: 1000
Flags: W
HStem: 399 109<285 520>
VStem: 284 119<109 302>
LayerCount: 2
Fore
SplineSet
270 716 m 5
 233.680664062 818.471679688 25.3408203125 924.682617188 -43 773 c 5
 149 832.139648438 147 657.73828125 159 620 c 5
 270 716 l 5
270 716 m 5
 342 801 l 5
 844 399 l 5
 285 399 l 5
 168 508 l 5
 520 504 l 5
 270 716 l 5
284 109 m 5
 285 399 l 5
 406 302 l 5
 403 7 l 5
 284 109 l 5
EndSplineSet
EndChar

StartChar: uF00E8
Encoding: 983272 983272 232
Width: 1000
Flags: W
LayerCount: 2
Fore
SplineSet
223 719 m 5
 186.680664062 821.471679688 -21.6591796875 927.682617188 -90 776 c 5
 102 835.139648438 100 660.73828125 112 623 c 5
 223 719 l 5
352 565 m 5
 151 381 l 5
 553 379 l 5
 723 0 l 5
 844 0 l 5
 631 484 l 5
 439 484 l 5
 513 568 l 5
 300 803 l 5
 223 719 l 5
 352 565 l 5
EndSplineSet
EndChar

StartChar: uF00E9
Encoding: 983273 983273 233
Width: 1000
Flags: W
HStem: 399 115<505 675> 399 107<505 675>
LayerCount: 2
Fore
SplineSet
506 726 m 5x00
 469.680664062 828.471679688 261.340820312 934.682617188 193 783 c 5
 385 842.139648438 383 667.73828125 395 630 c 5
 506 726 l 5x00
506 726 m 5
 756 506 l 5x40
 430 514 l 5
 244 0 l 5
 354 0 l 5
 505 399 l 5
 675 399 l 5x80
 844 580 l 5
 589 805 l 5
 506 726 l 5
EndSplineSet
EndChar

StartChar: uF00EA
Encoding: 983274 983274 234
Width: 1000
Flags: W
HStem: 349 118<367 436>
VStem: 151 117<112 464>
LayerCount: 2
Fore
SplineSet
249 708 m 5
 212.680664062 810.471679688 4.3408203125 916.682617188 -64 765 c 5
 128 824.139648438 126 649.73828125 138 612 c 5
 249 708 l 5
335 798 m 5
 680 352 l 5
 367 349 l 5
 265 464 l 5
 436 467 l 5
 249 708 l 5
 335 798 l 5
268 -2 m 5
 151 112 l 5
 151 595 l 5
 265 464 l 5
 268 -2 l 5
EndSplineSet
EndChar

StartChar: uF00EB
Encoding: 983275 983275 235
Width: 1000
Flags: W
HStem: 0 21G<504.645 686>
LayerCount: 2
Fore
SplineSet
426 725 m 5
 389.680664062 827.471679688 181.340820312 933.682617188 113 782 c 5
 305 841.139648438 303 666.73828125 315 629 c 5
 426 725 l 5
426 725 m 5
 510 801 l 5
 715 617 l 5
 490 399 l 5
 305 398 l 5
 535 623 l 5
 426 725 l 5
504 199 m 5
 686 0 l 5
 521 0 l 5
 355 203 l 5
 490 399 l 5
 629 398 l 5
 504 199 l 5
EndSplineSet
EndChar

StartChar: uF00EC
Encoding: 983276 983276 236
Width: 1000
Flags: W
LayerCount: 2
Fore
SplineSet
546 720 m 5
 509.680664062 822.471679688 301.340820312 928.682617188 233 777 c 5
 425 836.139648438 423 661.73828125 435 624 c 5
 546 720 l 5
635 799 m 5
 840 595 l 5
 621 397 l 5
 460 396 l 5
 660 600 l 5
 546 720 l 5
 635 799 l 5
807 -2 m 5
 647 0 l 5
 306 398 l 5
 460 396 l 5
 807 -2 l 5
EndSplineSet
EndChar

StartChar: uF00ED
Encoding: 983277 983277 237
Width: 1000
Flags: W
HStem: 0 21G<316 473.307>
LayerCount: 2
Fore
SplineSet
546 719 m 5
 509.680664062 821.471679688 301.340820312 927.682617188 233 776 c 5
 425 835.139648438 423 660.73828125 435 623 c 5
 546 719 l 5
546 719 m 5
 641 799 l 5
 836 595 l 5
 657 398 l 5
 496 400 l 5
 666 600 l 5
 546 719 l 5
803 401 m 5
 456 0 l 5
 316 0 l 5
 657 398 l 5
 803 401 l 5
EndSplineSet
EndChar

StartChar: uF00EE
Encoding: 983278 983278 238
Width: 1000
Flags: W
VStem: 502 123<95 399>
LayerCount: 2
Fore
SplineSet
398 719 m 5
 361.680664062 821.471679688 153.340820312 927.682617188 85 776 c 5
 277 835.139648438 275 660.73828125 287 623 c 5
 398 719 l 5
398 719 m 5
 490 799 l 5
 685 585 l 5
 506 399 l 5
 345 400 l 5
 515 588 l 5
 398 719 l 5
502 2 m 5
 506 399 l 5
 627 399 l 5
 625 95 l 5
 502 2 l 5
EndSplineSet
EndChar

StartChar: uF00EF
Encoding: 983279 983279 239
Width: 1000
Flags: W
HStem: 0 21G<525.574 685>
LayerCount: 2
Fore
SplineSet
240 719 m 5
 203.680664062 821.471679688 -4.6591796875 927.682617188 -73 776 c 5
 119 835.139648438 117 660.73828125 129 623 c 5
 240 719 l 5
329 799 m 5
 534 602 l 5
 346 402 l 5
 345 404 l 5
 184 400 l 5
 354 607 l 5
 240 719 l 5
 329 799 l 5
346 402 m 5
 346 401 l 5
 345 401 l 5
 346 402 l 5
535 0 m 5
 346 401 l 5
 489 401 l 5
 685 0 l 5
 535 0 l 5
EndSplineSet
EndChar

StartChar: uF00F0
Encoding: 983280 983280 240
Width: 1000
Flags: W
LayerCount: 2
Fore
SplineSet
580 719 m 5
 616.319335938 821.471679688 824.659179688 927.682617188 893 776 c 5
 701 835.139648438 703 660.73828125 691 623 c 5
 580 719 l 5
497 805 m 1
 236 571 l 1
 483 355 l 1
 650 355 l 1
 423 571 l 1
 580 719 l 1
 497 805 l 1
650 355 m 1
 821 190 l 1
 605 0 l 1
 793 1 l 1
 1000 184 l 1
 815 355 l 1
 650 355 l 1
EndSplineSet
EndChar

StartChar: uF00F1
Encoding: 983281 983281 241
Width: 1000
Flags: W
LayerCount: 2
Fore
SplineSet
742 87 m 5
 778.319335938 -15.4716796875 986.659179688 -121.682617188 1055 30 c 5
 863 -29.1396484375 865 145.26171875 853 183 c 5
 742 87 l 5
742 87 m 5
 486 301 l 5
 844 296 l 5
 844 704 l 5
 721 804 l 5
 725 410 l 5
 157 410 l 5
 659 5 l 5
 742 87 l 5
EndSplineSet
EndChar

StartChar: uF00F2
Encoding: 983282 983282 242
Width: 1000
Flags: W
LayerCount: 2
Fore
SplineSet
728 79 m 5
 764.319335938 -23.4716796875 972.659179688 -119.682617188 1041 32 c 5
 849 -27.1396484375 851 147.26171875 839 185 c 5
 728 79 l 5
728 79 m 5
 470 299 l 5
 844 296 l 5
 332 795 l 5
 154 803 l 5
 578 404 l 5
 158 404 l 5
 650 2 l 5
 728 79 l 5
EndSplineSet
EndChar

StartChar: uF00F3
Encoding: 983283 983283 243
Width: 1000
Flags: W
LayerCount: 2
Fore
SplineSet
516 78 m 5
 552.319335938 -24.4716796875 760.659179688 -130.682617188 829 21 c 5
 637 -38.1396484375 639 136.26171875 627 174 c 5
 516 78 l 5
516 78 m 5
 358 301 l 5
 581 300 l 5
 844 804 l 5
 704 804 l 5
 493 405 l 5
 151 405 l 5
 440 0 l 5
 516 78 l 5
EndSplineSet
EndChar

StartChar: uF00F4
Encoding: 983284 983284 244
Width: 1000
Flags: W
LayerCount: 2
Fore
SplineSet
744 74 m 5
 780.319335938 -28.4716796875 988.659179688 -134.682617188 1057 17 c 5
 865 -42.1396484375 867 132.26171875 855 170 c 5
 744 74 l 5
744 74 m 5
 566 223 l 5
 844 405 l 5
 342 803 l 5
 154 803 l 5
 654 404 l 5
 389 230 l 5
 670 2 l 5
 744 74 l 5
EndSplineSet
EndChar

StartChar: uF00F5
Encoding: 983285 983285 245
Width: 1000
Flags: W
LayerCount: 2
Fore
SplineSet
764 74 m 5
 800.319335938 -28.4716796875 1008.65917969 -134.682617188 1077 17 c 5
 885 -42.1396484375 887 132.26171875 875 170 c 5
 764 74 l 5
625 196 m 5
 843 383 l 5
 573 383 l 5
 994 802 l 5
 836 801 l 5
 307 291 l 5
 559 291 l 5
 455 195 l 5
 690 0 l 5
 764 74 l 5
 625 196 l 5
EndSplineSet
EndChar

StartChar: uF00F6
Encoding: 983286 983286 246
Width: 1000
Flags: W
LayerCount: 2
Fore
SplineSet
590 76 m 5
 626.319335938 -26.4716796875 834.659179688 -132.682617188 903 19 c 5
 711 -40.1396484375 713 134.26171875 701 172 c 5
 590 76 l 5
590 76 m 5
 486 186 l 5
 636 401 l 5
 630 698 l 5
 498 801 l 5
 499 405 l 5
 323 187 l 5
 501 0 l 5
 590 76 l 5
EndSplineSet
EndChar

StartChar: uF00F7
Encoding: 983287 983287 247
Width: 1000
Flags: W
VStem: 148 143<172.25 412> 152 131<138 377.75>
LayerCount: 2
Fore
SplineSet
283 138 m 5x40
 319.319335938 35.5283203125 527.659179688 -70.6826171875 596 81 c 5
 404 21.8603515625 406 196.26171875 394 234 c 5
 283 138 l 5x40
283 138 m 5
 291 412 l 5
 840 802 l 5
 646 802 l 5
 148 462 l 5x80
 152 0 l 5
 283 138 l 5
EndSplineSet
EndChar

StartChar: uF00F8
Encoding: 983288 983288 248
Width: 1000
Flags: W
LayerCount: 2
Fore
SplineSet
586 89 m 5
 622.319335938 -13.4716796875 830.659179688 -119.682617188 899 32 c 5
 707 -27.1396484375 709 147.26171875 697 185 c 5
 586 89 l 5
331 403 m 5
 151 406 l 5
 500 0 l 5
 586 89 l 5
 331 403 l 5
331 403 m 5
 703 802 l 5
 844 802 l 5
 490 403 l 5
 331 403 l 5
EndSplineSet
EndChar

StartChar: uF00F9
Encoding: 983289 983289 249
Width: 1000
Flags: W
HStem: 0 21G<497 515.862>
VStem: 497 116<123 399>
LayerCount: 2
Fore
SplineSet
613 123 m 5
 649.319335938 20.5283203125 857.659179688 -85.6826171875 926 66 c 5
 734 6.8603515625 736 181.26171875 724 219 c 5
 613 123 l 5
497 0 m 5
 497 399 l 5
 613 399 l 5
 613 123 l 5
 497 0 l 5
336 399 m 5
 701 798 l 5
 839 798 l 5
 497 399 l 5
 336 399 l 5
EndSplineSet
EndChar

StartChar: uF00FA
Encoding: 983290 983290 250
Width: 1000
Flags: W
HStem: 0 21G<391 408.561>
VStem: 391 108<123 399>
LayerCount: 2
Fore
SplineSet
499 123 m 5
 535.319335938 20.5283203125 743.659179688 -85.6826171875 812 66 c 5
 620 6.8603515625 622 181.26171875 610 219 c 5
 499 123 l 5
391 477 m 5
 499 399 l 5
 499 123 l 5
 391 0 l 5
 391 477 l 5
499 399 m 5
 726 798 l 5
 840 798 l 5
 578 349 l 5
 499 399 l 5
EndSplineSet
EndChar

StartChar: uF00FB
Encoding: 983291 983291 251
Width: 1000
Flags: W
LayerCount: 2
Fore
SplineSet
747 74 m 5
 783.319335938 -28.4716796875 991.659179688 -134.682617188 1060 17 c 5
 868 -42.1396484375 870 132.26171875 858 170 c 5
 747 74 l 5
747 74 m 5
 500 310 l 5
 847 305 l 5
 847 443 844 601 844 803 c 5
 726 701 l 5
 727 404 l 5
 584 404 l 5
 417 222 l 5
 671 1 l 5
 747 74 l 5
EndSplineSet
EndChar

StartChar: uF00FC
Encoding: 983292 983292 252
Width: 1000
Flags: W
LayerCount: 2
Fore
SplineSet
591 100 m 5
 627.319335938 -2.4716796875 835.659179688 -108.682617188 904 43 c 5
 712 -16.1396484375 714 158.26171875 702 196 c 5
 591 100 l 5
591 100 m 5
 415 294 l 5
 599 290 l 5
 840 504 l 5
 842 801 l 5
 717 702 l 5
 711 402 l 5
 151 399 l 5
 503 1 l 5
 591 100 l 5
EndSplineSet
EndChar

StartChar: uF00FD
Encoding: 983293 983293 253
Width: 1000
Flags: W
LayerCount: 2
Fore
SplineSet
742 79 m 5
 778.319335938 -23.4716796875 986.659179688 -129.682617188 1055 22 c 5
 863 -37.1396484375 865 137.26171875 853 175 c 5
 742 79 l 5
742 79 m 5
 492 298 l 5
 656 297 l 5
 840 483 l 5
 497 801 l 5
 316 801 l 5
 751 402 l 5
 158 403 l 5
 670 1 l 5
 742 79 l 5
EndSplineSet
EndChar

StartChar: uF00FE
Encoding: 983294 983294 254
Width: 1000
Flags: W
LayerCount: 2
Fore
SplineSet
584 75 m 5
 349 293 l 5
 626 290 l 5
 844 514 l 5
 844 803 l 5
 728 671 l 5
 729 404 l 5
 494 404 l 5
 246 229 l 5
 500 2 l 5
 584 75 l 5
584 75 m 5
 620 -27 743 -84 843 21 c 5
 651 14 707 130 695 171 c 5
 584 75 l 5
EndSplineSet
EndChar

StartChar: uF00FF
Encoding: 983295 983295 255
Width: 1000
Flags: W
HStem: 306 105<492 727>
VStem: 606 121<508 701>
LayerCount: 2
Fore
SplineSet
742 94 m 5
 778.319335938 -8.4716796875 986.659179688 -114.682617188 1055 37 c 5
 863 -22.1396484375 865 152.26171875 853 190 c 5
 742 94 l 5
742 94 m 5
 670 9 l 5
 168 411 l 5
 727 411 l 5
 844 302 l 5
 492 306 l 5
 742 94 l 5
728 701 m 5
 727 411 l 5
 606 508 l 5
 609 803 l 5
 728 701 l 5
EndSplineSet
EndChar

StartChar: uF0100
Encoding: 983296 983296 256
Width: 1000
Flags: W
LayerCount: 2
Fore
SplineSet
772 84 m 5
 808.319335938 -18.4716796875 1016.65917969 -124.682617188 1085 27 c 5
 893 -32.1396484375 895 142.26171875 883 180 c 5
 772 84 l 5
643 238 m 5
 844 422 l 5
 442 424 l 5
 272 803 l 5
 151 803 l 5
 364 319 l 5
 556 319 l 5
 482 235 l 5
 695 0 l 5
 772 84 l 5
 643 238 l 5
EndSplineSet
EndChar

StartChar: uF0101
Encoding: 983297 983297 257
Width: 1000
Flags: W
HStem: 291 115<413 583> 299 107<413 583>
LayerCount: 2
Fore
SplineSet
582 79 m 5x00
 618.319335938 -23.4716796875 826.659179688 -129.682617188 895 22 c 5
 703 -37.1396484375 705 137.26171875 693 175 c 5
 582 79 l 5x00
582 79 m 5
 332 299 l 5x40
 658 291 l 5
 844 805 l 5
 734 805 l 5
 583 406 l 5
 413 406 l 5x80
 244 225 l 5
 499 0 l 5
 582 79 l 5
EndSplineSet
EndChar

StartChar: uF0102
Encoding: 983298 983298 258
Width: 1000
Flags: W
HStem: 0 21G<480.529 515.111> 331 118<395 464>
VStem: 566 114<334 686>
LayerCount: 2
Fore
SplineSet
582 90 m 5
 618.319335938 -12.4716796875 826.659179688 -118.682617188 895 33 c 5
 703 -26.1396484375 705 148.26171875 693 186 c 5
 582 90 l 5
496 0 m 5
 151 446 l 5
 464 449 l 5
 566 334 l 5
 395 331 l 5
 582 90 l 5
 496 0 l 5
563 800 m 5
 680 686 l 5
 680 203 l 5
 566 334 l 5
 563 800 l 5
EndSplineSet
EndChar

StartChar: uF0103
Encoding: 983299 983299 259
Width: 1000
Flags: W
LayerCount: 2
Fore
SplineSet
594 78 m 5
 630.319335938 -24.4716796875 838.659179688 -130.682617188 907 21 c 5
 715 -38.1396484375 717 136.26171875 705 174 c 5
 594 78 l 5
594 78 m 5
 510 2 l 5
 305 186 l 5
 530 404 l 5
 715 405 l 5
 485 180 l 5
 594 78 l 5
516 604 m 5
 334 803 l 5
 499 803 l 5
 665 600 l 5
 530 404 l 5
 391 405 l 5
 516 604 l 5
EndSplineSet
EndChar

StartChar: uF0104
Encoding: 983300 983300 260
Width: 1000
Flags: W
HStem: 0 21G<490.902 533.532>
LayerCount: 2
Fore
SplineSet
600 79 m 5
 636.319335938 -23.4716796875 844.659179688 -129.682617188 913 22 c 5
 721 -37.1396484375 723 137.26171875 711 175 c 5
 600 79 l 5
511 0 m 5
 306 204 l 5
 525 402 l 5
 686 403 l 5
 486 199 l 5
 600 79 l 5
 511 0 l 5
339 801 m 5
 499 799 l 5
 840 401 l 5
 686 403 l 5
 339 801 l 5
EndSplineSet
EndChar

StartChar: uF0105
Encoding: 983301 983301 261
Width: 1000
Flags: W
LayerCount: 2
Fore
SplineSet
606 82 m 5
 642.319335938 -20.4716796875 850.659179688 -126.682617188 919 25 c 5
 727 -34.1396484375 729 140.26171875 717 178 c 5
 606 82 l 5
606 82 m 5
 511 2 l 5
 316 206 l 5
 495 403 l 5
 656 401 l 5
 486 201 l 5
 606 82 l 5
349 400 m 5
 696 801 l 5
 836 801 l 5
 495 403 l 5
 349 400 l 5
EndSplineSet
EndChar

StartChar: uF0106
Encoding: 983302 983302 262
Width: 1000
Flags: W
VStem: 374 121<404 708>
LayerCount: 2
Fore
SplineSet
603 84 m 5
 639.319335938 -18.4716796875 847.659179688 -124.682617188 916 27 c 5
 724 -32.1396484375 726 142.26171875 714 180 c 5
 603 84 l 5
603 84 m 5
 511 4 l 5
 316 218 l 5
 495 404 l 5
 656 403 l 5
 486 215 l 5
 603 84 l 5
499 801 m 5
 495 404 l 5
 374 404 l 5
 376 708 l 5
 499 801 l 5
EndSplineSet
EndChar

StartChar: uF0107
Encoding: 983303 983303 263
Width: 1000
Flags: W
LayerCount: 2
Fore
SplineSet
600 82 m 5
 636.319335938 -20.4716796875 844.659179688 -126.682617188 913 25 c 5
 721 -34.1396484375 723 140.26171875 711 178 c 5
 600 82 l 5
511 2 m 5
 306 199 l 5
 494 399 l 5
 495 397 l 5
 656 401 l 5
 486 194 l 5
 600 82 l 5
 511 2 l 5
494 399 m 5
 494 400 l 5
 495 400 l 5
 494 399 l 5
305 801 m 5
 494 400 l 5
 351 400 l 5
 155 801 l 5
 305 801 l 5
EndSplineSet
EndChar

StartChar: uF0108
Encoding: 983304 983304 264
Width: 1000
Flags: W
HStem: 0 21G<443 608.263>
LayerCount: 2
Fore
SplineSet
656 719 m 5
 619.680664062 821.471679688 411.340820312 927.682617188 343 776 c 5
 535 835.139648438 533 660.73828125 545 623 c 5
 656 719 l 5
739 805 m 1
 1000 571 l 1
 753 355 l 1
 586 355 l 1
 813 571 l 1
 656 719 l 1
 739 805 l 1
586 355 m 1
 415 190 l 1
 631 0 l 1
 443 1 l 1
 236 184 l 1
 421 355 l 1
 586 355 l 1
EndSplineSet
EndChar

StartChar: uF0109
Encoding: 983305 983305 265
Width: 1000
Flags: W
HStem: 296 114<276 515>
VStem: 157 119<410 704>
LayerCount: 2
Fore
SplineSet
259 87 m 5
 222.680664062 -15.4716796875 14.3408203125 -121.682617188 -54 30 c 5
 138 -29.1396484375 136 145.26171875 148 183 c 5
 259 87 l 5
259 87 m 5
 515 301 l 5
 157 296 l 5
 157 704 l 5
 280 804 l 5
 276 410 l 5
 844 410 l 5
 342 5 l 5
 259 87 l 5
EndSplineSet
EndChar

StartChar: uF010A
Encoding: 983306 983306 266
Width: 1000
Flags: W
HStem: 299 105<420 528>
LayerCount: 2
Fore
SplineSet
270 79 m 5
 233.680664062 -23.4716796875 25.3408203125 -119.682617188 -43 32 c 5
 149 -27.1396484375 147 147.26171875 159 185 c 5
 270 79 l 5
270 79 m 5
 528 299 l 5
 154 296 l 5
 666 795 l 5
 844 803 l 5
 420 404 l 5
 840 404 l 5
 348 2 l 5
 270 79 l 5
EndSplineSet
EndChar

StartChar: uF010B
Encoding: 983307 983307 267
Width: 1000
Flags: W
HStem: 0 21G<535.513 569.272> 300 105<502 637>
LayerCount: 2
Fore
SplineSet
479 78 m 5
 442.680664062 -24.4716796875 234.340820312 -130.682617188 166 21 c 5
 358 -38.1396484375 356 136.26171875 368 174 c 5
 479 78 l 5
479 78 m 5
 637 301 l 5
 414 300 l 5
 151 804 l 5
 291 804 l 5
 502 405 l 5
 844 405 l 5
 555 0 l 5
 479 78 l 5
EndSplineSet
EndChar

StartChar: uF010C
Encoding: 983308 983308 268
Width: 1000
Flags: W
LayerCount: 2
Fore
SplineSet
254 74 m 5
 217.680664062 -28.4716796875 9.3408203125 -134.682617188 -59 17 c 5
 133 -42.1396484375 131 132.26171875 143 170 c 5
 254 74 l 5
254 74 m 5
 432 223 l 5
 154 405 l 5
 656 803 l 5
 844 803 l 5
 344 404 l 5
 609 230 l 5
 328 2 l 5
 254 74 l 5
EndSplineSet
EndChar

StartChar: uF010D
Encoding: 983309 983309 269
Width: 1000
Flags: W
HStem: 0 21G<591 635.103>
LayerCount: 2
Fore
SplineSet
537 74 m 5
 500.680664062 -28.4716796875 292.340820312 -134.682617188 224 17 c 5
 416 -42.1396484375 414 132.26171875 426 170 c 5
 537 74 l 5
676 196 m 5
 458 383 l 5
 728 383 l 5
 307 802 l 5
 465 801 l 5
 994 291 l 5
 742 291 l 5
 846 195 l 5
 611 0 l 5
 537 74 l 5
 676 196 l 5
EndSplineSet
EndChar

StartChar: uF010E
Encoding: 983310 983310 270
Width: 1000
Flags: W
HStem: 0 21G<457.579 500.037>
VStem: 346 137<405 698>
LayerCount: 2
Fore
SplineSet
392 76 m 5
 355.680664062 -26.4716796875 147.340820312 -132.682617188 79 19 c 5
 271 -40.1396484375 269 134.26171875 281 172 c 5
 392 76 l 5
392 76 m 5
 496 186 l 5
 346 401 l 5
 352 698 l 5
 484 801 l 5
 483 405 l 5
 659 187 l 5
 481 0 l 5
 392 76 l 5
EndSplineSet
EndChar

StartChar: uF010F
Encoding: 983311 983311 271
Width: 1000
Flags: W
HStem: 0 21G<817.014 836.173>
VStem: 697 143<172.25 412> 705 131<138 377.75>
LayerCount: 2
Fore
SplineSet
705 138 m 5xa0
 668.680664062 35.5283203125 460.340820312 -70.6826171875 392 81 c 5
 584 21.8603515625 582 196.26171875 594 234 c 5
 705 138 l 5xa0
705 138 m 5
 697 412 l 5
 148 802 l 5
 342 802 l 5
 840 462 l 5xc0
 836 0 l 5
 705 138 l 5
EndSplineSet
EndChar

StartChar: uF0110
Encoding: 983312 983312 272
Width: 1000
Flags: W
HStem: 0 21G<475.674 512.192>
LayerCount: 2
Fore
SplineSet
409 89 m 5
 372.680664062 -13.4716796875 164.340820312 -119.682617188 96 32 c 5
 288 -27.1396484375 286 147.26171875 298 185 c 5
 409 89 l 5
664 403 m 5
 844 406 l 5
 495 0 l 5
 409 89 l 5
 664 403 l 5
664 403 m 5
 292 802 l 5
 151 802 l 5
 505 403 l 5
 664 403 l 5
EndSplineSet
EndChar

StartChar: uF0111
Encoding: 983313 983313 273
Width: 1000
Flags: W
LayerCount: 2
Fore
SplineSet
562 123 m 5
 525.680664062 20.5283203125 317.340820312 -85.6826171875 249 66 c 5
 441 6.8603515625 439 181.26171875 451 219 c 5
 562 123 l 5
678 0 m 5
 678 399 l 5
 562 399 l 5
 562 123 l 5
 678 0 l 5
839 399 m 5
 474 798 l 5
 336 798 l 5
 678 399 l 5
 839 399 l 5
EndSplineSet
EndChar

StartChar: uF0112
Encoding: 983314 983314 274
Width: 1000
Flags: W
LayerCount: 2
Fore
SplineSet
732 123 m 5
 695.680664062 20.5283203125 487.340820312 -85.6826171875 419 66 c 5
 611 6.8603515625 609 181.26171875 621 219 c 5
 732 123 l 5
840 477 m 5
 732 399 l 5
 732 123 l 5
 840 0 l 5
 840 477 l 5
732 399 m 5
 505 798 l 5
 391 798 l 5
 653 349 l 5
 732 399 l 5
EndSplineSet
EndChar

StartChar: uF0113
Encoding: 983315 983315 275
Width: 1000
Flags: W
HStem: 1 21G<572.178 615.986> 305 99<537 680>
VStem: 417 120<404 701>
LayerCount: 2
Fore
SplineSet
517 74 m 5
 480.680664062 -28.4716796875 272.340820312 -134.682617188 204 17 c 5
 396 -42.1396484375 394 132.26171875 406 170 c 5
 517 74 l 5
517 74 m 5
 764 310 l 5
 417 305 l 5
 417 443 420 601 420 803 c 5
 538 701 l 5
 537 404 l 5
 680 404 l 5
 847 222 l 5
 593 1 l 5
 517 74 l 5
EndSplineSet
EndChar

StartChar: uF0114
Encoding: 983316 983316 276
Width: 1000
Flags: W
HStem: 1 21G<472.222 507.688> 294 105<394 578>
VStem: 153 129<504 702>
LayerCount: 2
Fore
SplineSet
402 100 m 5
 365.680664062 -2.4716796875 157.340820312 -108.682617188 89 43 c 5
 281 -16.1396484375 279 158.26171875 291 196 c 5
 402 100 l 5
402 100 m 5
 578 294 l 5
 394 290 l 5
 153 504 l 5
 151 801 l 5
 276 702 l 5
 282 402 l 5
 842 399 l 5
 490 1 l 5
 402 100 l 5
EndSplineSet
EndChar

StartChar: uF0115
Encoding: 983317 983317 277
Width: 1000
Flags: W
HStem: 1 21G<313.538 357.473> 297 105<346 510>
LayerCount: 2
Fore
SplineSet
260 79 m 5
 223.680664062 -23.4716796875 15.3408203125 -129.682617188 -53 22 c 5
 139 -37.1396484375 137 137.26171875 149 175 c 5
 260 79 l 5
260 79 m 5
 510 298 l 5
 346 297 l 5
 162 483 l 5
 505 801 l 5
 686 801 l 5
 251 402 l 5
 844 403 l 5
 332 1 l 5
 260 79 l 5
EndSplineSet
EndChar

StartChar: uF0116
Encoding: 983318 983318 278
Width: 1000
Flags: W
HStem: 290 114<464 596>
VStem: 246 115<514 671>
LayerCount: 2
Fore
SplineSet
506 75 m 5
 741 293 l 5
 464 290 l 5
 246 514 l 5
 246 803 l 5
 362 671 l 5
 361 404 l 5
 596 404 l 5
 844 229 l 5
 590 2 l 5
 506 75 l 5
506 75 m 5
 470 -27 347 -84 247 21 c 5
 439 14 383 130 395 171 c 5
 506 75 l 5
EndSplineSet
EndChar

StartChar: uF0117
Encoding: 983319 983319 279
Width: 1000
Flags: W
LayerCount: 2
Fore
SplineSet
270 94 m 5
 233.680664062 -8.4716796875 25.3408203125 -114.682617188 -43 37 c 5
 149 -22.1396484375 147 152.26171875 159 190 c 5
 270 94 l 5
270 94 m 5
 342 9 l 5
 844 411 l 5
 285 411 l 5
 168 302 l 5
 520 306 l 5
 270 94 l 5
284 701 m 5
 285 411 l 5
 406 508 l 5
 403 803 l 5
 284 701 l 5
EndSplineSet
EndChar

StartChar: uF0118
Encoding: 983320 983320 280
Width: 1000
Flags: W
HStem: 0 21G<281.667 318.128> 319 105<439 553>
LayerCount: 2
Fore
SplineSet
223 84 m 5
 186.680664062 -18.4716796875 -21.6591796875 -124.682617188 -90 27 c 5
 102 -32.1396484375 100 142.26171875 112 180 c 5
 223 84 l 5
352 238 m 5
 151 422 l 5
 553 424 l 5
 723 803 l 5
 844 803 l 5
 631 319 l 5
 439 319 l 5
 513 235 l 5
 300 0 l 5
 223 84 l 5
 352 238 l 5
EndSplineSet
EndChar

StartChar: uF0119
Encoding: 983321 983321 281
Width: 1000
Flags: W
HStem: 0 21G<567.987 611.667> 291 115<505 675> 299 107<505 675>
LayerCount: 2
Fore
SplineSet
506 79 m 5x80
 469.680664062 -23.4716796875 261.340820312 -129.682617188 193 22 c 5
 385 -37.1396484375 383 137.26171875 395 175 c 5
 506 79 l 5x80
506 79 m 5
 756 299 l 5xa0
 430 291 l 5
 244 805 l 5
 354 805 l 5
 505 406 l 5
 675 406 l 5xc0
 844 225 l 5
 589 0 l 5
 506 79 l 5
EndSplineSet
EndChar

StartChar: uF011A
Encoding: 983322 983322 282
Width: 1000
Flags: W
LayerCount: 2
Fore
SplineSet
249 90 m 5
 212.680664062 -12.4716796875 4.3408203125 -118.682617188 -64 33 c 5
 128 -26.1396484375 126 148.26171875 138 186 c 5
 249 90 l 5
335 0 m 5
 680 446 l 5
 367 449 l 5
 265 334 l 5
 436 331 l 5
 249 90 l 5
 335 0 l 5
268 800 m 5
 151 686 l 5
 151 203 l 5
 265 334 l 5
 268 800 l 5
EndSplineSet
EndChar

StartChar: uF011B
Encoding: 983323 983323 283
Width: 1000
Flags: W
LayerCount: 2
Fore
SplineSet
426 78 m 5
 389.680664062 -24.4716796875 181.340820312 -130.682617188 113 21 c 5
 305 -38.1396484375 303 136.26171875 315 174 c 5
 426 78 l 5
426 78 m 5
 510 2 l 5
 715 186 l 5
 490 404 l 5
 305 405 l 5
 535 180 l 5
 426 78 l 5
504 604 m 5
 686 803 l 5
 521 803 l 5
 355 600 l 5
 490 404 l 5
 629 405 l 5
 504 604 l 5
EndSplineSet
EndChar

StartChar: uF011C
Encoding: 983324 983324 284
Width: 1000
Flags: W
LayerCount: 2
Fore
SplineSet
546 79 m 5
 509.680664062 -23.4716796875 301.340820312 -129.682617188 233 22 c 5
 425 -37.1396484375 423 137.26171875 435 175 c 5
 546 79 l 5
635 0 m 5
 840 204 l 5
 621 402 l 5
 460 403 l 5
 660 199 l 5
 546 79 l 5
 635 0 l 5
807 801 m 5
 647 799 l 5
 306 401 l 5
 460 403 l 5
 807 801 l 5
EndSplineSet
EndChar

StartChar: uF011D
Encoding: 983325 983325 285
Width: 1000
Flags: W
LayerCount: 2
Fore
SplineSet
546 82 m 5
 509.680664062 -20.4716796875 301.340820312 -126.682617188 233 25 c 5
 425 -34.1396484375 423 140.26171875 435 178 c 5
 546 82 l 5
546 82 m 5
 641 2 l 5
 836 206 l 5
 657 403 l 5
 496 401 l 5
 666 201 l 5
 546 82 l 5
803 400 m 5
 456 801 l 5
 316 801 l 5
 657 403 l 5
 803 400 l 5
EndSplineSet
EndChar

StartChar: uF011E
Encoding: 983326 983326 286
Width: 1000
Flags: W
LayerCount: 2
Fore
SplineSet
398 84 m 5
 361.680664062 -18.4716796875 153.340820312 -124.682617188 85 27 c 5
 277 -32.1396484375 275 142.26171875 287 180 c 5
 398 84 l 5
398 84 m 5
 490 4 l 5
 685 218 l 5
 506 404 l 5
 345 403 l 5
 515 215 l 5
 398 84 l 5
502 801 m 5
 506 404 l 5
 627 404 l 5
 625 708 l 5
 502 801 l 5
EndSplineSet
EndChar

StartChar: uF011F
Encoding: 983327 983327 287
Width: 1000
Flags: W
LayerCount: 2
Fore
SplineSet
240 82 m 5
 203.680664062 -20.4716796875 -4.6591796875 -126.682617188 -73 25 c 5
 119 -34.1396484375 117 140.26171875 129 178 c 5
 240 82 l 5
329 2 m 5
 534 199 l 5
 346 399 l 5
 345 397 l 5
 184 401 l 5
 354 194 l 5
 240 82 l 5
 329 2 l 5
346 399 m 5
 346 400 l 5
 345 400 l 5
 346 399 l 5
535 801 m 5
 346 400 l 5
 489 400 l 5
 685 801 l 5
 535 801 l 5
EndSplineSet
EndChar

StartChar: uF0120
Encoding: 983328 983328 288
Width: 1000
Flags: W
HStem: 0 21G<623.848 844>
VStem: 735 94<710 800>
LayerCount: 2
Fore
SplineSet
735 710 m 1
 349 399 l 1
 844 0 l 1
 649 0 l 1
 151 396 l 1
 646 802 l 1
 735 710 l 1
735 710 m 5
 739 884 l 5
 830 800 l 5
 829 623 l 5
 735 710 l 5
EndSplineSet
EndChar

StartChar: uF0121
Encoding: 983329 983329 289
Width: 1000
Flags: W
HStem: 399 109<486 725>
VStem: 721 123<105 399> 743 94<711 801>
LayerCount: 2
Fore
SplineSet
743 711 m 1xa0
 747 885 l 1
 838 801 l 1
 837 624 l 1
 743 711 l 1xa0
741 713 m 1
 486 508 l 1
 844 513 l 1
 844 105 l 1
 721 5 l 1xc0
 725 399 l 1
 157 399 l 1
 659 804 l 1
 741 713 l 1
EndSplineSet
EndChar

StartChar: uF0122
Encoding: 983330 983330 290
Width: 1000
Flags: W
HStem: 0 21G<175.253 332> 399 105<470 578>
VStem: 735 94<710 800>
LayerCount: 2
Fore
SplineSet
735 710 m 1
 739 884 l 1
 830 800 l 1
 829 623 l 1
 735 710 l 1
735 710 m 1
 470 504 l 1
 844 507 l 1
 332 8 l 1
 154 0 l 1
 578 399 l 1
 158 399 l 1
 650 801 l 1
 735 710 l 1
EndSplineSet
EndChar

StartChar: uF0123
Encoding: 983331 983331 291
Width: 1000
Flags: W
HStem: 0 21G<693.424 844> 399 104<358 493>
VStem: 513 94<722 812>
LayerCount: 2
Fore
SplineSet
513 722 m 1
 517 896 l 1
 608 812 l 1
 607 635 l 1
 513 722 l 1
513 722 m 1
 358 503 l 1
 581 504 l 1
 844 0 l 1
 704 0 l 1
 493 399 l 1
 151 399 l 1
 440 804 l 1
 513 722 l 1
EndSplineSet
EndChar

StartChar: uF0124
Encoding: 983332 983332 292
Width: 1000
Flags: W
HStem: 0 21G<154 367.226>
VStem: 744 94<722 812>
LayerCount: 2
Fore
SplineSet
744 722 m 5
 748 896 l 5
 839 812 l 5
 838 635 l 5
 744 722 l 5
744 722 m 1
 566 580 l 1
 844 398 l 1
 342 0 l 1
 154 0 l 1
 654 399 l 1
 389 573 l 1
 670 801 l 1
 744 722 l 1
EndSplineSet
EndChar

StartChar: uF0125
Encoding: 983333 983333 293
Width: 1000
Flags: W
HStem: 0 21G<836 973.905>
VStem: 759 94<722 812>
LayerCount: 2
Fore
SplineSet
759 722 m 5
 763 896 l 5
 854 812 l 5
 853 635 l 5
 759 722 l 5
625 606 m 1
 843 419 l 1
 573 419 l 1
 994 0 l 1
 836 1 l 1
 307 511 l 1
 559 511 l 1
 455 607 l 1
 690 802 l 1
 759 722 l 1
 625 606 l 1
EndSplineSet
EndChar

StartChar: uF0126
Encoding: 983334 983334 294
Width: 1000
Flags: W
HStem: -1 21G<498.051 523.631>
VStem: 498 132<102 395> 577 94<715 805>
LayerCount: 2
Fore
SplineSet
577 715 m 5xa0
 581 889 l 5
 672 805 l 5
 671 628 l 5
 577 715 l 5xa0
577 715 m 1
 486 614 l 1
 636 399 l 1
 630 102 l 1
 498 -1 l 1xc0
 499 395 l 1
 323 613 l 1
 501 800 l 1
 577 715 l 1
EndSplineSet
EndChar

StartChar: uF0127
Encoding: 983335 983335 295
Width: 1000
Flags: W
HStem: 0 21G<616.706 840>
VStem: 148 143<390 661.25> 152 131<428.75 700> 283 94<700 800>
LayerCount: 2
Fore
SplineSet
283 700 m 5xa0
 287 884 l 1
 378 800 l 1
 377 623 l 1x90
 283 700 l 5xa0
283 700 m 5xa0
 291 390 l 1
 840 0 l 1
 646 0 l 1
 148 340 l 1xc0
 152 802 l 1
 283 700 l 5xa0
EndSplineSet
EndChar

StartChar: uF0128
Encoding: 983336 983336 296
Width: 1000
Flags: W
VStem: 579 95<724 804>
LayerCount: 2
Fore
SplineSet
579 724 m 1
 583 888 l 5
 674 804 l 5
 673 637 l 1
 579 724 l 1
331 399 m 1
 151 396 l 1
 500 802 l 1
 579 724 l 1
 331 399 l 1
331 399 m 1
 703 0 l 1
 844 0 l 1
 490 399 l 1
 331 399 l 1
EndSplineSet
EndChar

StartChar: uF0129
Encoding: 983337 983337 297
Width: 1000
Flags: W
VStem: 613 94<705 795>
LayerCount: 2
Fore
SplineSet
613 705 m 5
 617 879 l 5
 708 795 l 5
 707 618 l 5
 613 705 l 5
497 798 m 1
 497 399 l 1
 613 399 l 1
 613 705 l 5
 497 798 l 1
336 399 m 1
 701 0 l 1
 839 0 l 1
 497 399 l 1
 336 399 l 1
EndSplineSet
EndChar

StartChar: uF012A
Encoding: 983338 983338 298
Width: 1000
Flags: W
VStem: 499 94<705 795>
LayerCount: 2
Fore
SplineSet
499 705 m 1
 503 879 l 1
 594 795 l 1
 593 618 l 1
 499 705 l 1
391 321 m 1
 499 399 l 1
 499 705 l 1
 391 798 l 1
 391 321 l 1
499 399 m 1
 726 0 l 1
 840 0 l 1
 578 449 l 1
 499 399 l 1
EndSplineSet
EndChar

StartChar: uF012B
Encoding: 983339 983339 299
Width: 1000
Flags: W
HStem: 0 21G<820.863 844> 399 94<584 727>
VStem: 726 118<102 399> 745 94<710 800>
LayerCount: 2
Fore
SplineSet
745 710 m 5xd0
 749 884 l 5
 840 800 l 5
 839 623 l 5
 745 710 l 5xd0
743 713 m 1
 500 493 l 1
 847 498 l 1
 847 360 844 202 844 0 c 1
 726 102 l 1xe0
 727 399 l 1
 584 399 l 1
 417 581 l 1
 671 802 l 1
 743 713 l 1
EndSplineSet
EndChar

StartChar: uF012C
Encoding: 983340 983340 300
Width: 1000
Flags: W
HStem: 0 21G<816.747 841.865> 402 105<415 599>
VStem: 588 94<704 794> 717 125<99 297>
LayerCount: 2
Fore
SplineSet
588 704 m 5
 592 878 l 5
 683 794 l 5
 682 617 l 5
 588 704 l 5
588 704 m 1
 415 507 l 1
 599 511 l 1
 840 297 l 1
 842 0 l 1
 717 99 l 1
 711 399 l 1
 151 402 l 1
 503 800 l 1
 588 704 l 1
EndSplineSet
EndChar

StartChar: uF012D
Encoding: 983341 983341 301
Width: 1000
Flags: W
HStem: 1 21G<316 518.572> 400 104<492 656>
VStem: 745 94<720 810>
LayerCount: 2
Fore
SplineSet
745 720 m 5
 749 894 l 5
 840 810 l 5
 839 633 l 5
 745 720 l 5
745 720 m 5
 492 504 l 1
 656 505 l 1
 840 319 l 1
 497 1 l 1
 316 1 l 1
 751 400 l 1
 158 399 l 1
 670 801 l 1
 745 720 l 5
EndSplineSet
EndChar

StartChar: uF012E
Encoding: 983342 983342 302
Width: 1000
Flags: W
HStem: 0 21G<826.424 844> 399 114<494 626>
VStem: 580 94<723 813> 728 116<132 289>
LayerCount: 2
Fore
SplineSet
580 723 m 5
 584 897 l 5
 675 813 l 5
 674 636 l 5
 580 723 l 5
580 723 m 1
 349 510 l 1
 626 513 l 1
 844 289 l 1
 844 0 l 1
 728 132 l 1
 729 399 l 1
 494 399 l 1
 246 574 l 1
 500 801 l 1
 580 723 l 1
EndSplineSet
EndChar

StartChar: uF012F
Encoding: 983343 983343 303
Width: 1000
Flags: W
VStem: 745 94<710 800>
LayerCount: 2
Fore
SplineSet
745 710 m 5
 749 884 l 5
 840 800 l 5
 839 623 l 5
 745 710 l 5
741 713 m 1
 670 801 l 1
 168 399 l 1
 727 399 l 1
 844 508 l 1
 492 504 l 1
 741 713 l 1
728 109 m 1
 727 399 l 1
 606 302 l 1
 609 7 l 1
 728 109 l 1
EndSplineSet
EndChar

StartChar: uF0130
Encoding: 983344 983344 304
Width: 1000
Flags: W
HStem: 0 21G<151 280.971> 379 105<442 556>
VStem: 775 94<717 807>
LayerCount: 2
Fore
SplineSet
775 717 m 5
 779 891 l 5
 870 807 l 5
 869 630 l 5
 775 717 l 5
643 565 m 1
 844 381 l 1
 442 379 l 1
 272 0 l 1
 151 0 l 1
 364 484 l 1
 556 484 l 1
 482 568 l 1
 695 803 l 1
 775 717 l 5
 643 565 l 1
EndSplineSet
EndChar

StartChar: uF0131
Encoding: 983345 983345 305
Width: 1000
Flags: W
HStem: 0 21G<726.431 844> 399 115<413 583> 399 107<413 583>
VStem: 573 94<722 812>
LayerCount: 2
Fore
SplineSet
573 722 m 5x90
 577 896 l 5
 668 812 l 5
 667 635 l 5
 573 722 l 5x90
573 722 m 1
 332 506 l 1xb0
 658 514 l 1
 844 0 l 1
 734 0 l 1
 583 399 l 1
 413 399 l 1xd0
 244 580 l 1
 499 805 l 1
 573 722 l 1
EndSplineSet
EndChar

StartChar: uF0132
Encoding: 983346 983346 306
Width: 1000
Flags: W
VStem: 582 94<717 807>
LayerCount: 2
Fore
SplineSet
582 717 m 5
 586 891 l 5
 677 807 l 5
 676 630 l 5
 582 717 l 5
496 798 m 1
 151 352 l 1
 464 349 l 1
 566 464 l 1
 395 467 l 1
 582 717 l 1
 496 798 l 1
563 -2 m 1
 680 112 l 1
 680 595 l 1
 566 464 l 1
 563 -2 l 1
EndSplineSet
EndChar

StartChar: uF0133
Encoding: 983347 983347 307
Width: 1000
Flags: W
VStem: 590 94<716 806>
LayerCount: 2
Fore
SplineSet
590 716 m 5
 594 890 l 5
 685 806 l 5
 684 629 l 5
 590 716 l 5
590 716 m 1
 510 801 l 1
 305 617 l 1
 530 399 l 1
 715 398 l 1
 485 623 l 1
 590 716 l 1
516 199 m 1
 334 0 l 1
 499 0 l 1
 665 203 l 1
 530 399 l 1
 391 398 l 1
 516 199 l 1
EndSplineSet
EndChar

StartChar: uF0134
Encoding: 983348 983348 308
Width: 1000
Flags: W
VStem: 592 94<705 795>
LayerCount: 2
Fore
SplineSet
592 705 m 5
 596 879 l 5
 687 795 l 5
 686 618 l 5
 592 705 l 5
511 799 m 1
 306 595 l 1
 525 397 l 1
 686 396 l 1
 486 600 l 1
 592 705 l 1
 511 799 l 1
339 -2 m 1
 499 0 l 1
 840 398 l 1
 686 396 l 1
 339 -2 l 1
EndSplineSet
EndChar

StartChar: uF0135
Encoding: 983349 983349 309
Width: 1000
Flags: W
VStem: 591 94<707 797>
LayerCount: 2
Fore
SplineSet
591 707 m 5
 595 881 l 5
 686 797 l 5
 685 620 l 5
 591 707 l 5
591 707 m 1
 511 799 l 1
 316 595 l 1
 495 398 l 1
 656 400 l 1
 486 600 l 1
 591 707 l 1
349 401 m 1
 696 0 l 1
 836 0 l 1
 495 398 l 1
 349 401 l 1
EndSplineSet
EndChar

StartChar: uF0136
Encoding: 983350 983350 310
Width: 1000
Flags: W
VStem: 603 94<714 804>
LayerCount: 2
Fore
SplineSet
603 714 m 5
 607 888 l 5
 698 804 l 5
 697 627 l 5
 603 714 l 5
603 714 m 5
 511 799 l 1
 316 585 l 1
 495 399 l 1
 656 400 l 1
 486 588 l 1
 603 714 l 5
499 2 m 1
 495 399 l 1
 374 399 l 1
 376 95 l 1
 499 2 l 1
EndSplineSet
EndChar

StartChar: uF0137
Encoding: 983351 983351 311
Width: 1000
Flags: W
VStem: 593 94<710 800>
LayerCount: 2
Fore
SplineSet
593 710 m 5
 597 884 l 5
 688 800 l 5
 687 623 l 5
 593 710 l 5
511 799 m 1
 306 602 l 1
 494 402 l 1
 495 404 l 1
 656 400 l 1
 486 607 l 1
 593 710 l 1
 511 799 l 1
494 402 m 1
 494 401 l 1
 495 401 l 1
 494 402 l 1
305 0 m 1
 494 401 l 1
 351 401 l 1
 155 0 l 1
 305 0 l 1
EndSplineSet
EndChar

StartChar: uF0138
Encoding: 983352 983352 312
Width: 1000
Flags: W
LayerCount: 2
Fore
SplineSet
260 710 m 5
 646 399 l 5
 151 0 l 5
 346 0 l 5
 844 396 l 5
 349 802 l 5
 260 710 l 5
260 710 m 5
 256 884 l 5
 165 800 l 5
 166 623 l 5
 260 710 l 5
EndSplineSet
EndChar

StartChar: uF0139
Encoding: 983353 983353 313
Width: 1000
Flags: W
LayerCount: 2
Fore
SplineSet
258 711 m 5
 254 885 l 5
 163 801 l 5
 164 624 l 5
 258 711 l 5
260 713 m 5
 515 508 l 5
 157 513 l 5
 157 105 l 5
 280 5 l 5
 276 399 l 5
 844 399 l 5
 342 804 l 5
 260 713 l 5
EndSplineSet
EndChar

StartChar: uF013A
Encoding: 983354 983354 314
Width: 1000
Flags: W
LayerCount: 2
Fore
SplineSet
263 710 m 5
 259 884 l 5
 168 800 l 5
 169 623 l 5
 263 710 l 5
263 710 m 5
 528 504 l 5
 154 507 l 5
 666 8 l 5
 844 0 l 5
 420 399 l 5
 840 399 l 5
 348 801 l 5
 263 710 l 5
EndSplineSet
EndChar

StartChar: uF013B
Encoding: 983355 983355 315
Width: 1000
Flags: W
LayerCount: 2
Fore
SplineSet
482 722 m 5
 478 896 l 5
 387 812 l 5
 388 635 l 5
 482 722 l 5
482 722 m 5
 637 503 l 5
 414 504 l 5
 151 0 l 5
 291 0 l 5
 502 399 l 5
 844 399 l 5
 555 804 l 5
 482 722 l 5
EndSplineSet
EndChar

StartChar: uF013C
Encoding: 983356 983356 316
Width: 1000
Flags: W
LayerCount: 2
Fore
SplineSet
254 722 m 5
 250 896 l 5
 159 812 l 5
 160 635 l 5
 254 722 l 5
254 722 m 5
 432 580 l 5
 154 398 l 5
 656 0 l 5
 844 0 l 5
 344 399 l 5
 609 573 l 5
 328 801 l 5
 254 722 l 5
EndSplineSet
EndChar

StartChar: uF013D
Encoding: 983357 983357 317
Width: 1000
Flags: W
LayerCount: 2
Fore
SplineSet
542 722 m 5
 538 896 l 5
 447 812 l 5
 448 635 l 5
 542 722 l 5
676 606 m 5
 458 419 l 5
 728 419 l 5
 307 0 l 5
 465 1 l 5
 994 511 l 5
 742 511 l 5
 846 607 l 5
 611 802 l 5
 542 722 l 5
 676 606 l 5
EndSplineSet
EndChar

StartChar: uF013E
Encoding: 983358 983358 318
Width: 1000
Flags: W
LayerCount: 2
Fore
SplineSet
405 715 m 5
 401 889 l 5
 310 805 l 5
 311 628 l 5
 405 715 l 5
405 715 m 5
 496 614 l 5
 346 399 l 5
 352 102 l 5
 484 -1 l 5
 483 395 l 5
 659 613 l 5
 481 800 l 5
 405 715 l 5
EndSplineSet
EndChar

StartChar: uF013F
Encoding: 983359 983359 319
Width: 1000
Flags: W
VStem: 697 143<390 661.25> 705 131<428.75 700>
LayerCount: 2
Fore
SplineSet
705 700 m 5x40
 701 884 l 5
 610 800 l 5
 611 623 l 5
 705 700 l 5x40
705 700 m 5
 697 390 l 5
 148 0 l 5
 342 0 l 5
 840 340 l 5x80
 836 802 l 5
 705 700 l 5
EndSplineSet
EndChar

StartChar: uF0140
Encoding: 983360 983360 320
Width: 1000
Flags: W
HStem: 0 21G<151 310.647>
LayerCount: 2
Fore
SplineSet
416 724 m 5
 412 888 l 5
 321 804 l 5
 322 637 l 5
 416 724 l 5
664 399 m 5
 844 396 l 5
 495 802 l 5
 416 724 l 5
 664 399 l 5
664 399 m 5
 292 0 l 5
 151 0 l 5
 505 399 l 5
 664 399 l 5
EndSplineSet
EndChar

StartChar: uF0141
Encoding: 983361 983361 321
Width: 1000
Flags: W
HStem: 0 21G<336 492.296>
LayerCount: 2
Fore
SplineSet
562 705 m 5
 558 879 l 5
 467 795 l 5
 468 618 l 5
 562 705 l 5
678 798 m 5
 678 399 l 5
 562 399 l 5
 562 705 l 5
 678 798 l 5
839 399 m 5
 474 0 l 5
 336 0 l 5
 678 399 l 5
 839 399 l 5
EndSplineSet
EndChar

StartChar: uF0142
Encoding: 983362 983362 322
Width: 1000
Flags: W
HStem: 0 21G<391 516.378>
LayerCount: 2
Fore
SplineSet
732 705 m 5
 728 879 l 5
 637 795 l 5
 638 618 l 5
 732 705 l 5
840 321 m 5
 732 399 l 5
 732 705 l 5
 840 798 l 5
 840 321 l 5
732 399 m 5
 505 0 l 5
 391 0 l 5
 653 449 l 5
 732 399 l 5
EndSplineSet
EndChar

StartChar: uF0143
Encoding: 983363 983363 323
Width: 1000
Flags: W
LayerCount: 2
Fore
SplineSet
519 710 m 5
 515 884 l 5
 424 800 l 5
 425 623 l 5
 519 710 l 5
521 713 m 5
 764 493 l 5
 417 498 l 5
 417 360 420 202 420 0 c 5
 538 102 l 5
 537 399 l 5
 680 399 l 5
 847 581 l 5
 593 802 l 5
 521 713 l 5
EndSplineSet
EndChar

StartChar: uF0144
Encoding: 983364 983364 324
Width: 1000
Flags: W
LayerCount: 2
Fore
SplineSet
405 704 m 5
 401 878 l 5
 310 794 l 5
 311 617 l 5
 405 704 l 5
405 704 m 5
 578 507 l 5
 394 511 l 5
 153 297 l 5
 151 0 l 5
 276 99 l 5
 282 399 l 5
 842 402 l 5
 490 800 l 5
 405 704 l 5
EndSplineSet
EndChar

StartChar: uF0145
Encoding: 983365 983365 325
Width: 1000
Flags: W
LayerCount: 2
Fore
SplineSet
257 720 m 5
 253 894 l 5
 162 810 l 5
 163 633 l 5
 257 720 l 5
257 720 m 5
 510 504 l 5
 346 505 l 5
 162 319 l 5
 505 1 l 5
 686 1 l 5
 251 400 l 5
 844 399 l 5
 332 801 l 5
 257 720 l 5
EndSplineSet
EndChar

StartChar: uF0146
Encoding: 983366 983366 326
Width: 1000
Flags: W
LayerCount: 2
Fore
SplineSet
510 723 m 5
 506 897 l 5
 415 813 l 5
 416 636 l 5
 510 723 l 5
510 723 m 5
 741 510 l 5
 464 513 l 5
 246 289 l 5
 246 0 l 5
 362 132 l 5
 361 399 l 5
 596 399 l 5
 844 574 l 5
 590 801 l 5
 510 723 l 5
EndSplineSet
EndChar

StartChar: uF0147
Encoding: 983367 983367 327
Width: 1000
Flags: W
HStem: 399 109<285 520>
VStem: 284 119<109 302>
LayerCount: 2
Fore
SplineSet
267 710 m 5
 263 884 l 5
 172 800 l 5
 173 623 l 5
 267 710 l 5
271 713 m 5
 342 801 l 5
 844 399 l 5
 285 399 l 5
 168 508 l 5
 520 504 l 5
 271 713 l 5
284 109 m 5
 285 399 l 5
 406 302 l 5
 403 7 l 5
 284 109 l 5
EndSplineSet
EndChar

StartChar: uF0148
Encoding: 983368 983368 328
Width: 1000
Flags: W
LayerCount: 2
Fore
SplineSet
220 717 m 5
 216 891 l 5
 125 807 l 5
 126 630 l 5
 220 717 l 5
352 565 m 5
 151 381 l 5
 553 379 l 5
 723 0 l 5
 844 0 l 5
 631 484 l 5
 439 484 l 5
 513 568 l 5
 300 803 l 5
 220 717 l 5
 352 565 l 5
EndSplineSet
EndChar

StartChar: uF0149
Encoding: 983369 983369 329
Width: 1000
Flags: W
HStem: 399 115<505 675> 399 107<505 675>
LayerCount: 2
Fore
SplineSet
515 722 m 5x00
 511 896 l 5
 420 812 l 5
 421 635 l 5
 515 722 l 5x00
515 722 m 5
 756 506 l 5x40
 430 514 l 5
 244 0 l 5
 354 0 l 5
 505 399 l 5
 675 399 l 5x80
 844 580 l 5
 589 805 l 5
 515 722 l 5
EndSplineSet
EndChar

StartChar: uF014A
Encoding: 983370 983370 330
Width: 1000
Flags: W
HStem: 349 118<367 436>
VStem: 151 117<112 464>
LayerCount: 2
Fore
SplineSet
249 717 m 5
 245 891 l 5
 154 807 l 5
 155 630 l 5
 249 717 l 5
335 798 m 5
 680 352 l 5
 367 349 l 5
 265 464 l 5
 436 467 l 5
 249 717 l 5
 335 798 l 5
268 -2 m 5
 151 112 l 5
 151 595 l 5
 265 464 l 5
 268 -2 l 5
EndSplineSet
EndChar

StartChar: uF014B
Encoding: 983371 983371 331
Width: 1000
Flags: W
HStem: 0 21G<504.645 686>
LayerCount: 2
Fore
SplineSet
430 716 m 5
 426 890 l 5
 335 806 l 5
 336 629 l 5
 430 716 l 5
430 716 m 5
 510 801 l 5
 715 617 l 5
 490 399 l 5
 305 398 l 5
 535 623 l 5
 430 716 l 5
504 199 m 5
 686 0 l 5
 521 0 l 5
 355 203 l 5
 490 399 l 5
 629 398 l 5
 504 199 l 5
EndSplineSet
EndChar

StartChar: uF014C
Encoding: 983372 983372 332
Width: 1000
Flags: W
LayerCount: 2
Fore
SplineSet
554 705 m 5
 550 879 l 5
 459 795 l 5
 460 618 l 5
 554 705 l 5
635 799 m 5
 840 595 l 5
 621 397 l 5
 460 396 l 5
 660 600 l 5
 554 705 l 5
 635 799 l 5
807 -2 m 5
 647 0 l 5
 306 398 l 5
 460 396 l 5
 807 -2 l 5
EndSplineSet
EndChar

StartChar: uF014D
Encoding: 983373 983373 333
Width: 1000
Flags: W
HStem: 0 21G<316 473.307>
LayerCount: 2
Fore
SplineSet
561 707 m 5
 557 881 l 5
 466 797 l 5
 467 620 l 5
 561 707 l 5
561 707 m 5
 641 799 l 5
 836 595 l 5
 657 398 l 5
 496 400 l 5
 666 600 l 5
 561 707 l 5
803 401 m 5
 456 0 l 5
 316 0 l 5
 657 398 l 5
 803 401 l 5
EndSplineSet
EndChar

StartChar: uF014E
Encoding: 983374 983374 334
Width: 1000
Flags: W
VStem: 502 123<95 399>
LayerCount: 2
Fore
SplineSet
398 714 m 5
 394 888 l 5
 303 804 l 5
 304 627 l 5
 398 714 l 5
398 714 m 5
 490 799 l 5
 685 585 l 5
 506 399 l 5
 345 400 l 5
 515 588 l 5
 398 714 l 5
502 2 m 5
 506 399 l 5
 627 399 l 5
 625 95 l 5
 502 2 l 5
EndSplineSet
EndChar

StartChar: uF014F
Encoding: 983375 983375 335
Width: 1000
Flags: W
HStem: 0 21G<525.574 685>
LayerCount: 2
Fore
SplineSet
247 710 m 5
 243 884 l 5
 152 800 l 5
 153 623 l 5
 247 710 l 5
329 799 m 5
 534 602 l 5
 346 402 l 5
 345 404 l 5
 184 400 l 5
 354 607 l 5
 247 710 l 5
 329 799 l 5
346 402 m 5
 346 401 l 5
 345 401 l 5
 346 402 l 5
535 0 m 5
 346 401 l 5
 489 401 l 5
 685 0 l 5
 535 0 l 5
EndSplineSet
EndChar

StartChar: uF0150
Encoding: 983376 983376 336
Width: 1000
Flags: W
VStem: 573 94<713 803>
LayerCount: 2
Fore
SplineSet
573 713 m 5
 577 887 l 5
 668 803 l 5
 667 626 l 5
 573 713 l 5
497 805 m 1
 236 571 l 1
 483 355 l 1
 650 355 l 1
 423 571 l 1
 573 713 l 1
 497 805 l 1
650 355 m 1
 821 190 l 1
 605 0 l 1
 793 1 l 1
 1000 184 l 1
 815 355 l 1
 650 355 l 1
EndSplineSet
EndChar

StartChar: uF0151
Encoding: 983377 983377 337
Width: 1000
Flags: W
LayerCount: 2
Fore
SplineSet
743 98 m 5
 747 -76 l 5
 838 8 l 5
 837 185 l 5
 743 98 l 5
741 96 m 5
 486 301 l 5
 844 296 l 5
 844 704 l 5
 721 804 l 5
 725 410 l 5
 157 410 l 5
 659 5 l 5
 741 96 l 5
EndSplineSet
EndChar

StartChar: uF0152
Encoding: 983378 983378 338
Width: 1000
Flags: W
LayerCount: 2
Fore
SplineSet
735 93 m 5
 739 -81 l 5
 830 3 l 5
 829 180 l 5
 735 93 l 5
735 93 m 5
 470 299 l 5
 844 296 l 5
 332 795 l 5
 154 803 l 5
 578 404 l 5
 158 404 l 5
 650 2 l 5
 735 93 l 5
EndSplineSet
EndChar

StartChar: uF0153
Encoding: 983379 983379 339
Width: 1000
Flags: W
LayerCount: 2
Fore
SplineSet
513 82 m 5
 517 -92 l 5
 608 -8 l 5
 607 169 l 5
 513 82 l 5
513 82 m 5
 358 301 l 5
 581 300 l 5
 844 804 l 5
 704 804 l 5
 493 405 l 5
 151 405 l 5
 440 0 l 5
 513 82 l 5
EndSplineSet
EndChar

StartChar: uF0154
Encoding: 983380 983380 340
Width: 1000
Flags: W
LayerCount: 2
Fore
SplineSet
744 81 m 5
 748 -93 l 5
 839 -9 l 5
 838 168 l 5
 744 81 l 5
744 81 m 5
 566 223 l 5
 844 405 l 5
 342 803 l 5
 154 803 l 5
 654 404 l 5
 389 230 l 5
 670 2 l 5
 744 81 l 5
EndSplineSet
EndChar

StartChar: uF0155
Encoding: 983381 983381 341
Width: 1000
Flags: W
LayerCount: 2
Fore
SplineSet
759 80 m 5
 763 -94 l 5
 854 -10 l 5
 853 167 l 5
 759 80 l 5
625 196 m 5
 843 383 l 5
 573 383 l 5
 994 802 l 5
 836 801 l 5
 307 291 l 5
 559 291 l 5
 455 195 l 5
 690 0 l 5
 759 80 l 5
 625 196 l 5
EndSplineSet
EndChar

StartChar: uF0156
Encoding: 983382 983382 342
Width: 1000
Flags: W
LayerCount: 2
Fore
SplineSet
577 85 m 5
 581 -89 l 5
 672 -5 l 5
 671 172 l 5
 577 85 l 5
577 85 m 5
 486 186 l 5
 636 401 l 5
 630 698 l 5
 498 801 l 5
 499 405 l 5
 323 187 l 5
 501 0 l 5
 577 85 l 5
EndSplineSet
EndChar

StartChar: uF0157
Encoding: 983383 983383 343
Width: 1000
Flags: W
VStem: 148 143<140.75 412> 152 131<102 373.25>
LayerCount: 2
Fore
SplineSet
283 102 m 5x40
 287 -82 l 5
 378 2 l 5
 377 179 l 5
 283 102 l 5x40
283 102 m 5
 291 412 l 5
 840 802 l 5
 646 802 l 5
 148 462 l 5x80
 152 0 l 5
 283 102 l 5
EndSplineSet
EndChar

StartChar: uF0158
Encoding: 983384 983384 344
Width: 1000
Flags: W
LayerCount: 2
Fore
SplineSet
579 78 m 5
 583 -86 l 5
 674 -2 l 5
 673 165 l 5
 579 78 l 5
331 403 m 5
 151 406 l 5
 500 0 l 5
 579 78 l 5
 331 403 l 5
331 403 m 5
 703 802 l 5
 844 802 l 5
 490 403 l 5
 331 403 l 5
EndSplineSet
EndChar

StartChar: uF0159
Encoding: 983385 983385 345
Width: 1000
Flags: W
HStem: 0 21G<497 521.946>
VStem: 497 116<0 399>
LayerCount: 2
Fore
SplineSet
613 93 m 5
 617 -81 l 5
 708 3 l 5
 707 180 l 5
 613 93 l 5
497 0 m 5
 497 399 l 5
 613 399 l 5
 613 93 l 5
 497 0 l 5
336 399 m 5
 701 798 l 5
 839 798 l 5
 497 399 l 5
 336 399 l 5
EndSplineSet
EndChar

StartChar: uF015A
Encoding: 983386 983386 346
Width: 1000
Flags: W
HStem: 0 21G<391 414.226>
VStem: 391 108<0 399>
LayerCount: 2
Fore
SplineSet
499 93 m 5
 503 -81 l 5
 594 3 l 5
 593 180 l 5
 499 93 l 5
391 477 m 5
 499 399 l 5
 499 93 l 5
 391 0 l 5
 391 477 l 5
499 399 m 5
 726 798 l 5
 840 798 l 5
 578 349 l 5
 499 399 l 5
EndSplineSet
EndChar

StartChar: uF015B
Encoding: 983387 983387 347
Width: 1000
Flags: W
LayerCount: 2
Fore
SplineSet
745 93 m 5
 749 -81 l 5
 840 3 l 5
 839 180 l 5
 745 93 l 5
743 90 m 5
 500 310 l 5
 847 305 l 5
 847 443 844 601 844 803 c 5
 726 701 l 5
 727 404 l 5
 584 404 l 5
 417 222 l 5
 671 1 l 5
 743 90 l 5
EndSplineSet
EndChar

StartChar: uF015C
Encoding: 983388 983388 348
Width: 1000
Flags: W
LayerCount: 2
Fore
SplineSet
588 97 m 5
 592 -77 l 5
 683 7 l 5
 682 184 l 5
 588 97 l 5
588 97 m 5
 415 294 l 5
 599 290 l 5
 840 504 l 5
 842 801 l 5
 717 702 l 5
 711 402 l 5
 151 399 l 5
 503 1 l 5
 588 97 l 5
EndSplineSet
EndChar

StartChar: uF015D
Encoding: 983389 983389 349
Width: 1000
Flags: W
LayerCount: 2
Fore
SplineSet
745 82 m 5
 749 -92 l 5
 840 -8 l 5
 839 169 l 5
 745 82 l 5
745 82 m 5
 492 298 l 5
 656 297 l 5
 840 483 l 5
 497 801 l 5
 316 801 l 5
 751 402 l 5
 158 403 l 5
 670 1 l 5
 745 82 l 5
EndSplineSet
EndChar

StartChar: uF015E
Encoding: 983390 983390 350
Width: 1000
Flags: W
LayerCount: 2
Fore
SplineSet
580 80 m 5
 584 -94 l 5
 675 -10 l 5
 674 167 l 5
 580 80 l 5
580 80 m 5
 349 293 l 5
 626 290 l 5
 844 514 l 5
 844 803 l 5
 728 671 l 5
 729 404 l 5
 494 404 l 5
 246 229 l 5
 500 2 l 5
 580 80 l 5
EndSplineSet
EndChar

StartChar: uF015F
Encoding: 983391 983391 351
Width: 1000
Flags: W
HStem: 306 105<492 727>
VStem: 606 121<508 701>
LayerCount: 2
Fore
SplineSet
745 100 m 5
 749 -74 l 5
 840 10 l 5
 839 187 l 5
 745 100 l 5
741 97 m 5
 670 9 l 5
 168 411 l 5
 727 411 l 5
 844 302 l 5
 492 306 l 5
 741 97 l 5
728 701 m 5
 727 411 l 5
 606 508 l 5
 609 803 l 5
 728 701 l 5
EndSplineSet
EndChar

StartChar: uF0160
Encoding: 983392 983392 352
Width: 1000
Flags: W
LayerCount: 2
Fore
SplineSet
775 86 m 5
 779 -88 l 5
 870 -4 l 5
 869 173 l 5
 775 86 l 5
643 238 m 5
 844 422 l 5
 442 424 l 5
 272 803 l 5
 151 803 l 5
 364 319 l 5
 556 319 l 5
 482 235 l 5
 695 0 l 5
 775 86 l 5
 643 238 l 5
EndSplineSet
EndChar

StartChar: uF0161
Encoding: 983393 983393 353
Width: 1000
Flags: W
HStem: 291 115<413 583> 299 107<413 583>
LayerCount: 2
Fore
SplineSet
573 83 m 5x00
 577 -91 l 5
 668 -7 l 5
 667 170 l 5
 573 83 l 5x00
573 83 m 5
 332 299 l 5x40
 658 291 l 5
 844 805 l 5
 734 805 l 5
 583 406 l 5
 413 406 l 5x80
 244 225 l 5
 499 0 l 5
 573 83 l 5
EndSplineSet
EndChar

StartChar: uF0162
Encoding: 983394 983394 354
Width: 1000
Flags: W
HStem: 0 21G<480.529 517.235> 331 118<395 464>
VStem: 566 114<334 686>
LayerCount: 2
Fore
SplineSet
582 81 m 5
 586 -93 l 5
 677 -9 l 5
 676 168 l 5
 582 81 l 5
496 0 m 5
 151 446 l 5
 464 449 l 5
 566 334 l 5
 395 331 l 5
 582 81 l 5
 496 0 l 5
563 800 m 5
 680 686 l 5
 680 203 l 5
 566 334 l 5
 563 800 l 5
EndSplineSet
EndChar

StartChar: uF0163
Encoding: 983395 983395 355
Width: 1000
Flags: W
LayerCount: 2
Fore
SplineSet
590 87 m 5
 594 -87 l 5
 685 -3 l 5
 684 174 l 5
 590 87 l 5
590 87 m 5
 510 2 l 5
 305 186 l 5
 530 404 l 5
 715 405 l 5
 485 180 l 5
 590 87 l 5
516 604 m 5
 334 803 l 5
 499 803 l 5
 665 600 l 5
 530 404 l 5
 391 405 l 5
 516 604 l 5
EndSplineSet
EndChar

StartChar: uF0164
Encoding: 983396 983396 356
Width: 1000
Flags: W
HStem: 0 21G<490.902 528.234>
LayerCount: 2
Fore
SplineSet
592 94 m 5
 596 -80 l 5
 687 4 l 5
 686 181 l 5
 592 94 l 5
511 0 m 5
 306 204 l 5
 525 402 l 5
 686 403 l 5
 486 199 l 5
 592 94 l 5
 511 0 l 5
339 801 m 5
 499 799 l 5
 840 401 l 5
 686 403 l 5
 339 801 l 5
EndSplineSet
EndChar

StartChar: uF0165
Encoding: 983397 983397 357
Width: 1000
Flags: W
LayerCount: 2
Fore
SplineSet
591 94 m 5
 595 -80 l 5
 686 4 l 5
 685 181 l 5
 591 94 l 5
591 94 m 5
 511 2 l 5
 316 206 l 5
 495 403 l 5
 656 401 l 5
 486 201 l 5
 591 94 l 5
349 400 m 5
 696 801 l 5
 836 801 l 5
 495 403 l 5
 349 400 l 5
EndSplineSet
EndChar

StartChar: uF0166
Encoding: 983398 983398 358
Width: 1000
Flags: W
VStem: 374 121<404 708>
LayerCount: 2
Fore
SplineSet
603 89 m 5
 607 -85 l 5
 698 -1 l 5
 697 176 l 5
 603 89 l 5
603 89 m 5
 511 4 l 5
 316 218 l 5
 495 404 l 5
 656 403 l 5
 486 215 l 5
 603 89 l 5
499 801 m 5
 495 404 l 5
 374 404 l 5
 376 708 l 5
 499 801 l 5
EndSplineSet
EndChar

StartChar: uF0167
Encoding: 983399 983399 359
Width: 1000
Flags: W
LayerCount: 2
Fore
SplineSet
593 91 m 5
 597 -83 l 5
 688 1 l 5
 687 178 l 5
 593 91 l 5
511 2 m 5
 306 199 l 5
 494 399 l 5
 495 397 l 5
 656 401 l 5
 486 194 l 5
 593 91 l 5
 511 2 l 5
494 399 m 5
 494 400 l 5
 495 400 l 5
 494 399 l 5
305 801 m 5
 494 400 l 5
 351 400 l 5
 155 801 l 5
 305 801 l 5
EndSplineSet
EndChar

StartChar: uF0168
Encoding: 983400 983400 360
Width: 1000
Flags: W
LayerCount: 2
Fore
SplineSet
573 174 m 5
 577 0 l 5
 668 84 l 5
 667 261 l 5
 573 174 l 5
497 82 m 5
 236 316 l 5
 483 532 l 5
 650 532 l 5
 423 316 l 5
 573 174 l 5
 497 82 l 5
650 532 m 5
 821 697 l 5
 605 887 l 5
 793 886 l 5
 1000 703 l 5
 815 532 l 5
 650 532 l 5
EndSplineSet
EndChar

StartChar: uF0169
Encoding: 983401 983401 361
Width: 1000
Flags: W
HStem: 296 114<276 515>
VStem: 157 119<410 704> 163 91<8 98>
LayerCount: 2
Fore
SplineSet
258 98 m 5xa0
 254 -76 l 5
 163 8 l 5
 164 185 l 5
 258 98 l 5xa0
260 96 m 5
 515 301 l 5
 157 296 l 5
 157 704 l 5
 280 804 l 5
 276 410 l 5xc0
 844 410 l 5
 342 5 l 5
 260 96 l 5
EndSplineSet
EndChar

StartChar: uF016A
Encoding: 983402 983402 362
Width: 1000
Flags: W
HStem: 299 105<420 528>
VStem: 168 91<3 93>
LayerCount: 2
Fore
SplineSet
263 93 m 5
 259 -81 l 5
 168 3 l 5
 169 180 l 5
 263 93 l 5
263 93 m 5
 528 299 l 5
 154 296 l 5
 666 795 l 5
 844 803 l 5
 420 404 l 5
 840 404 l 5
 348 2 l 5
 263 93 l 5
EndSplineSet
EndChar

StartChar: uF016B
Encoding: 983403 983403 363
Width: 1000
Flags: W
HStem: 0 21G<537.195 569.272> 300 105<502 637>
VStem: 387 91<-8 82>
LayerCount: 2
Fore
SplineSet
482 82 m 5
 478 -92 l 5
 387 -8 l 5
 388 169 l 5
 482 82 l 5
482 82 m 5
 637 301 l 5
 414 300 l 5
 151 804 l 5
 291 804 l 5
 502 405 l 5
 844 405 l 5
 555 0 l 5
 482 82 l 5
EndSplineSet
EndChar

StartChar: uF016C
Encoding: 983404 983404 364
Width: 1000
Flags: W
VStem: 159 91<-9 81>
LayerCount: 2
Fore
SplineSet
254 81 m 5
 250 -93 l 5
 159 -9 l 5
 160 168 l 5
 254 81 l 5
254 81 m 5
 432 223 l 5
 154 405 l 5
 656 803 l 5
 844 803 l 5
 344 404 l 5
 609 230 l 5
 328 2 l 5
 254 81 l 5
EndSplineSet
EndChar

StartChar: uF016D
Encoding: 983405 983405 365
Width: 1000
Flags: W
HStem: 0 21G<593.75 635.103>
VStem: 447 91<-10 80>
LayerCount: 2
Fore
SplineSet
542 80 m 5
 538 -94 l 5
 447 -10 l 5
 448 167 l 5
 542 80 l 5
676 196 m 5
 458 383 l 5
 728 383 l 5
 307 802 l 5
 465 801 l 5
 994 291 l 5
 742 291 l 5
 846 195 l 5
 611 0 l 5
 542 80 l 5
 676 196 l 5
EndSplineSet
EndChar

StartChar: uF016E
Encoding: 983406 983406 366
Width: 1000
Flags: W
HStem: 0 21G<463.118 500.037>
VStem: 310 91<-5 85> 346 137<405 698>
LayerCount: 2
Fore
SplineSet
405 85 m 5xc0
 401 -89 l 5
 310 -5 l 5
 311 172 l 5
 405 85 l 5xc0
405 85 m 5
 496 186 l 5
 346 401 l 5
 352 698 l 5
 484 801 l 5
 483 405 l 5xa0
 659 187 l 5
 481 0 l 5
 405 85 l 5
EndSplineSet
EndChar

StartChar: uF016F
Encoding: 983407 983407 367
Width: 1000
Flags: W
HStem: 0 21G<810.314 836.173>
VStem: 610 91<2 102> 697 143<140.75 412> 705 131<102 373.25>
LayerCount: 2
Fore
SplineSet
705 102 m 5xd0
 701 -82 l 5
 610 2 l 5
 611 179 l 5
 705 102 l 5xd0
705 102 m 5
 697 412 l 5
 148 802 l 5
 342 802 l 5
 840 462 l 5xa0
 836 0 l 5
 705 102 l 5
EndSplineSet
EndChar

StartChar: uF0170
Encoding: 983408 983408 368
Width: 1000
Flags: W
HStem: 0 21G<474.744 512.192>
VStem: 321 95<-2 78>
LayerCount: 2
Fore
SplineSet
416 78 m 5
 412 -86 l 5
 321 -2 l 5
 322 165 l 5
 416 78 l 5
664 403 m 5
 844 406 l 5
 495 0 l 5
 416 78 l 5
 664 403 l 5
664 403 m 5
 292 802 l 5
 151 802 l 5
 505 403 l 5
 664 403 l 5
EndSplineSet
EndChar

StartChar: uF0171
Encoding: 983409 983409 369
Width: 1000
Flags: W
VStem: 468 94<3 93>
LayerCount: 2
Fore
SplineSet
562 93 m 5
 558 -81 l 5
 467 3 l 5
 468 180 l 5
 562 93 l 5
678 0 m 5
 678 399 l 5
 562 399 l 5
 562 93 l 5
 678 0 l 5
839 399 m 5
 474 798 l 5
 336 798 l 5
 678 399 l 5
 839 399 l 5
EndSplineSet
EndChar

StartChar: uF0172
Encoding: 983410 983410 370
Width: 1000
Flags: W
VStem: 638 94<3 93>
LayerCount: 2
Fore
SplineSet
732 93 m 5
 728 -81 l 5
 637 3 l 5
 638 180 l 5
 732 93 l 5
840 477 m 5
 732 399 l 5
 732 93 l 5
 840 0 l 5
 840 477 l 5
732 399 m 5
 505 798 l 5
 391 798 l 5
 653 349 l 5
 732 399 l 5
EndSplineSet
EndChar

StartChar: uF0173
Encoding: 983411 983411 371
Width: 1000
Flags: W
HStem: 1 21G<576.82 615.986> 305 99<537 680>
VStem: 417 120<404 701> 424 91<3 93>
LayerCount: 2
Fore
SplineSet
519 93 m 5xd0
 515 -81 l 5
 424 3 l 5
 425 180 l 5
 519 93 l 5xd0
521 90 m 5
 764 310 l 5
 417 305 l 5
 417 443 420 601 420 803 c 5
 538 701 l 5
 537 404 l 5xe0
 680 404 l 5
 847 222 l 5
 593 1 l 5
 521 90 l 5
EndSplineSet
EndChar

StartChar: uF0174
Encoding: 983412 983412 372
Width: 1000
Flags: W
HStem: 1 21G<472.292 507.688> 294 105<394 578>
VStem: 153 129<504 702> 310 91<7 97>
LayerCount: 2
Fore
SplineSet
405 97 m 5
 401 -77 l 5
 310 7 l 5
 311 184 l 5
 405 97 l 5
405 97 m 5
 578 294 l 5
 394 290 l 5
 153 504 l 5
 151 801 l 5
 276 702 l 5
 282 402 l 5
 842 399 l 5
 490 1 l 5
 405 97 l 5
EndSplineSet
EndChar

StartChar: uF0175
Encoding: 983413 983413 373
Width: 1000
Flags: W
HStem: 1 21G<313.481 357.473> 297 105<346 510>
VStem: 162 91<-8 82>
LayerCount: 2
Fore
SplineSet
257 82 m 5
 253 -92 l 5
 162 -8 l 5
 163 169 l 5
 257 82 l 5
257 82 m 5
 510 298 l 5
 346 297 l 5
 162 483 l 5
 505 801 l 5
 686 801 l 5
 251 402 l 5
 844 403 l 5
 332 1 l 5
 257 82 l 5
EndSplineSet
EndChar

StartChar: uF0176
Encoding: 983414 983414 374
Width: 1000
Flags: W
HStem: 290 114<464 596>
VStem: 246 115<514 671> 415 91<-10 80>
LayerCount: 2
Fore
SplineSet
510 80 m 5
 506 -94 l 5
 415 -10 l 5
 416 167 l 5
 510 80 l 5
510 80 m 5
 741 293 l 5
 464 290 l 5
 246 514 l 5
 246 803 l 5
 362 671 l 5
 361 404 l 5
 596 404 l 5
 844 229 l 5
 590 2 l 5
 510 80 l 5
EndSplineSet
EndChar

StartChar: uF0177
Encoding: 983415 983415 375
Width: 1000
Flags: W
VStem: 172 91<10 100>
LayerCount: 2
Fore
SplineSet
267 100 m 5
 263 -74 l 5
 172 10 l 5
 173 187 l 5
 267 100 l 5
271 97 m 5
 342 9 l 5
 844 411 l 5
 285 411 l 5
 168 302 l 5
 520 306 l 5
 271 97 l 5
284 701 m 5
 285 411 l 5
 406 508 l 5
 403 803 l 5
 284 701 l 5
EndSplineSet
EndChar

StartChar: uF0178
Encoding: 983416 983416 376
Width: 1000
Flags: W
HStem: 0 21G<281.395 318.128> 319 105<439 553>
VStem: 125 91<-4 86>
LayerCount: 2
Fore
SplineSet
220 86 m 5
 216 -88 l 5
 125 -4 l 5
 126 173 l 5
 220 86 l 5
352 238 m 5
 151 422 l 5
 553 424 l 5
 723 803 l 5
 844 803 l 5
 631 319 l 5
 439 319 l 5
 513 235 l 5
 300 0 l 5
 220 86 l 5
 352 238 l 5
EndSplineSet
EndChar

StartChar: uF0179
Encoding: 983417 983417 377
Width: 1000
Flags: W
HStem: 0 21G<571.169 611.667> 291 115<505 675> 299 107<505 675>
VStem: 420 91<-7 83>
LayerCount: 2
Fore
SplineSet
515 83 m 5x90
 511 -91 l 5
 420 -7 l 5
 421 170 l 5
 515 83 l 5x90
515 83 m 5
 756 299 l 5xb0
 430 291 l 5
 244 805 l 5
 354 805 l 5
 505 406 l 5
 675 406 l 5xd0
 844 225 l 5
 589 0 l 5
 515 83 l 5
EndSplineSet
EndChar

StartChar: uF017A
Encoding: 983418 983418 378
Width: 1000
Flags: W
VStem: 154 91<-9 81>
LayerCount: 2
Fore
SplineSet
249 81 m 5
 245 -93 l 5
 154 -9 l 5
 155 168 l 5
 249 81 l 5
335 0 m 5
 680 446 l 5
 367 449 l 5
 265 334 l 5
 436 331 l 5
 249 81 l 5
 335 0 l 5
268 800 m 5
 151 686 l 5
 151 203 l 5
 265 334 l 5
 268 800 l 5
EndSplineSet
EndChar

StartChar: uF017B
Encoding: 983419 983419 379
Width: 1000
Flags: W
VStem: 335 91<-3 87>
LayerCount: 2
Fore
SplineSet
430 87 m 5
 426 -87 l 5
 335 -3 l 5
 336 174 l 5
 430 87 l 5
430 87 m 5
 510 2 l 5
 715 186 l 5
 490 404 l 5
 305 405 l 5
 535 180 l 5
 430 87 l 5
504 604 m 5
 686 803 l 5
 521 803 l 5
 355 600 l 5
 490 404 l 5
 629 405 l 5
 504 604 l 5
EndSplineSet
EndChar

StartChar: uF017C
Encoding: 983420 983420 380
Width: 1000
Flags: W
VStem: 459 91<4 94>
LayerCount: 2
Fore
SplineSet
554 94 m 5
 550 -80 l 5
 459 4 l 5
 460 181 l 5
 554 94 l 5
635 0 m 5
 840 204 l 5
 621 402 l 5
 460 403 l 5
 660 199 l 5
 554 94 l 5
 635 0 l 5
807 801 m 5
 647 799 l 5
 306 401 l 5
 460 403 l 5
 807 801 l 5
EndSplineSet
EndChar

StartChar: uF017D
Encoding: 983421 983421 381
Width: 1000
Flags: W
VStem: 466 91<4 94>
LayerCount: 2
Fore
SplineSet
561 94 m 5
 557 -80 l 5
 466 4 l 5
 467 181 l 5
 561 94 l 5
561 94 m 5
 641 2 l 5
 836 206 l 5
 657 403 l 5
 496 401 l 5
 666 201 l 5
 561 94 l 5
803 400 m 5
 456 801 l 5
 316 801 l 5
 657 403 l 5
 803 400 l 5
EndSplineSet
EndChar

StartChar: uF017E
Encoding: 983422 983422 382
Width: 1000
Flags: W
VStem: 303 91<-1 89>
LayerCount: 2
Fore
SplineSet
398 89 m 5
 394 -85 l 5
 303 -1 l 5
 304 176 l 5
 398 89 l 5
398 89 m 5
 490 4 l 5
 685 218 l 5
 506 404 l 5
 345 403 l 5
 515 215 l 5
 398 89 l 5
502 801 m 5
 506 404 l 5
 627 404 l 5
 625 708 l 5
 502 801 l 5
EndSplineSet
EndChar

StartChar: uF017F
Encoding: 983423 983423 383
Width: 1000
Flags: W
VStem: 152 91<1 91>
LayerCount: 2
Fore
SplineSet
247 91 m 5
 243 -83 l 5
 152 1 l 5
 153 178 l 5
 247 91 l 5
329 2 m 5
 534 199 l 5
 346 399 l 5
 345 397 l 5
 184 401 l 5
 354 194 l 5
 247 91 l 5
 329 2 l 5
346 399 m 5
 346 400 l 5
 345 400 l 5
 346 399 l 5
535 801 m 5
 346 400 l 5
 489 400 l 5
 685 801 l 5
 535 801 l 5
EndSplineSet
EndChar

StartChar: uF0180
Encoding: 983424 983424 384
Width: 1000
Flags: W
HStem: 0 21G<623.848 844>
LayerCount: 2
Fore
SplineSet
807 616 m 5
 857.441008487 618.230108876 965.772460938 749.924804688 910 892 c 5
 903.156735666 676.977488819 750.363216804 716.95144002 720 703 c 5
 807 616 l 5
720 703 m 1
 349 399 l 1
 844 0 l 1
 649 0 l 1
 151 396 l 1
 646 802 l 1
 720 703 l 1
EndSplineSet
EndChar

StartChar: uF0181
Encoding: 983425 983425 385
Width: 1000
Flags: W
HStem: 399 109<486 725>
VStem: 721 123<105 399>
LayerCount: 2
Fore
SplineSet
822 631 m 1
 872.44140625 633.23046875 980.772460938 764.924804688 925 907 c 1
 918.15625 691.977539062 765.36328125 731.951171875 735 718 c 1
 822 631 l 1
735 718 m 1
 486 508 l 1
 844 513 l 1
 844 105 l 1
 721 5 l 1
 725 399 l 1
 157 399 l 1
 659 804 l 1
 735 718 l 1
EndSplineSet
EndChar

StartChar: uF0182
Encoding: 983426 983426 386
Width: 1000
Flags: W
HStem: 0 21G<175.253 332> 399 105<470 578>
LayerCount: 2
Fore
SplineSet
816 622 m 5
 866.44140625 624.23046875 974.772460938 755.924804688 919 898 c 5
 912.15625 682.977539062 759.36328125 722.951171875 729 709 c 5
 816 622 l 5
729 709 m 1
 470 504 l 1
 844 507 l 1
 332 8 l 1
 154 0 l 1
 578 399 l 1
 158 399 l 1
 650 801 l 1
 729 709 l 1
EndSplineSet
EndChar

StartChar: uF0183
Encoding: 983427 983427 387
Width: 1000
Flags: W
HStem: 0 21G<693.424 844> 399 104<358 493>
LayerCount: 2
Fore
SplineSet
603 637 m 5
 653.44140625 639.23046875 761.772460938 770.924804688 706 913 c 5
 699.15625 697.977539062 546.36328125 737.951171875 516 724 c 5
 603 637 l 5
516 724 m 1
 358 503 l 1
 581 504 l 1
 844 0 l 1
 704 0 l 1
 493 399 l 1
 151 399 l 1
 440 804 l 1
 516 724 l 1
EndSplineSet
EndChar

StartChar: uF0184
Encoding: 983428 983428 388
Width: 1000
Flags: W
HStem: 0 21G<154 367.226>
LayerCount: 2
Fore
SplineSet
825 637 m 5
 875.44140625 639.23046875 983.772460938 770.924804688 928 913 c 5
 921.15625 697.977539062 768.36328125 737.951171875 738 724 c 5
 825 637 l 5
738 724 m 1
 566 580 l 1
 844 398 l 1
 342 0 l 1
 154 0 l 1
 654 399 l 1
 389 573 l 1
 670 801 l 1
 738 724 l 1
EndSplineSet
EndChar

StartChar: uF0185
Encoding: 983429 983429 389
Width: 1000
Flags: W
HStem: 0 21G<836 973.905>
LayerCount: 2
Fore
SplineSet
852 640 m 5
 902.44140625 642.23046875 1010.77246094 773.924804688 955 916 c 5
 948.15625 700.977539062 795.36328125 740.951171875 765 727 c 5
 852 640 l 5
625 606 m 1
 843 419 l 1
 573 419 l 1
 994 0 l 1
 836 1 l 1
 307 511 l 1
 559 511 l 1
 455 607 l 1
 690 802 l 1
 765 727 l 1
 625 606 l 1
EndSplineSet
EndChar

StartChar: uF0186
Encoding: 983430 983430 390
Width: 1000
Flags: W
HStem: -1 21G<498.051 523.631>
VStem: 498 132<102 395>
LayerCount: 2
Fore
SplineSet
670 633 m 1
 720.44140625 635.23046875 828.772460938 766.924804688 773 909 c 1
 766.15625 693.977539062 613.36328125 733.951171875 583 720 c 1
 670 633 l 1
583 720 m 1
 486 614 l 1
 636 399 l 1
 630 102 l 1
 498 -1 l 1
 499 395 l 1
 323 613 l 1
 501 800 l 1
 583 720 l 1
EndSplineSet
EndChar

StartChar: uF0187
Encoding: 983431 983431 391
Width: 1000
Flags: W
HStem: 0 21G<616.706 840>
VStem: 148 143<390 637.625> 152 131<425.375 673>
LayerCount: 2
Fore
SplineSet
370 586 m 5xa0
 420.44140625 588.23046875 528.772460938 719.924804688 473 862 c 5
 466.15625 646.977539062 313.36328125 686.951171875 283 673 c 5
 370 586 l 5xa0
283 673 m 1
 291 390 l 1
 840 0 l 1
 646 0 l 1
 148 340 l 1xc0
 152 802 l 1
 283 673 l 1
EndSplineSet
EndChar

StartChar: uF0188
Encoding: 983432 983432 392
Width: 1000
Flags: W
LayerCount: 2
Fore
SplineSet
666 613 m 5
 716.44140625 615.23046875 824.772460938 746.924804688 769 889 c 5
 762.15625 673.977539062 609.36328125 713.951171875 579 700 c 5
 666 613 l 5
331 399 m 1
 151 396 l 1
 500 802 l 1
 579 700 l 1
 331 399 l 1
331 399 m 1
 703 0 l 1
 844 0 l 1
 490 399 l 1
 331 399 l 1
EndSplineSet
EndChar

StartChar: uF0189
Encoding: 983433 983433 393
Width: 1000
Flags: W
LayerCount: 2
Fore
SplineSet
700 588 m 5
 750.44140625 590.23046875 858.772460938 721.924804688 803 864 c 5
 796.15625 648.977539062 643.36328125 688.951171875 613 675 c 5
 700 588 l 5
497 798 m 1
 497 399 l 1
 613 399 l 1
 613 675 l 1
 497 798 l 1
336 399 m 1
 701 0 l 1
 839 0 l 1
 497 399 l 1
 336 399 l 1
EndSplineSet
EndChar

StartChar: uF018A
Encoding: 983434 983434 394
Width: 1000
Flags: W
LayerCount: 2
Fore
SplineSet
586 588 m 5
 636.44140625 590.23046875 744.772460938 721.924804688 689 864 c 5
 682.15625 648.977539062 529.36328125 688.951171875 499 675 c 5
 586 588 l 5
391 321 m 1
 499 399 l 1
 499 675 l 1
 391 798 l 1
 391 321 l 1
499 399 m 1
 726 0 l 1
 840 0 l 1
 578 449 l 1
 499 399 l 1
EndSplineSet
EndChar

StartChar: uF018B
Encoding: 983435 983435 395
Width: 1000
Flags: W
HStem: 0 21G<820.863 844> 399 94<584 727>
VStem: 726 118<102 399>
LayerCount: 2
Fore
SplineSet
833 628 m 5
 883.44140625 630.23046875 991.772460938 761.924804688 936 904 c 5
 929.15625 688.977539062 776.36328125 728.951171875 746 715 c 5
 833 628 l 5
746 715 m 1
 500 493 l 1
 847 498 l 1
 847 360 844 202 844 0 c 1
 726 102 l 1
 727 399 l 1
 584 399 l 1
 417 581 l 1
 671 802 l 1
 746 715 l 1
EndSplineSet
EndChar

StartChar: uF018C
Encoding: 983436 983436 396
Width: 1000
Flags: W
HStem: 0 21G<816.747 841.865> 402 105<415 599>
VStem: 717 125<99 297>
LayerCount: 2
Fore
SplineSet
684 625 m 5
 734.44140625 627.23046875 842.772460938 758.924804688 787 901 c 5
 780.15625 685.977539062 627.36328125 725.951171875 597 712 c 5
 684 625 l 5
597 712 m 1
 415 507 l 1
 599 511 l 1
 840 297 l 1
 842 0 l 1
 717 99 l 1
 711 399 l 1
 151 402 l 1
 503 800 l 1
 597 712 l 1
EndSplineSet
EndChar

StartChar: uF018D
Encoding: 983437 983437 397
Width: 1000
Flags: W
HStem: 1 21G<316 518.572> 400 104<492 656>
LayerCount: 2
Fore
SplineSet
831 634 m 5
 881.44140625 636.23046875 989.772460938 767.924804688 934 910 c 5
 927.15625 694.977539062 774.36328125 734.951171875 744 721 c 5
 831 634 l 5
744 721 m 1
 492 504 l 1
 656 505 l 1
 840 319 l 1
 497 1 l 1
 316 1 l 1
 751 400 l 1
 158 399 l 1
 670 801 l 1
 744 721 l 1
EndSplineSet
EndChar

StartChar: uF018E
Encoding: 983438 983438 398
Width: 1000
Flags: W
HStem: 0 21G<826.424 844> 399 114<494 626>
VStem: 728 116<132 289>
LayerCount: 2
Fore
SplineSet
663 634 m 5
 713.44140625 636.23046875 821.772460938 767.924804688 766 910 c 5
 759.15625 694.977539062 606.36328125 734.951171875 576 721 c 5
 663 634 l 5
576 721 m 1
 349 510 l 1
 626 513 l 1
 844 289 l 1
 844 0 l 1
 728 132 l 1
 729 399 l 1
 494 399 l 1
 246 574 l 1
 500 801 l 1
 576 721 l 1
EndSplineSet
EndChar

StartChar: uF018F
Encoding: 983439 983439 399
Width: 1000
Flags: W
LayerCount: 2
Fore
SplineSet
825 631 m 5
 875.44140625 633.23046875 983.772460938 764.924804688 928 907 c 5
 921.15625 691.977539062 768.36328125 731.951171875 738 718 c 5
 825 631 l 5
738 718 m 1
 670 801 l 1
 168 399 l 1
 727 399 l 1
 844 508 l 1
 492 504 l 1
 738 718 l 1
728 109 m 1
 727 399 l 1
 606 302 l 1
 609 7 l 1
 728 109 l 1
EndSplineSet
EndChar

StartChar: uF0190
Encoding: 983440 983440 400
Width: 1000
Flags: W
HStem: 0 21G<151 280.971> 379 105<442 556>
LayerCount: 2
Fore
SplineSet
864 640 m 5
 914.44140625 642.23046875 1022.77246094 773.924804688 967 916 c 5
 960.15625 700.977539062 807.36328125 740.951171875 777 727 c 5
 864 640 l 5
643 565 m 1
 844 381 l 1
 442 379 l 1
 272 0 l 1
 151 0 l 1
 364 484 l 1
 556 484 l 1
 482 568 l 1
 695 803 l 1
 777 727 l 1
 643 565 l 1
EndSplineSet
EndChar

StartChar: uF0191
Encoding: 983441 983441 401
Width: 1000
Flags: W
HStem: 0 21G<726.431 844> 399 115<413 583> 399 107<413 583>
LayerCount: 2
Fore
SplineSet
657 631 m 5x80
 707.44140625 633.23046875 815.772460938 764.924804688 760 907 c 5
 753.15625 691.977539062 600.36328125 731.951171875 570 718 c 5
 657 631 l 5x80
570 718 m 1
 332 506 l 1xa0
 658 514 l 1
 844 0 l 1
 734 0 l 1
 583 399 l 1
 413 399 l 1xc0
 244 580 l 1
 499 805 l 1
 570 718 l 1
EndSplineSet
EndChar

StartChar: uF0192
Encoding: 983442 983442 402
Width: 1000
Flags: W
LayerCount: 2
Fore
SplineSet
669 629 m 5
 719.44140625 631.23046875 827.772460938 762.924804688 772 905 c 5
 765.15625 689.977539062 612.36328125 729.951171875 582 716 c 5
 669 629 l 5
496 798 m 1
 151 352 l 1
 464 349 l 1
 566 464 l 1
 395 467 l 1
 582 716 l 1
 496 798 l 1
563 -2 m 1
 680 112 l 1
 680 595 l 1
 566 464 l 1
 563 -2 l 1
EndSplineSet
EndChar

StartChar: uF0193
Encoding: 983443 983443 403
Width: 1000
Flags: W
LayerCount: 2
Fore
SplineSet
671 634 m 1
 721.44140625 636.23046875 829.772460938 767.924804688 774 910 c 1
 767.15625 694.977539062 614.36328125 734.951171875 584 721 c 1
 671 634 l 1
584 721 m 1
 510 801 l 1
 305 617 l 1
 530 399 l 1
 715 398 l 1
 485 623 l 1
 584 721 l 1
516 199 m 1
 334 0 l 1
 499 0 l 1
 665 203 l 1
 530 399 l 1
 391 398 l 1
 516 199 l 1
EndSplineSet
EndChar

StartChar: uF0194
Encoding: 983444 983444 404
Width: 1000
Flags: W
LayerCount: 2
Fore
SplineSet
683 629 m 5
 733.44140625 631.23046875 841.772460938 762.924804688 786 905 c 5
 779.15625 689.977539062 626.36328125 729.951171875 596 716 c 5
 683 629 l 5
511 799 m 1
 306 595 l 1
 525 397 l 1
 686 396 l 1
 486 600 l 1
 596 716 l 1
 511 799 l 1
339 -2 m 1
 499 0 l 1
 840 398 l 1
 686 396 l 1
 339 -2 l 1
EndSplineSet
EndChar

StartChar: uF0195
Encoding: 983445 983445 405
Width: 1000
Flags: W
LayerCount: 2
Fore
SplineSet
684 625 m 5
 734.44140625 627.23046875 842.772460938 758.924804688 787 901 c 5
 780.15625 685.977539062 627.36328125 725.951171875 597 712 c 5
 684 625 l 5
597 712 m 1
 511 799 l 1
 316 595 l 1
 495 398 l 1
 656 400 l 1
 486 600 l 1
 597 712 l 1
349 401 m 1
 696 0 l 1
 836 0 l 1
 495 398 l 1
 349 401 l 1
EndSplineSet
EndChar

StartChar: uF0196
Encoding: 983446 983446 406
Width: 1000
Flags: W
LayerCount: 2
Fore
SplineSet
692 622 m 5
 742.44140625 624.23046875 850.772460938 755.924804688 795 898 c 5
 788.15625 682.977539062 635.36328125 722.951171875 605 709 c 5
 692 622 l 5
605 709 m 1
 511 799 l 1
 316 585 l 1
 495 399 l 1
 656 400 l 1
 486 588 l 1
 605 709 l 1
499 2 m 1
 495 399 l 1
 374 399 l 1
 376 95 l 1
 499 2 l 1
EndSplineSet
EndChar

StartChar: uF0197
Encoding: 983447 983447 407
Width: 1000
Flags: W
LayerCount: 2
Fore
SplineSet
680 625 m 5
 730.44140625 627.23046875 838.772460938 758.924804688 783 901 c 5
 776.15625 685.977539062 623.36328125 725.951171875 593 712 c 5
 680 625 l 5
511 799 m 1
 306 602 l 1
 494 402 l 1
 495 404 l 1
 656 400 l 1
 486 607 l 1
 593 712 l 1
 511 799 l 1
494 402 m 1
 494 401 l 1
 495 401 l 1
 494 402 l 1
305 0 m 1
 494 401 l 1
 351 401 l 1
 155 0 l 1
 305 0 l 1
EndSplineSet
EndChar

StartChar: uF0198
Encoding: 983448 983448 408
Width: 1000
Flags: W
LayerCount: 2
Fore
SplineSet
188 616 m 5
 137.55859375 618.23046875 29.2275390625 749.924804688 85 892 c 5
 91.84375 676.977539062 244.63671875 716.951171875 275 703 c 5
 188 616 l 5
275 703 m 5
 646 399 l 5
 151 0 l 5
 346 0 l 5
 844 396 l 5
 349 802 l 5
 275 703 l 5
EndSplineSet
EndChar

StartChar: uF0199
Encoding: 983449 983449 409
Width: 1000
Flags: W
LayerCount: 2
Fore
SplineSet
179 631 m 5
 128.55859375 633.23046875 20.2275390625 764.924804688 76 907 c 5
 82.84375 691.977539062 235.63671875 731.951171875 266 718 c 5
 179 631 l 5
266 718 m 5
 515 508 l 5
 157 513 l 5
 157 105 l 5
 280 5 l 5
 276 399 l 5
 844 399 l 5
 342 804 l 5
 266 718 l 5
EndSplineSet
EndChar

StartChar: uF019A
Encoding: 983450 983450 410
Width: 1000
Flags: W
LayerCount: 2
Fore
SplineSet
182 622 m 5
 131.55859375 624.23046875 23.2275390625 755.924804688 79 898 c 5
 85.84375 682.977539062 238.63671875 722.951171875 269 709 c 5
 182 622 l 5
269 709 m 5
 528 504 l 5
 154 507 l 5
 666 8 l 5
 844 0 l 5
 420 399 l 5
 840 399 l 5
 348 801 l 5
 269 709 l 5
EndSplineSet
EndChar

StartChar: uF019B
Encoding: 983451 983451 411
Width: 1000
Flags: W
LayerCount: 2
Fore
SplineSet
392 637 m 5
 341.55859375 639.23046875 233.227539062 770.924804688 289 913 c 5
 295.84375 697.977539062 448.63671875 737.951171875 479 724 c 5
 392 637 l 5
479 724 m 5
 637 503 l 5
 414 504 l 5
 151 0 l 5
 291 0 l 5
 502 399 l 5
 844 399 l 5
 555 804 l 5
 479 724 l 5
EndSplineSet
EndChar

StartChar: uF019C
Encoding: 983452 983452 412
Width: 1000
Flags: W
LayerCount: 2
Fore
SplineSet
173 637 m 5
 122.55859375 639.23046875 14.2275390625 770.924804688 70 913 c 5
 76.84375 697.977539062 229.63671875 737.951171875 260 724 c 5
 173 637 l 5
260 724 m 5
 432 580 l 5
 154 398 l 5
 656 0 l 5
 844 0 l 5
 344 399 l 5
 609 573 l 5
 328 801 l 5
 260 724 l 5
EndSplineSet
EndChar

StartChar: uF019D
Encoding: 983453 983453 413
Width: 1000
Flags: W
LayerCount: 2
Fore
SplineSet
449 640 m 5
 398.55859375 642.23046875 290.227539062 773.924804688 346 916 c 5
 352.84375 700.977539062 505.63671875 740.951171875 536 727 c 5
 449 640 l 5
676 606 m 5
 458 419 l 5
 728 419 l 5
 307 0 l 5
 465 1 l 5
 994 511 l 5
 742 511 l 5
 846 607 l 5
 611 802 l 5
 536 727 l 5
 676 606 l 5
EndSplineSet
EndChar

StartChar: uF019E
Encoding: 983454 983454 414
Width: 1000
Flags: W
LayerCount: 2
Fore
SplineSet
312 633 m 5
 261.55859375 635.23046875 153.227539062 766.924804688 209 909 c 5
 215.84375 693.977539062 368.63671875 733.951171875 399 720 c 5
 312 633 l 5
399 720 m 5
 496 614 l 5
 346 399 l 5
 352 102 l 5
 484 -1 l 5
 483 395 l 5
 659 613 l 5
 481 800 l 5
 399 720 l 5
EndSplineSet
EndChar

StartChar: uF019F
Encoding: 983455 983455 415
Width: 1000
Flags: W
VStem: 697 143<390 637.625> 705 131<425.375 673>
LayerCount: 2
Fore
SplineSet
618 586 m 5x40
 567.55859375 588.23046875 459.227539062 719.924804688 515 862 c 5
 521.84375 646.977539062 674.63671875 686.951171875 705 673 c 5
 618 586 l 5x40
705 673 m 5
 697 390 l 5
 148 0 l 5
 342 0 l 5
 840 340 l 5x80
 836 802 l 5
 705 673 l 5
EndSplineSet
EndChar

StartChar: uF01A0
Encoding: 983456 983456 416
Width: 1000
Flags: W
HStem: 0 21G<151 310.647>
LayerCount: 2
Fore
SplineSet
329 613 m 5
 278.55859375 615.23046875 170.227539062 746.924804688 226 889 c 5
 232.84375 673.977539062 385.63671875 713.951171875 416 700 c 5
 329 613 l 5
664 399 m 5
 844 396 l 5
 495 802 l 5
 416 700 l 5
 664 399 l 5
664 399 m 5
 292 0 l 5
 151 0 l 5
 505 399 l 5
 664 399 l 5
EndSplineSet
EndChar

StartChar: uF01A1
Encoding: 983457 983457 417
Width: 1000
Flags: W
HStem: 0 21G<336 492.296>
VStem: 562 116<399 675>
LayerCount: 2
Fore
SplineSet
475 588 m 5
 424.55859375 590.23046875 316.227539062 721.924804688 372 864 c 5
 378.84375 648.977539062 531.63671875 688.951171875 562 675 c 5
 475 588 l 5
678 798 m 5
 678 399 l 5
 562 399 l 5
 562 675 l 5
 678 798 l 5
839 399 m 5
 474 0 l 5
 336 0 l 5
 678 399 l 5
 839 399 l 5
EndSplineSet
EndChar

StartChar: uF01A2
Encoding: 983458 983458 418
Width: 1000
Flags: W
HStem: 0 21G<391 516.378>
VStem: 732 108<399 675>
LayerCount: 2
Fore
SplineSet
645 588 m 5
 594.55859375 590.23046875 486.227539062 721.924804688 542 864 c 5
 548.84375 648.977539062 701.63671875 688.951171875 732 675 c 5
 645 588 l 5
840 321 m 5
 732 399 l 5
 732 675 l 5
 840 798 l 5
 840 321 l 5
732 399 m 5
 505 0 l 5
 391 0 l 5
 653 449 l 5
 732 399 l 5
EndSplineSet
EndChar

StartChar: uF01A3
Encoding: 983459 983459 419
Width: 1000
Flags: W
LayerCount: 2
Fore
SplineSet
431 628 m 5
 380.55859375 630.23046875 272.227539062 761.924804688 328 904 c 5
 334.84375 688.977539062 487.63671875 728.951171875 518 715 c 5
 431 628 l 5
518 715 m 5
 764 493 l 5
 417 498 l 5
 417 360 420 202 420 0 c 5
 538 102 l 5
 537 399 l 5
 680 399 l 5
 847 581 l 5
 593 802 l 5
 518 715 l 5
EndSplineSet
EndChar

StartChar: uF01A4
Encoding: 983460 983460 420
Width: 1000
Flags: W
LayerCount: 2
Fore
SplineSet
309 625 m 5
 258.55859375 627.23046875 150.227539062 758.924804688 206 901 c 5
 212.84375 685.977539062 365.63671875 725.951171875 396 712 c 5
 309 625 l 5
396 712 m 5
 578 507 l 5
 394 511 l 5
 153 297 l 5
 151 0 l 5
 276 99 l 5
 282 399 l 5
 842 402 l 5
 490 800 l 5
 396 712 l 5
EndSplineSet
EndChar

StartChar: uF01A5
Encoding: 983461 983461 421
Width: 1000
Flags: W
LayerCount: 2
Fore
SplineSet
171 634 m 5
 120.55859375 636.23046875 12.2275390625 767.924804688 68 910 c 5
 74.84375 694.977539062 227.63671875 734.951171875 258 721 c 5
 171 634 l 5
258 721 m 5
 510 504 l 5
 346 505 l 5
 162 319 l 5
 505 1 l 5
 686 1 l 5
 251 400 l 5
 844 399 l 5
 332 801 l 5
 258 721 l 5
EndSplineSet
EndChar

StartChar: uF01A6
Encoding: 983462 983462 422
Width: 1000
Flags: W
LayerCount: 2
Fore
SplineSet
427 634 m 5
 376.55859375 636.23046875 268.227539062 767.924804688 324 910 c 5
 330.84375 694.977539062 483.63671875 734.951171875 514 721 c 5
 427 634 l 5
514 721 m 5
 741 510 l 5
 464 513 l 5
 246 289 l 5
 246 0 l 5
 362 132 l 5
 361 399 l 5
 596 399 l 5
 844 574 l 5
 590 801 l 5
 514 721 l 5
EndSplineSet
EndChar

StartChar: uF01A7
Encoding: 983463 983463 423
Width: 1000
Flags: W
HStem: 399 109<285 520>
VStem: 284 119<109 302>
LayerCount: 2
Fore
SplineSet
187 631 m 5
 136.55859375 633.23046875 28.2275390625 764.924804688 84 907 c 5
 90.84375 691.977539062 243.63671875 731.951171875 274 718 c 5
 187 631 l 5
274 718 m 5
 342 801 l 5
 844 399 l 5
 285 399 l 5
 168 508 l 5
 520 504 l 5
 274 718 l 5
284 109 m 5
 285 399 l 5
 406 302 l 5
 403 7 l 5
 284 109 l 5
EndSplineSet
EndChar

StartChar: uF01A8
Encoding: 983464 983464 424
Width: 1000
Flags: W
LayerCount: 2
Fore
SplineSet
131 640 m 5
 80.55859375 642.23046875 -27.7724609375 773.924804688 28 916 c 5
 34.84375 700.977539062 187.63671875 740.951171875 218 727 c 5
 131 640 l 5
352 565 m 5
 151 381 l 5
 553 379 l 5
 723 0 l 5
 844 0 l 5
 631 484 l 5
 439 484 l 5
 513 568 l 5
 300 803 l 5
 218 727 l 5
 352 565 l 5
EndSplineSet
EndChar

StartChar: uF01A9
Encoding: 983465 983465 425
Width: 1000
Flags: W
HStem: 399 115<505 675> 399 107<505 675>
LayerCount: 2
Fore
SplineSet
431 631 m 5x00
 380.55859375 633.23046875 272.227539062 764.924804688 328 907 c 5
 334.84375 691.977539062 487.63671875 731.951171875 518 718 c 5
 431 631 l 5x00
518 718 m 5
 756 506 l 5x40
 430 514 l 5
 244 0 l 5
 354 0 l 5
 505 399 l 5
 675 399 l 5x80
 844 580 l 5
 589 805 l 5
 518 718 l 5
EndSplineSet
EndChar

StartChar: uF01AA
Encoding: 983466 983466 426
Width: 1000
Flags: W
HStem: 349 118<367 436>
VStem: 151 117<112 464>
LayerCount: 2
Fore
SplineSet
162 629 m 5
 111.55859375 631.23046875 3.2275390625 762.924804688 59 905 c 5
 65.84375 689.977539062 218.63671875 729.951171875 249 716 c 5
 162 629 l 5
335 798 m 5
 680 352 l 5
 367 349 l 5
 265 464 l 5
 436 467 l 5
 249 716 l 5
 335 798 l 5
268 -2 m 5
 151 112 l 5
 151 595 l 5
 265 464 l 5
 268 -2 l 5
EndSplineSet
EndChar

StartChar: uF01AB
Encoding: 983467 983467 427
Width: 1000
Flags: W
HStem: 0 21G<504.645 686>
LayerCount: 2
Fore
SplineSet
349 634 m 5
 298.55859375 636.23046875 190.227539062 767.924804688 246 910 c 5
 252.84375 694.977539062 405.63671875 734.951171875 436 721 c 5
 349 634 l 5
436 721 m 5
 510 801 l 5
 715 617 l 5
 490 399 l 5
 305 398 l 5
 535 623 l 5
 436 721 l 5
504 199 m 5
 686 0 l 5
 521 0 l 5
 355 203 l 5
 490 399 l 5
 629 398 l 5
 504 199 l 5
EndSplineSet
EndChar

StartChar: uF01AC
Encoding: 983468 983468 428
Width: 1000
Flags: W
LayerCount: 2
Fore
SplineSet
463 629 m 5
 412.55859375 631.23046875 304.227539062 762.924804688 360 905 c 5
 366.84375 689.977539062 519.63671875 729.951171875 550 716 c 5
 463 629 l 5
635 799 m 5
 840 595 l 5
 621 397 l 5
 460 396 l 5
 660 600 l 5
 550 716 l 5
 635 799 l 5
807 -2 m 5
 647 0 l 5
 306 398 l 5
 460 396 l 5
 807 -2 l 5
EndSplineSet
EndChar

StartChar: uF01AD
Encoding: 983469 983469 429
Width: 1000
Flags: W
HStem: 0 21G<316 473.307>
LayerCount: 2
Fore
SplineSet
468 625 m 5
 417.55859375 627.23046875 309.227539062 758.924804688 365 901 c 5
 371.84375 685.977539062 524.63671875 725.951171875 555 712 c 5
 468 625 l 5
555 712 m 5
 641 799 l 5
 836 595 l 5
 657 398 l 5
 496 400 l 5
 666 600 l 5
 555 712 l 5
803 401 m 5
 456 0 l 5
 316 0 l 5
 657 398 l 5
 803 401 l 5
EndSplineSet
EndChar

StartChar: uF01AE
Encoding: 983470 983470 430
Width: 1000
Flags: W
VStem: 502 123<95 399>
LayerCount: 2
Fore
SplineSet
309 622 m 5
 258.55859375 624.23046875 150.227539062 755.924804688 206 898 c 5
 212.84375 682.977539062 365.63671875 722.951171875 396 709 c 5
 309 622 l 5
396 709 m 5
 490 799 l 5
 685 585 l 5
 506 399 l 5
 345 400 l 5
 515 588 l 5
 396 709 l 5
502 2 m 5
 506 399 l 5
 627 399 l 5
 625 95 l 5
 502 2 l 5
EndSplineSet
EndChar

StartChar: uF01AF
Encoding: 983471 983471 431
Width: 1000
Flags: W
HStem: 0 21G<525.574 685>
LayerCount: 2
Fore
SplineSet
160 625 m 5
 109.55859375 627.23046875 1.2275390625 758.924804688 57 901 c 5
 63.84375 685.977539062 216.63671875 725.951171875 247 712 c 5
 160 625 l 5
329 799 m 5
 534 602 l 5
 346 402 l 5
 345 404 l 5
 184 400 l 5
 354 607 l 5
 247 712 l 5
 329 799 l 5
346 402 m 5
 346 401 l 5
 345 401 l 5
 346 402 l 5
535 0 m 5
 346 401 l 5
 489 401 l 5
 685 0 l 5
 535 0 l 5
EndSplineSet
EndChar

StartChar: uF01B0
Encoding: 983472 983472 432
Width: 1000
Flags: W
LayerCount: 2
Fore
SplineSet
657 631 m 5
 707.44140625 633.23046875 815.772460938 764.924804688 760 907 c 5
 753.15625 691.977539062 600.36328125 731.951171875 570 718 c 5
 657 631 l 5
497 805 m 1
 236 571 l 1
 483 355 l 1
 650 355 l 1
 423 571 l 1
 570 718 l 1
 497 805 l 1
650 355 m 1
 821 190 l 1
 605 0 l 1
 793 1 l 1
 1000 184 l 1
 815 355 l 1
 650 355 l 1
EndSplineSet
EndChar

StartChar: uF01B1
Encoding: 983473 983473 433
Width: 1000
Flags: W
LayerCount: 2
Fore
SplineSet
822 178 m 5
 872.44140625 175.76953125 980.772460938 44.0751953125 925 -98 c 5
 918.15625 117.022460938 765.36328125 77.048828125 735 91 c 5
 822 178 l 5
735 91 m 5
 486 301 l 5
 844 296 l 5
 844 704 l 5
 721 804 l 5
 725 410 l 5
 157 410 l 5
 659 5 l 5
 735 91 l 5
EndSplineSet
EndChar

StartChar: uF01B2
Encoding: 983474 983474 434
Width: 1000
Flags: W
LayerCount: 2
Fore
SplineSet
816 181 m 5
 866.44140625 178.76953125 974.772460938 47.0751953125 919 -95 c 5
 912.15625 120.022460938 759.36328125 80.048828125 729 94 c 5
 816 181 l 5
729 94 m 5
 470 299 l 5
 844 296 l 5
 332 795 l 5
 154 803 l 5
 578 404 l 5
 158 404 l 5
 650 2 l 5
 729 94 l 5
EndSplineSet
EndChar

StartChar: uF01B3
Encoding: 983475 983475 435
Width: 1000
Flags: W
LayerCount: 2
Fore
SplineSet
603 167 m 5
 653.44140625 164.76953125 761.772460938 33.0751953125 706 -109 c 5
 699.15625 106.022460938 546.36328125 66.048828125 516 80 c 5
 603 167 l 5
516 80 m 5
 358 301 l 5
 581 300 l 5
 844 804 l 5
 704 804 l 5
 493 405 l 5
 151 405 l 5
 440 0 l 5
 516 80 l 5
EndSplineSet
EndChar

StartChar: uF01B4
Encoding: 983476 983476 436
Width: 1000
Flags: W
LayerCount: 2
Fore
SplineSet
825 166 m 5
 875.44140625 163.76953125 983.772460938 32.0751953125 928 -110 c 5
 921.15625 105.022460938 768.36328125 65.048828125 738 79 c 5
 825 166 l 5
738 79 m 5
 566 223 l 5
 844 405 l 5
 342 803 l 5
 154 803 l 5
 654 404 l 5
 389 230 l 5
 670 2 l 5
 738 79 l 5
EndSplineSet
EndChar

StartChar: uF01B5
Encoding: 983477 983477 437
Width: 1000
Flags: W
LayerCount: 2
Fore
SplineSet
852 162 m 5
 902.44140625 159.76953125 1010.77246094 28.0751953125 955 -114 c 5
 948.15625 101.022460938 795.36328125 61.048828125 765 75 c 5
 852 162 l 5
625 196 m 5
 843 383 l 5
 573 383 l 5
 994 802 l 5
 836 801 l 5
 307 291 l 5
 559 291 l 5
 455 195 l 5
 690 0 l 5
 765 75 l 5
 625 196 l 5
EndSplineSet
EndChar

StartChar: uF01B6
Encoding: 983478 983478 438
Width: 1000
Flags: W
LayerCount: 2
Fore
SplineSet
670 167 m 5
 720.44140625 164.76953125 828.772460938 33.0751953125 773 -109 c 5
 766.15625 106.022460938 613.36328125 66.048828125 583 80 c 5
 670 167 l 5
583 80 m 5
 486 186 l 5
 636 401 l 5
 630 698 l 5
 498 801 l 5
 499 405 l 5
 323 187 l 5
 501 0 l 5
 583 80 l 5
EndSplineSet
EndChar

StartChar: uF01B7
Encoding: 983479 983479 439
Width: 1000
Flags: W
VStem: 148 143<164.375 412> 152 131<129 376.625>
LayerCount: 2
Fore
SplineSet
370 216 m 5x40
 420.44140625 213.76953125 528.772460938 82.0751953125 473 -60 c 5
 466.15625 155.022460938 313.36328125 115.048828125 283 129 c 5
 370 216 l 5x40
283 129 m 5
 291 412 l 5
 840 802 l 5
 646 802 l 5
 148 462 l 5x80
 152 0 l 5
 283 129 l 5
EndSplineSet
EndChar

StartChar: uF01B8
Encoding: 983480 983480 440
Width: 1000
Flags: W
LayerCount: 2
Fore
SplineSet
666 189 m 5
 716.44140625 186.76953125 824.772460938 55.0751953125 769 -87 c 5
 762.15625 128.022460938 609.36328125 88.048828125 579 102 c 5
 666 189 l 5
331 403 m 5
 151 406 l 5
 500 0 l 5
 579 102 l 5
 331 403 l 5
331 403 m 5
 703 802 l 5
 844 802 l 5
 490 403 l 5
 331 403 l 5
EndSplineSet
EndChar

StartChar: uF01B9
Encoding: 983481 983481 441
Width: 1000
Flags: W
HStem: 0 21G<497 515.862>
VStem: 497 116<123 399>
LayerCount: 2
Fore
SplineSet
700 210 m 5
 750.44140625 207.76953125 858.772460938 76.0751953125 803 -66 c 5
 796.15625 149.022460938 643.36328125 109.048828125 613 123 c 5
 700 210 l 5
497 0 m 5
 497 399 l 5
 613 399 l 5
 613 123 l 5
 497 0 l 5
336 399 m 5
 701 798 l 5
 839 798 l 5
 497 399 l 5
 336 399 l 5
EndSplineSet
EndChar

StartChar: uF01BA
Encoding: 983482 983482 442
Width: 1000
Flags: W
HStem: 0 21G<391 408.561>
VStem: 391 108<123 399>
LayerCount: 2
Fore
SplineSet
586 210 m 5
 636.44140625 207.76953125 744.772460938 76.0751953125 689 -66 c 5
 682.15625 149.022460938 529.36328125 109.048828125 499 123 c 5
 586 210 l 5
391 477 m 5
 499 399 l 5
 499 123 l 5
 391 0 l 5
 391 477 l 5
499 399 m 5
 726 798 l 5
 840 798 l 5
 578 349 l 5
 499 399 l 5
EndSplineSet
EndChar

StartChar: uF01BB
Encoding: 983483 983483 443
Width: 1000
Flags: W
LayerCount: 2
Fore
SplineSet
833 175 m 5
 883.44140625 172.76953125 991.772460938 41.0751953125 936 -101 c 5
 929.15625 114.022460938 776.36328125 74.048828125 746 88 c 5
 833 175 l 5
746 88 m 5
 500 310 l 5
 847 305 l 5
 847 443 844 601 844 803 c 5
 726 701 l 5
 727 404 l 5
 584 404 l 5
 417 222 l 5
 671 1 l 5
 746 88 l 5
EndSplineSet
EndChar

StartChar: uF01BC
Encoding: 983484 983484 444
Width: 1000
Flags: W
LayerCount: 2
Fore
SplineSet
684 176 m 5
 734.44140625 173.76953125 842.772460938 42.0751953125 787 -100 c 5
 780.15625 115.022460938 627.36328125 75.048828125 597 89 c 5
 684 176 l 5
597 89 m 5
 415 294 l 5
 599 290 l 5
 840 504 l 5
 842 801 l 5
 717 702 l 5
 711 402 l 5
 151 399 l 5
 503 1 l 5
 597 89 l 5
EndSplineSet
EndChar

StartChar: uF01BD
Encoding: 983485 983485 445
Width: 1000
Flags: W
LayerCount: 2
Fore
SplineSet
831 168 m 5
 881.44140625 165.76953125 989.772460938 34.0751953125 934 -108 c 5
 927.15625 107.022460938 774.36328125 67.048828125 744 81 c 5
 831 168 l 5
744 81 m 5
 492 298 l 5
 656 297 l 5
 840 483 l 5
 497 801 l 5
 316 801 l 5
 751 402 l 5
 158 403 l 5
 670 1 l 5
 744 81 l 5
EndSplineSet
EndChar

StartChar: uF01BE
Encoding: 983486 983486 446
Width: 1000
Flags: W
LayerCount: 2
Fore
SplineSet
663 169 m 5
 713.44140625 166.76953125 821.772460938 35.0751953125 766 -107 c 5
 759.15625 108.022460938 606.36328125 68.048828125 576 82 c 5
 663 169 l 5
576 82 m 5
 349 293 l 5
 626 290 l 5
 844 514 l 5
 844 803 l 5
 728 671 l 5
 729 404 l 5
 494 404 l 5
 246 229 l 5
 500 2 l 5
 576 82 l 5
EndSplineSet
EndChar

StartChar: uF01BF
Encoding: 983487 983487 447
Width: 1000
Flags: W
HStem: 306 105<492 727>
VStem: 606 121<508 701>
LayerCount: 2
Fore
SplineSet
825 179 m 5
 875.44140625 176.76953125 983.772460938 45.0751953125 928 -97 c 5
 921.15625 118.022460938 768.36328125 78.048828125 738 92 c 5
 825 179 l 5
738 92 m 5
 670 9 l 5
 168 411 l 5
 727 411 l 5
 844 302 l 5
 492 306 l 5
 738 92 l 5
728 701 m 5
 727 411 l 5
 606 508 l 5
 609 803 l 5
 728 701 l 5
EndSplineSet
EndChar

StartChar: uF01C0
Encoding: 983488 983488 448
Width: 1000
Flags: W
LayerCount: 2
Fore
SplineSet
864 163 m 5
 914.44140625 160.76953125 1022.77246094 29.0751953125 967 -113 c 5
 960.15625 102.022460938 807.36328125 62.048828125 777 76 c 5
 864 163 l 5
643 238 m 5
 844 422 l 5
 442 424 l 5
 272 803 l 5
 151 803 l 5
 364 319 l 5
 556 319 l 5
 482 235 l 5
 695 0 l 5
 777 76 l 5
 643 238 l 5
EndSplineSet
EndChar

StartChar: uF01C1
Encoding: 983489 983489 449
Width: 1000
Flags: W
HStem: 291 115<413 583> 299 107<413 583>
LayerCount: 2
Fore
SplineSet
657 174 m 5x00
 707.44140625 171.76953125 815.772460938 40.0751953125 760 -102 c 5
 753.15625 113.022460938 600.36328125 73.048828125 570 87 c 5
 657 174 l 5x00
570 87 m 5
 332 299 l 5x40
 658 291 l 5
 844 805 l 5
 734 805 l 5
 583 406 l 5
 413 406 l 5x80
 244 225 l 5
 499 0 l 5
 570 87 l 5
EndSplineSet
EndChar

StartChar: uF01C2
Encoding: 983490 983490 450
Width: 1000
Flags: W
HStem: 0 21G<480.529 516.976> 331 118<395 464>
VStem: 566 114<334 686>
LayerCount: 2
Fore
SplineSet
669 169 m 5
 719.44140625 166.76953125 827.772460938 35.0751953125 772 -107 c 5
 765.15625 108.022460938 612.36328125 68.048828125 582 82 c 5
 669 169 l 5
496 0 m 5
 151 446 l 5
 464 449 l 5
 566 334 l 5
 395 331 l 5
 582 82 l 5
 496 0 l 5
563 800 m 5
 680 686 l 5
 680 203 l 5
 566 334 l 5
 563 800 l 5
EndSplineSet
EndChar

StartChar: uF01C3
Encoding: 983491 983491 451
Width: 1000
Flags: W
LayerCount: 2
Fore
SplineSet
671 169 m 5
 721.44140625 166.76953125 829.772460938 35.0751953125 774 -107 c 5
 767.15625 108.022460938 614.36328125 68.048828125 584 82 c 5
 671 169 l 5
584 82 m 5
 510 2 l 5
 305 186 l 5
 530 404 l 5
 715 405 l 5
 485 180 l 5
 584 82 l 5
516 604 m 5
 334 803 l 5
 499 803 l 5
 665 600 l 5
 530 404 l 5
 391 405 l 5
 516 604 l 5
EndSplineSet
EndChar

StartChar: uF01C4
Encoding: 983492 983492 452
Width: 1000
Flags: W
HStem: 0 21G<490.902 531.482>
LayerCount: 2
Fore
SplineSet
683 170 m 5
 733.44140625 167.76953125 841.772460938 36.0751953125 786 -106 c 5
 779.15625 109.022460938 626.36328125 69.048828125 596 83 c 5
 683 170 l 5
511 0 m 5
 306 204 l 5
 525 402 l 5
 686 403 l 5
 486 199 l 5
 596 83 l 5
 511 0 l 5
339 801 m 5
 499 799 l 5
 840 401 l 5
 686 403 l 5
 339 801 l 5
EndSplineSet
EndChar

StartChar: uF01C5
Encoding: 983493 983493 453
Width: 1000
Flags: W
LayerCount: 2
Fore
SplineSet
684 176 m 5
 734.44140625 173.76953125 842.772460938 42.0751953125 787 -100 c 5
 780.15625 115.022460938 627.36328125 75.048828125 597 89 c 5
 684 176 l 5
597 89 m 5
 511 2 l 5
 316 206 l 5
 495 403 l 5
 656 401 l 5
 486 201 l 5
 597 89 l 5
349 400 m 5
 696 801 l 5
 836 801 l 5
 495 403 l 5
 349 400 l 5
EndSplineSet
EndChar

StartChar: uF01C6
Encoding: 983494 983494 454
Width: 1000
Flags: W
VStem: 374 121<404 708>
LayerCount: 2
Fore
SplineSet
692 181 m 5
 742.44140625 178.76953125 850.772460938 47.0751953125 795 -95 c 5
 788.15625 120.022460938 635.36328125 80.048828125 605 94 c 5
 692 181 l 5
605 94 m 5
 511 4 l 5
 316 218 l 5
 495 404 l 5
 656 403 l 5
 486 215 l 5
 605 94 l 5
499 801 m 5
 495 404 l 5
 374 404 l 5
 376 708 l 5
 499 801 l 5
EndSplineSet
EndChar

StartChar: uF01C7
Encoding: 983495 983495 455
Width: 1000
Flags: W
LayerCount: 2
Fore
SplineSet
680 176 m 5
 730.44140625 173.76953125 838.772460938 42.0751953125 783 -100 c 5
 776.15625 115.022460938 623.36328125 75.048828125 593 89 c 5
 680 176 l 5
511 2 m 5
 306 199 l 5
 494 399 l 5
 495 397 l 5
 656 401 l 5
 486 194 l 5
 593 89 l 5
 511 2 l 5
494 399 m 5
 494 400 l 5
 495 400 l 5
 494 399 l 5
305 801 m 5
 494 400 l 5
 351 400 l 5
 155 801 l 5
 305 801 l 5
EndSplineSet
EndChar

StartChar: uF01C8
Encoding: 983496 983496 456
Width: 1000
VWidth: 880
Flags: W
LayerCount: 2
Fore
SplineSet
657 156 m 5
 707.44140625 153.76953125 815.772460938 22.0751953125 760 -120 c 5
 753.15625 95.0224609375 600.36328125 55.048828125 570 69 c 5
 657 156 l 5
497 -18 m 1
 236 216 l 1
 483 432 l 1
 650 432 l 1
 423 216 l 1
 570 69 l 1
 497 -18 l 1
650 432 m 1
 821 597 l 1
 605 787 l 1
 793 786 l 1
 1000 603 l 1
 815 432 l 1
 650 432 l 1
EndSplineSet
EndChar

StartChar: uF01C9
Encoding: 983497 983497 457
Width: 1000
Flags: W
HStem: 296 114<276 515>
VStem: 157 119<410 704>
LayerCount: 2
Fore
SplineSet
179 178 m 5
 128.55859375 175.76953125 20.2275390625 44.0751953125 76 -98 c 5
 82.84375 117.022460938 235.63671875 77.048828125 266 91 c 5
 179 178 l 5
266 91 m 5
 515 301 l 5
 157 296 l 5
 157 704 l 5
 280 804 l 5
 276 410 l 5
 844 410 l 5
 342 5 l 5
 266 91 l 5
EndSplineSet
EndChar

StartChar: uF01CA
Encoding: 983498 983498 458
Width: 1000
Flags: W
HStem: 299 105<420 528>
LayerCount: 2
Fore
SplineSet
182 181 m 5
 131.55859375 178.76953125 23.2275390625 47.0751953125 79 -95 c 5
 85.84375 120.022460938 238.63671875 80.048828125 269 94 c 5
 182 181 l 5
269 94 m 5
 528 299 l 5
 154 296 l 5
 666 795 l 5
 844 803 l 5
 420 404 l 5
 840 404 l 5
 348 2 l 5
 269 94 l 5
EndSplineSet
EndChar

StartChar: uF01CB
Encoding: 983499 983499 459
Width: 1000
Flags: W
HStem: 0 21G<536 569.272> 300 105<502 637>
LayerCount: 2
Fore
SplineSet
392 167 m 5
 341.55859375 164.76953125 233.227539062 33.0751953125 289 -109 c 5
 295.84375 106.022460938 448.63671875 66.048828125 479 80 c 5
 392 167 l 5
479 80 m 5
 637 301 l 5
 414 300 l 5
 151 804 l 5
 291 804 l 5
 502 405 l 5
 844 405 l 5
 555 0 l 5
 479 80 l 5
EndSplineSet
EndChar

StartChar: uF01CC
Encoding: 983500 983500 460
Width: 1000
Flags: W
LayerCount: 2
Fore
SplineSet
173 166 m 5
 122.55859375 163.76953125 14.2275390625 32.0751953125 70 -110 c 5
 76.84375 105.022460938 229.63671875 65.048828125 260 79 c 5
 173 166 l 5
260 79 m 5
 432 223 l 5
 154 405 l 5
 656 803 l 5
 844 803 l 5
 344 404 l 5
 609 230 l 5
 328 2 l 5
 260 79 l 5
EndSplineSet
EndChar

StartChar: uF01CD
Encoding: 983501 983501 461
Width: 1000
Flags: W
HStem: 0 21G<591 635.103>
LayerCount: 2
Fore
SplineSet
449 162 m 5
 398.55859375 159.76953125 290.227539062 28.0751953125 346 -114 c 5
 352.84375 101.022460938 505.63671875 61.048828125 536 75 c 5
 449 162 l 5
676 196 m 5
 458 383 l 5
 728 383 l 5
 307 802 l 5
 465 801 l 5
 994 291 l 5
 742 291 l 5
 846 195 l 5
 611 0 l 5
 536 75 l 5
 676 196 l 5
EndSplineSet
EndChar

StartChar: uF01CE
Encoding: 983502 983502 462
Width: 1000
Flags: W
HStem: 0 21G<460.5 500.037>
VStem: 346 137<405 698>
LayerCount: 2
Fore
SplineSet
312 167 m 5
 261.55859375 164.76953125 153.227539062 33.0751953125 209 -109 c 5
 215.84375 106.022460938 368.63671875 66.048828125 399 80 c 5
 312 167 l 5
399 80 m 5
 496 186 l 5
 346 401 l 5
 352 698 l 5
 484 801 l 5
 483 405 l 5
 659 187 l 5
 481 0 l 5
 399 80 l 5
EndSplineSet
EndChar

StartChar: uF01CF
Encoding: 983503 983503 463
Width: 1000
Flags: W
HStem: 0 21G<815.69 836.173>
VStem: 697 143<164.375 412> 705 131<129 376.625>
LayerCount: 2
Fore
SplineSet
618 216 m 5xa0
 567.55859375 213.76953125 459.227539062 82.0751953125 515 -60 c 5
 521.84375 155.022460938 674.63671875 115.048828125 705 129 c 5
 618 216 l 5xa0
705 129 m 5
 697 412 l 5
 148 802 l 5
 342 802 l 5
 840 462 l 5xc0
 836 0 l 5
 705 129 l 5
EndSplineSet
EndChar

StartChar: uF01D0
Encoding: 983504 983504 464
Width: 1000
Flags: W
HStem: 0 21G<479.51 512.192>
LayerCount: 2
Fore
SplineSet
329 189 m 5
 278.55859375 186.76953125 170.227539062 55.0751953125 226 -87 c 5
 232.84375 128.022460938 385.63671875 88.048828125 416 102 c 5
 329 189 l 5
664 403 m 5
 844 406 l 5
 495 0 l 5
 416 102 l 5
 664 403 l 5
664 403 m 5
 292 802 l 5
 151 802 l 5
 505 403 l 5
 664 403 l 5
EndSplineSet
EndChar

StartChar: uF01D1
Encoding: 983505 983505 465
Width: 1000
Flags: W
LayerCount: 2
Fore
SplineSet
475 210 m 5
 424.55859375 207.76953125 316.227539062 76.0751953125 372 -66 c 5
 378.84375 149.022460938 531.63671875 109.048828125 562 123 c 5
 475 210 l 5
678 0 m 5
 678 399 l 5
 562 399 l 5
 562 123 l 5
 678 0 l 5
839 399 m 5
 474 798 l 5
 336 798 l 5
 678 399 l 5
 839 399 l 5
EndSplineSet
EndChar

StartChar: uF01D2
Encoding: 983506 983506 466
Width: 1000
Flags: W
LayerCount: 2
Fore
SplineSet
645 210 m 5
 594.55859375 207.76953125 486.227539062 76.0751953125 542 -66 c 5
 548.84375 149.022460938 701.63671875 109.048828125 732 123 c 5
 645 210 l 5
840 477 m 5
 732 399 l 5
 732 123 l 5
 840 0 l 5
 840 477 l 5
732 399 m 5
 505 798 l 5
 391 798 l 5
 653 349 l 5
 732 399 l 5
EndSplineSet
EndChar

StartChar: uF01D3
Encoding: 983507 983507 467
Width: 1000
Flags: W
HStem: 1 21G<575.759 615.986> 305 99<537 680>
VStem: 417 120<404 701>
LayerCount: 2
Fore
SplineSet
431 175 m 5
 380.55859375 172.76953125 272.227539062 41.0751953125 328 -101 c 5
 334.84375 114.022460938 487.63671875 74.048828125 518 88 c 5
 431 175 l 5
518 88 m 5
 764 310 l 5
 417 305 l 5
 417 443 420 601 420 803 c 5
 538 701 l 5
 537 404 l 5
 680 404 l 5
 847 222 l 5
 593 1 l 5
 518 88 l 5
EndSplineSet
EndChar

StartChar: uF01D4
Encoding: 983508 983508 468
Width: 1000
Flags: W
HStem: 1 21G<468.636 507.688> 294 105<394 578>
VStem: 153 129<504 702>
LayerCount: 2
Fore
SplineSet
309 176 m 5
 258.55859375 173.76953125 150.227539062 42.0751953125 206 -100 c 5
 212.84375 115.022460938 365.63671875 75.048828125 396 89 c 5
 309 176 l 5
396 89 m 5
 578 294 l 5
 394 290 l 5
 153 504 l 5
 151 801 l 5
 276 702 l 5
 282 402 l 5
 842 399 l 5
 490 1 l 5
 396 89 l 5
EndSplineSet
EndChar

StartChar: uF01D5
Encoding: 983509 983509 469
Width: 1000
Flags: W
HStem: 1 21G<313.5 357.473> 297 105<346 510>
LayerCount: 2
Fore
SplineSet
171 168 m 5
 120.55859375 165.76953125 12.2275390625 34.0751953125 68 -108 c 5
 74.84375 107.022460938 227.63671875 67.048828125 258 81 c 5
 171 168 l 5
258 81 m 5
 510 298 l 5
 346 297 l 5
 162 483 l 5
 505 801 l 5
 686 801 l 5
 251 402 l 5
 844 403 l 5
 332 1 l 5
 258 81 l 5
EndSplineSet
EndChar

StartChar: uF01D6
Encoding: 983510 983510 470
Width: 1000
Flags: W
HStem: 290 114<464 596>
VStem: 246 115<514 671>
LayerCount: 2
Fore
SplineSet
427 169 m 5
 376.55859375 166.76953125 268.227539062 35.0751953125 324 -107 c 5
 330.84375 108.022460938 483.63671875 68.048828125 514 82 c 5
 427 169 l 5
514 82 m 5
 741 293 l 5
 464 290 l 5
 246 514 l 5
 246 803 l 5
 362 671 l 5
 361 404 l 5
 596 404 l 5
 844 229 l 5
 590 2 l 5
 514 82 l 5
EndSplineSet
EndChar

StartChar: uF01D7
Encoding: 983511 983511 471
Width: 1000
Flags: W
LayerCount: 2
Fore
SplineSet
187 179 m 5
 136.55859375 176.76953125 28.2275390625 45.0751953125 84 -97 c 5
 90.84375 118.022460938 243.63671875 78.048828125 274 92 c 5
 187 179 l 5
274 92 m 5
 342 9 l 5
 844 411 l 5
 285 411 l 5
 168 302 l 5
 520 306 l 5
 274 92 l 5
284 701 m 5
 285 411 l 5
 406 508 l 5
 403 803 l 5
 284 701 l 5
EndSplineSet
EndChar

StartChar: uF01D8
Encoding: 983512 983512 472
Width: 1000
Flags: W
HStem: 0 21G<278.421 318.128> 319 105<439 553>
LayerCount: 2
Fore
SplineSet
131 163 m 5
 80.55859375 160.76953125 -27.7724609375 29.0751953125 28 -113 c 5
 34.84375 102.022460938 187.63671875 62.048828125 218 76 c 5
 131 163 l 5
352 238 m 5
 151 422 l 5
 553 424 l 5
 723 803 l 5
 844 803 l 5
 631 319 l 5
 439 319 l 5
 513 235 l 5
 300 0 l 5
 218 76 l 5
 352 238 l 5
EndSplineSet
EndChar

StartChar: uF01D9
Encoding: 983513 983513 473
Width: 1000
Flags: W
HStem: 0 21G<572.678 611.667> 291 115<505 675> 299 107<505 675>
LayerCount: 2
Fore
SplineSet
431 174 m 5x80
 380.55859375 171.76953125 272.227539062 40.0751953125 328 -102 c 5
 334.84375 113.022460938 487.63671875 73.048828125 518 87 c 5
 431 174 l 5x80
518 87 m 5
 756 299 l 5xa0
 430 291 l 5
 244 805 l 5
 354 805 l 5
 505 406 l 5
 675 406 l 5xc0
 844 225 l 5
 589 0 l 5
 518 87 l 5
EndSplineSet
EndChar

StartChar: uF01DA
Encoding: 983514 983514 474
Width: 1000
Flags: W
LayerCount: 2
Fore
SplineSet
162 169 m 5
 111.55859375 166.76953125 3.2275390625 35.0751953125 59 -107 c 5
 65.84375 108.022460938 218.63671875 68.048828125 249 82 c 5
 162 169 l 5
335 0 m 5
 680 446 l 5
 367 449 l 5
 265 334 l 5
 436 331 l 5
 249 82 l 5
 335 0 l 5
268 800 m 5
 151 686 l 5
 151 203 l 5
 265 334 l 5
 268 800 l 5
EndSplineSet
EndChar

StartChar: uF01DB
Encoding: 983515 983515 475
Width: 1000
Flags: W
LayerCount: 2
Fore
SplineSet
349 169 m 5
 298.55859375 166.76953125 190.227539062 35.0751953125 246 -107 c 5
 252.84375 108.022460938 405.63671875 68.048828125 436 82 c 5
 349 169 l 5
436 82 m 5
 510 2 l 5
 715 186 l 5
 490 404 l 5
 305 405 l 5
 535 180 l 5
 436 82 l 5
504 604 m 5
 686 803 l 5
 521 803 l 5
 355 600 l 5
 490 404 l 5
 629 405 l 5
 504 604 l 5
EndSplineSet
EndChar

StartChar: uF01DC
Encoding: 983516 983516 476
Width: 1000
Flags: W
LayerCount: 2
Fore
SplineSet
463 170 m 5
 412.55859375 167.76953125 304.227539062 36.0751953125 360 -106 c 5
 366.84375 109.022460938 519.63671875 69.048828125 550 83 c 5
 463 170 l 5
635 0 m 5
 840 204 l 5
 621 402 l 5
 460 403 l 5
 660 199 l 5
 550 83 l 5
 635 0 l 5
807 801 m 5
 647 799 l 5
 306 401 l 5
 460 403 l 5
 807 801 l 5
EndSplineSet
EndChar

StartChar: uF01DD
Encoding: 983517 983517 477
Width: 1000
Flags: W
LayerCount: 2
Fore
SplineSet
468 176 m 5
 417.55859375 173.76953125 309.227539062 42.0751953125 365 -100 c 5
 371.84375 115.022460938 524.63671875 75.048828125 555 89 c 5
 468 176 l 5
555 89 m 5
 641 2 l 5
 836 206 l 5
 657 403 l 5
 496 401 l 5
 666 201 l 5
 555 89 l 5
803 400 m 5
 456 801 l 5
 316 801 l 5
 657 403 l 5
 803 400 l 5
EndSplineSet
EndChar

StartChar: uF01DE
Encoding: 983518 983518 478
Width: 1000
Flags: W
LayerCount: 2
Fore
SplineSet
309 181 m 5
 258.55859375 178.76953125 150.227539062 47.0751953125 206 -95 c 5
 212.84375 120.022460938 365.63671875 80.048828125 396 94 c 5
 309 181 l 5
396 94 m 5
 490 4 l 5
 685 218 l 5
 506 404 l 5
 345 403 l 5
 515 215 l 5
 396 94 l 5
502 801 m 5
 506 404 l 5
 627 404 l 5
 625 708 l 5
 502 801 l 5
EndSplineSet
EndChar

StartChar: uF01DF
Encoding: 983519 983519 479
Width: 1000
Flags: W
LayerCount: 2
Fore
SplineSet
160 176 m 5
 109.55859375 173.76953125 1.2275390625 42.0751953125 57 -100 c 5
 63.84375 115.022460938 216.63671875 75.048828125 247 89 c 5
 160 176 l 5
329 2 m 5
 534 199 l 5
 346 399 l 5
 345 397 l 5
 184 401 l 5
 354 194 l 5
 247 89 l 5
 329 2 l 5
346 399 m 5
 346 400 l 5
 345 400 l 5
 346 399 l 5
535 801 m 5
 346 400 l 5
 489 400 l 5
 685 801 l 5
 535 801 l 5
EndSplineSet
EndChar

StartChar: uF01E0
Encoding: 983520 983520 480
Width: 1000
Flags: W
HStem: 0 21G<623.848 844>
LayerCount: 2
Fore
SplineSet
844 802 m 1
 349 399 l 1
 844 0 l 1
 649 0 l 1
 151 396 l 1
 646 802 l 1
 844 802 l 1
844 802 m 5
 736 944 l 5
 864 944 l 5
 971 799 l 5
 844 802 l 5
EndSplineSet
EndChar

StartChar: uF01E1
Encoding: 983521 983521 481
Width: 1000
Flags: W
HStem: 399 109<486 725>
VStem: 721 123<105 399>
LayerCount: 2
Fore
SplineSet
844 802 m 5
 736 944 l 5
 864 944 l 5
 971 799 l 5
 844 802 l 5
842 803 m 1
 486 508 l 1
 844 513 l 1
 844 105 l 1
 721 5 l 1
 725 399 l 1
 157 399 l 1
 659 804 l 1
 842 803 l 1
EndSplineSet
EndChar

StartChar: uF01E2
Encoding: 983522 983522 482
Width: 1000
Flags: W
HStem: 0 21G<175.253 332> 399 105<470 578>
LayerCount: 2
Fore
SplineSet
844 802 m 5
 736 944 l 5
 864 944 l 5
 971 799 l 5
 844 802 l 5
844 803 m 1
 470 504 l 1
 844 507 l 1
 332 8 l 1
 154 0 l 1
 578 399 l 1
 158 399 l 1
 650 801 l 1
 844 803 l 1
EndSplineSet
EndChar

StartChar: uF01E3
Encoding: 983523 983523 483
Width: 1000
Flags: W
HStem: 0 21G<693.424 844> 399 104<358 493>
LayerCount: 2
Fore
SplineSet
570 804 m 5
 462 946 l 5
 590 946 l 5
 697 801 l 5
 570 804 l 5
570 804 m 1
 358 503 l 1
 581 504 l 1
 844 0 l 1
 704 0 l 1
 493 399 l 1
 151 399 l 1
 440 804 l 1
 570 804 l 1
EndSplineSet
EndChar

StartChar: uF01E4
Encoding: 983524 983524 484
Width: 1000
Flags: W
HStem: 0 21G<154 367.226>
LayerCount: 2
Fore
SplineSet
844 802 m 5
 736 944 l 5
 864 944 l 5
 971 799 l 5
 844 802 l 5
844 803 m 1
 566 580 l 1
 844 398 l 1
 342 0 l 1
 154 0 l 1
 654 399 l 1
 389 573 l 1
 670 801 l 1
 844 803 l 1
EndSplineSet
EndChar

StartChar: uF01E5
Encoding: 983525 983525 485
Width: 1000
Flags: W
HStem: 0 21G<836 973.905>
LayerCount: 2
Fore
SplineSet
844 802 m 5
 736 944 l 5
 864 944 l 5
 971 799 l 5
 844 802 l 5
625 606 m 1
 843 419 l 1
 573 419 l 1
 994 0 l 1
 836 1 l 1
 307 511 l 1
 559 511 l 1
 455 607 l 1
 690 802 l 1
 847 801 l 1
 625 606 l 1
EndSplineSet
EndChar

StartChar: uF01E6
Encoding: 983526 983526 486
Width: 1000
Flags: W
HStem: -1 21G<498.051 523.631>
VStem: 498 132<102 395>
LayerCount: 2
Fore
SplineSet
659 801 m 5
 551 943 l 5
 679 943 l 5
 786 798 l 5
 659 801 l 5
659 801 m 1
 486 614 l 1
 636 399 l 1
 630 102 l 1
 498 -1 l 1
 499 395 l 1
 323 613 l 1
 501 800 l 1
 659 801 l 1
EndSplineSet
EndChar

StartChar: uF01E7
Encoding: 983527 983527 487
Width: 1000
Flags: W
HStem: 0 21G<616.706 840>
VStem: 148 143<390 750.5> 152 131<441.5 802>
LayerCount: 2
Fore
SplineSet
283 802 m 5xa0
 175 944 l 5
 303 944 l 5
 410 799 l 5
 283 802 l 5xa0
283 802 m 1
 291 390 l 1
 840 0 l 1
 646 0 l 1
 148 340 l 1xc0
 152 802 l 1
 283 802 l 1
EndSplineSet
EndChar

StartChar: uF01E8
Encoding: 983528 983528 488
Width: 1000
Flags: W
LayerCount: 2
Fore
SplineSet
659 801 m 5
 551 943 l 5
 679 943 l 5
 786 798 l 5
 659 801 l 5
331 399 m 1
 151 396 l 1
 500 802 l 1
 659 801 l 1
 331 399 l 1
331 399 m 1
 703 0 l 1
 844 0 l 1
 490 399 l 1
 331 399 l 1
EndSplineSet
EndChar

StartChar: uF01E9
Encoding: 983529 983529 489
Width: 1000
Flags: W
HStem: 799 142<505 633>
LayerCount: 2
Fore
SplineSet
613 799 m 5
 505 941 l 5
 633 941 l 5
 740 796 l 5
 613 799 l 5
497 798 m 1
 497 399 l 1
 613 399 l 1
 613 799 l 1
 497 798 l 1
336 399 m 1
 701 0 l 1
 839 0 l 1
 497 399 l 1
 336 399 l 1
EndSplineSet
EndChar

StartChar: uF01EA
Encoding: 983530 983530 490
Width: 1000
Flags: W
HStem: 799 142<391 519>
LayerCount: 2
Fore
SplineSet
499 799 m 1
 391 941 l 1
 519 941 l 1
 626 796 l 1
 499 799 l 1
391 321 m 1
 499 399 l 1
 499 799 l 1
 391 798 l 1
 391 321 l 1
499 399 m 1
 726 0 l 1
 840 0 l 1
 578 449 l 1
 499 399 l 1
EndSplineSet
EndChar

StartChar: uF01EB
Encoding: 983531 983531 491
Width: 1000
Flags: W
HStem: 0 21G<820.863 844> 399 94<584 727>
VStem: 726 118<102 399>
LayerCount: 2
Fore
SplineSet
844 802 m 5
 736 944 l 5
 864 944 l 5
 971 799 l 5
 844 802 l 5
844 803 m 1
 500 493 l 1
 847 498 l 1
 847 360 844 202 844 0 c 1
 726 102 l 1
 727 399 l 1
 584 399 l 1
 417 581 l 1
 671 802 l 1
 844 803 l 1
EndSplineSet
EndChar

StartChar: uF01EC
Encoding: 983532 983532 492
Width: 1000
Flags: W
HStem: 0 21G<816.747 841.865> 402 105<415 599>
VStem: 717 125<99 297>
LayerCount: 2
Fore
SplineSet
676 801 m 5
 568 943 l 5
 696 943 l 5
 803 798 l 5
 676 801 l 5
676 801 m 1
 415 507 l 1
 599 511 l 1
 840 297 l 1
 842 0 l 1
 717 99 l 1
 711 399 l 1
 151 402 l 1
 503 800 l 1
 676 801 l 1
EndSplineSet
EndChar

StartChar: uF01ED
Encoding: 983533 983533 493
Width: 1000
Flags: W
HStem: 1 21G<316 518.572> 400 104<492 656>
LayerCount: 2
Fore
SplineSet
844 802 m 5
 736 944 l 5
 864 944 l 5
 971 799 l 5
 844 802 l 5
844 801 m 1
 492 504 l 1
 656 505 l 1
 840 319 l 1
 497 1 l 1
 316 1 l 1
 751 400 l 1
 158 399 l 1
 670 801 l 1
 844 801 l 1
EndSplineSet
EndChar

StartChar: uF01EE
Encoding: 983534 983534 494
Width: 1000
Flags: W
HStem: 0 21G<826.424 844> 399 114<494 626>
VStem: 728 116<132 289>
LayerCount: 2
Fore
SplineSet
666 803 m 5
 558 945 l 5
 686 945 l 5
 793 800 l 5
 666 803 l 5
666 803 m 1
 349 510 l 1
 626 513 l 1
 844 289 l 1
 844 0 l 1
 728 132 l 1
 729 399 l 1
 494 399 l 1
 246 574 l 1
 500 801 l 1
 666 803 l 1
EndSplineSet
EndChar

StartChar: uF01EF
Encoding: 983535 983535 495
Width: 1000
Flags: W
HStem: 802 142<736 864>
LayerCount: 2
Fore
SplineSet
844 802 m 5
 736 944 l 5
 864 944 l 5
 971 799 l 5
 844 802 l 5
844 803 m 1
 670 801 l 1
 168 399 l 1
 727 399 l 1
 844 508 l 1
 492 504 l 1
 844 803 l 1
728 109 m 1
 727 399 l 1
 606 302 l 1
 609 7 l 1
 728 109 l 1
EndSplineSet
EndChar

StartChar: uF01F0
Encoding: 983536 983536 496
Width: 1000
Flags: W
HStem: 0 21G<151 280.971> 379 105<442 556>
LayerCount: 2
Fore
SplineSet
844 802 m 5
 736 944 l 5
 864 944 l 5
 971 799 l 5
 844 802 l 5
643 565 m 1
 844 381 l 1
 442 379 l 1
 272 0 l 1
 151 0 l 1
 364 484 l 1
 556 484 l 1
 482 568 l 1
 695 803 l 1
 844 803 l 1
 643 565 l 1
EndSplineSet
EndChar

StartChar: uF01F1
Encoding: 983537 983537 497
Width: 1000
Flags: W
HStem: 0 21G<726.431 844> 399 115<413 583> 399 107<413 583>
LayerCount: 2
Fore
SplineSet
667 804 m 5x80
 559 946 l 5
 687 946 l 5
 794 801 l 5
 667 804 l 5x80
667 804 m 1
 332 506 l 1xa0
 658 514 l 1
 844 0 l 1
 734 0 l 1
 583 399 l 1
 413 399 l 1xc0
 244 580 l 1
 499 805 l 1
 667 804 l 1
EndSplineSet
EndChar

StartChar: uF01F2
Encoding: 983538 983538 498
Width: 1000
Flags: W
HStem: 800 142<541 669>
LayerCount: 2
Fore
SplineSet
649 800 m 5
 541 942 l 5
 669 942 l 5
 776 797 l 5
 649 800 l 5
496 798 m 1
 151 352 l 1
 464 349 l 1
 566 464 l 1
 395 467 l 1
 649 800 l 1
 496 798 l 1
563 -2 m 1
 680 112 l 1
 680 595 l 1
 566 464 l 1
 563 -2 l 1
EndSplineSet
EndChar

StartChar: uF01F3
Encoding: 983539 983539 499
Width: 1000
Flags: W
HStem: 803 142<576 704>
LayerCount: 2
Fore
SplineSet
684 803 m 5
 576 945 l 5
 704 945 l 5
 811 800 l 5
 684 803 l 5
684 803 m 1
 510 801 l 1
 305 617 l 1
 530 399 l 1
 715 398 l 1
 485 623 l 1
 684 803 l 1
516 199 m 1
 334 0 l 1
 499 0 l 1
 665 203 l 1
 530 399 l 1
 391 398 l 1
 516 199 l 1
EndSplineSet
EndChar

StartChar: uF01F4
Encoding: 983540 983540 500
Width: 1000
Flags: W
HStem: 801 142<577 705>
LayerCount: 2
Fore
SplineSet
685 801 m 5
 577 943 l 5
 705 943 l 5
 812 798 l 5
 685 801 l 5
511 799 m 1
 306 595 l 1
 525 397 l 1
 686 396 l 1
 486 600 l 1
 685 801 l 1
 511 799 l 1
339 -2 m 1
 499 0 l 1
 840 398 l 1
 686 396 l 1
 339 -2 l 1
EndSplineSet
EndChar

StartChar: uF01F5
Encoding: 983541 983541 501
Width: 1000
Flags: W
HStem: 801 142<577 705>
LayerCount: 2
Fore
SplineSet
685 801 m 5
 577 943 l 5
 705 943 l 5
 812 798 l 5
 685 801 l 5
685 801 m 1
 511 799 l 1
 316 595 l 1
 495 398 l 1
 656 400 l 1
 486 600 l 1
 685 801 l 1
349 401 m 1
 696 0 l 1
 836 0 l 1
 495 398 l 1
 349 401 l 1
EndSplineSet
EndChar

StartChar: uF01F6
Encoding: 983542 983542 502
Width: 1000
Flags: W
HStem: 801 142<577 705>
LayerCount: 2
Fore
SplineSet
685 801 m 5
 577 943 l 5
 705 943 l 5
 812 798 l 5
 685 801 l 5
685 801 m 1
 511 799 l 1
 316 585 l 1
 495 399 l 1
 656 400 l 1
 486 588 l 1
 685 801 l 1
499 2 m 1
 495 399 l 1
 374 399 l 1
 376 95 l 1
 499 2 l 1
EndSplineSet
EndChar

StartChar: uF01F7
Encoding: 983543 983543 503
Width: 1000
Flags: W
HStem: 801 142<577 705>
LayerCount: 2
Fore
SplineSet
685 801 m 5
 577 943 l 5
 705 943 l 5
 812 798 l 5
 685 801 l 5
511 799 m 1
 306 602 l 1
 494 402 l 1
 495 404 l 1
 656 400 l 1
 486 607 l 1
 685 801 l 1
 511 799 l 1
494 402 m 1
 494 401 l 1
 495 401 l 1
 494 402 l 1
305 0 m 1
 494 401 l 1
 351 401 l 1
 155 0 l 1
 305 0 l 1
EndSplineSet
EndChar

StartChar: uF01F8
Encoding: 983544 983544 504
Width: 1000
Flags: W
LayerCount: 2
Fore
SplineSet
151 802 m 5
 646 399 l 5
 151 0 l 5
 346 0 l 5
 844 396 l 5
 349 802 l 5
 151 802 l 5
151 802 m 5
 259 944 l 5
 131 944 l 5
 24 799 l 5
 151 802 l 5
EndSplineSet
EndChar

StartChar: uF01F9
Encoding: 983545 983545 505
Width: 1000
Flags: W
LayerCount: 2
Fore
SplineSet
157 802 m 5
 265 944 l 5
 137 944 l 5
 30 799 l 5
 157 802 l 5
159 803 m 5
 515 508 l 5
 157 513 l 5
 157 105 l 5
 280 5 l 5
 276 399 l 5
 844 399 l 5
 342 804 l 5
 159 803 l 5
EndSplineSet
EndChar

StartChar: uF01FA
Encoding: 983546 983546 506
Width: 1000
Flags: W
LayerCount: 2
Fore
SplineSet
154 802 m 5
 262 944 l 5
 134 944 l 5
 27 799 l 5
 154 802 l 5
154 803 m 5
 528 504 l 5
 154 507 l 5
 666 8 l 5
 844 0 l 5
 420 399 l 5
 840 399 l 5
 348 801 l 5
 154 803 l 5
EndSplineSet
EndChar

StartChar: uF01FB
Encoding: 983547 983547 507
Width: 1000
Flags: W
LayerCount: 2
Fore
SplineSet
425 804 m 5
 533 946 l 5
 405 946 l 5
 298 801 l 5
 425 804 l 5
425 804 m 5
 637 503 l 5
 414 504 l 5
 151 0 l 5
 291 0 l 5
 502 399 l 5
 844 399 l 5
 555 804 l 5
 425 804 l 5
EndSplineSet
EndChar

StartChar: uF01FC
Encoding: 983548 983548 508
Width: 1000
Flags: W
LayerCount: 2
Fore
SplineSet
154 802 m 5
 262 944 l 5
 134 944 l 5
 27 799 l 5
 154 802 l 5
154 803 m 5
 432 580 l 5
 154 398 l 5
 656 0 l 5
 844 0 l 5
 344 399 l 5
 609 573 l 5
 328 801 l 5
 154 803 l 5
EndSplineSet
EndChar

StartChar: uF01FD
Encoding: 983549 983549 509
Width: 1000
Flags: W
LayerCount: 2
Fore
SplineSet
457 802 m 5
 565 944 l 5
 437 944 l 5
 330 799 l 5
 457 802 l 5
676 606 m 5
 458 419 l 5
 728 419 l 5
 307 0 l 5
 465 1 l 5
 994 511 l 5
 742 511 l 5
 846 607 l 5
 611 802 l 5
 454 801 l 5
 676 606 l 5
EndSplineSet
EndChar

StartChar: uF01FE
Encoding: 983550 983550 510
Width: 1000
Flags: W
LayerCount: 2
Fore
SplineSet
323 801 m 5
 431 943 l 5
 303 943 l 5
 196 798 l 5
 323 801 l 5
323 801 m 5
 496 614 l 5
 346 399 l 5
 352 102 l 5
 484 -1 l 5
 483 395 l 5
 659 613 l 5
 481 800 l 5
 323 801 l 5
EndSplineSet
EndChar

StartChar: uF01FF
Encoding: 983551 983551 511
Width: 1000
Flags: W
VStem: 697 143<390 750.5> 705 131<441.5 802>
LayerCount: 2
Fore
SplineSet
705 802 m 5x40
 813 944 l 5
 685 944 l 5
 578 799 l 5
 705 802 l 5x40
705 802 m 5
 697 390 l 5
 148 0 l 5
 342 0 l 5
 840 340 l 5x80
 836 802 l 5
 705 802 l 5
EndSplineSet
EndChar

StartChar: uF0200
Encoding: 983552 983552 512
Width: 1000
Flags: W
HStem: 0 21G<151 310.647>
LayerCount: 2
Fore
SplineSet
336 801 m 5
 444 943 l 5
 316 943 l 5
 209 798 l 5
 336 801 l 5
664 399 m 5
 844 396 l 5
 495 802 l 5
 336 801 l 5
 664 399 l 5
664 399 m 5
 292 0 l 5
 151 0 l 5
 505 399 l 5
 664 399 l 5
EndSplineSet
EndChar

StartChar: uF0201
Encoding: 983553 983553 513
Width: 1000
Flags: W
HStem: 0 21G<336 492.296>
VStem: 562 116<399 798>
LayerCount: 2
Fore
SplineSet
562 799 m 5
 670 941 l 5
 542 941 l 5
 435 796 l 5
 562 799 l 5
678 798 m 5
 678 399 l 5
 562 399 l 5
 562 799 l 5
 678 798 l 5
839 399 m 5
 474 0 l 5
 336 0 l 5
 678 399 l 5
 839 399 l 5
EndSplineSet
EndChar

StartChar: uF0202
Encoding: 983554 983554 514
Width: 1000
Flags: W
HStem: 0 21G<391 516.378>
VStem: 732 108<399 798>
LayerCount: 2
Fore
SplineSet
732 799 m 5
 840 941 l 5
 712 941 l 5
 605 796 l 5
 732 799 l 5
840 321 m 5
 732 399 l 5
 732 799 l 5
 840 798 l 5
 840 321 l 5
732 399 m 5
 505 0 l 5
 391 0 l 5
 653 449 l 5
 732 399 l 5
EndSplineSet
EndChar

StartChar: uF0203
Encoding: 983555 983555 515
Width: 1000
Flags: W
LayerCount: 2
Fore
SplineSet
420 802 m 5
 528 944 l 5
 400 944 l 5
 293 799 l 5
 420 802 l 5
420 803 m 5
 764 493 l 5
 417 498 l 5
 417 360 420 202 420 0 c 5
 538 102 l 5
 537 399 l 5
 680 399 l 5
 847 581 l 5
 593 802 l 5
 420 803 l 5
EndSplineSet
EndChar

StartChar: uF0204
Encoding: 983556 983556 516
Width: 1000
Flags: W
LayerCount: 2
Fore
SplineSet
317 801 m 5
 425 943 l 5
 297 943 l 5
 190 798 l 5
 317 801 l 5
317 801 m 5
 578 507 l 5
 394 511 l 5
 153 297 l 5
 151 0 l 5
 276 99 l 5
 282 399 l 5
 842 402 l 5
 490 800 l 5
 317 801 l 5
EndSplineSet
EndChar

StartChar: uF0205
Encoding: 983557 983557 517
Width: 1000
Flags: W
LayerCount: 2
Fore
SplineSet
158 802 m 5
 266 944 l 5
 138 944 l 5
 31 799 l 5
 158 802 l 5
158 801 m 5
 510 504 l 5
 346 505 l 5
 162 319 l 5
 505 1 l 5
 686 1 l 5
 251 400 l 5
 844 399 l 5
 332 801 l 5
 158 801 l 5
EndSplineSet
EndChar

StartChar: uF0206
Encoding: 983558 983558 518
Width: 1000
Flags: W
LayerCount: 2
Fore
SplineSet
424 803 m 5
 532 945 l 5
 404 945 l 5
 297 800 l 5
 424 803 l 5
424 803 m 5
 741 510 l 5
 464 513 l 5
 246 289 l 5
 246 0 l 5
 362 132 l 5
 361 399 l 5
 596 399 l 5
 844 574 l 5
 590 801 l 5
 424 803 l 5
EndSplineSet
EndChar

StartChar: uF0207
Encoding: 983559 983559 519
Width: 1000
Flags: W
HStem: 399 109<285 520>
VStem: 284 119<109 302>
LayerCount: 2
Fore
SplineSet
168 802 m 5
 276 944 l 5
 148 944 l 5
 41 799 l 5
 168 802 l 5
168 803 m 5
 342 801 l 5
 844 399 l 5
 285 399 l 5
 168 508 l 5
 520 504 l 5
 168 803 l 5
284 109 m 5
 285 399 l 5
 406 302 l 5
 403 7 l 5
 284 109 l 5
EndSplineSet
EndChar

StartChar: uF0208
Encoding: 983560 983560 520
Width: 1000
Flags: W
LayerCount: 2
Fore
SplineSet
151 802 m 5
 259 944 l 5
 131 944 l 5
 24 799 l 5
 151 802 l 5
352 565 m 5
 151 381 l 5
 553 379 l 5
 723 0 l 5
 844 0 l 5
 631 484 l 5
 439 484 l 5
 513 568 l 5
 300 803 l 5
 151 803 l 5
 352 565 l 5
EndSplineSet
EndChar

StartChar: uF0209
Encoding: 983561 983561 521
Width: 1000
Flags: W
HStem: 399 115<505 675> 399 107<505 675>
LayerCount: 2
Fore
SplineSet
421 804 m 5x00
 529 946 l 5
 401 946 l 5
 294 801 l 5
 421 804 l 5x00
421 804 m 5
 756 506 l 5x40
 430 514 l 5
 244 0 l 5
 354 0 l 5
 505 399 l 5
 675 399 l 5x80
 844 580 l 5
 589 805 l 5
 421 804 l 5
EndSplineSet
EndChar

StartChar: uF020A
Encoding: 983562 983562 522
Width: 1000
Flags: W
HStem: 349 118<367 436>
VStem: 151 117<112 464>
LayerCount: 2
Fore
SplineSet
182 800 m 5
 290 942 l 5
 162 942 l 5
 55 797 l 5
 182 800 l 5
335 798 m 5
 680 352 l 5
 367 349 l 5
 265 464 l 5
 436 467 l 5
 182 800 l 5
 335 798 l 5
268 -2 m 5
 151 112 l 5
 151 595 l 5
 265 464 l 5
 268 -2 l 5
EndSplineSet
EndChar

StartChar: uF020B
Encoding: 983563 983563 523
Width: 1000
Flags: W
HStem: 0 21G<504.645 686>
LayerCount: 2
Fore
SplineSet
336 803 m 5
 444 945 l 5
 316 945 l 5
 209 800 l 5
 336 803 l 5
336 803 m 5
 510 801 l 5
 715 617 l 5
 490 399 l 5
 305 398 l 5
 535 623 l 5
 336 803 l 5
504 199 m 5
 686 0 l 5
 521 0 l 5
 355 203 l 5
 490 399 l 5
 629 398 l 5
 504 199 l 5
EndSplineSet
EndChar

StartChar: uF020C
Encoding: 983564 983564 524
Width: 1000
Flags: W
LayerCount: 2
Fore
SplineSet
461 801 m 5
 569 943 l 5
 441 943 l 5
 334 798 l 5
 461 801 l 5
635 799 m 5
 840 595 l 5
 621 397 l 5
 460 396 l 5
 660 600 l 5
 461 801 l 5
 635 799 l 5
807 -2 m 5
 647 0 l 5
 306 398 l 5
 460 396 l 5
 807 -2 l 5
EndSplineSet
EndChar

StartChar: uF020D
Encoding: 983565 983565 525
Width: 1000
Flags: W
HStem: 0 21G<316 473.307>
LayerCount: 2
Fore
SplineSet
467 801 m 5
 575 943 l 5
 447 943 l 5
 340 798 l 5
 467 801 l 5
467 801 m 5
 641 799 l 5
 836 595 l 5
 657 398 l 5
 496 400 l 5
 666 600 l 5
 467 801 l 5
803 401 m 5
 456 0 l 5
 316 0 l 5
 657 398 l 5
 803 401 l 5
EndSplineSet
EndChar

StartChar: uF020E
Encoding: 983566 983566 526
Width: 1000
Flags: W
VStem: 502 123<95 399>
LayerCount: 2
Fore
SplineSet
316 801 m 5
 424 943 l 5
 296 943 l 5
 189 798 l 5
 316 801 l 5
316 801 m 5
 490 799 l 5
 685 585 l 5
 506 399 l 5
 345 400 l 5
 515 588 l 5
 316 801 l 5
502 2 m 5
 506 399 l 5
 627 399 l 5
 625 95 l 5
 502 2 l 5
EndSplineSet
EndChar

StartChar: uF020F
Encoding: 983567 983567 527
Width: 1000
Flags: W
HStem: 0 21G<525.574 685>
LayerCount: 2
Fore
SplineSet
155 801 m 5
 263 943 l 5
 135 943 l 5
 28 798 l 5
 155 801 l 5
329 799 m 5
 534 602 l 5
 346 402 l 5
 345 404 l 5
 184 400 l 5
 354 607 l 5
 155 801 l 5
 329 799 l 5
346 402 m 5
 346 401 l 5
 345 401 l 5
 346 402 l 5
535 0 m 5
 346 401 l 5
 489 401 l 5
 685 0 l 5
 535 0 l 5
EndSplineSet
EndChar

StartChar: uF0210
Encoding: 983568 983568 528
Width: 1000
Flags: W
HStem: 0 21G<497 649.983>
LayerCount: 2
Fore
SplineSet
585 949 m 5
 477 807 l 5
 605 807 l 5
 712 952 l 5
 585 949 l 5
497 2 m 1
 236 236 l 1
 483 452 l 1
 650 452 l 1
 423 236 l 1
 671 0 l 1
 497 2 l 1
650 452 m 1
 821 617 l 1
 605 807 l 1
 793 806 l 1
 1000 623 l 1
 815 452 l 1
 650 452 l 1
EndSplineSet
EndChar

StartChar: uF0211
Encoding: 983569 983569 529
Width: 1000
Flags: W
LayerCount: 2
Fore
SplineSet
844 7 m 5
 736 -135 l 5
 864 -135 l 5
 971 10 l 5
 844 7 l 5
842 6 m 5
 486 301 l 5
 844 296 l 5
 844 704 l 5
 721 804 l 5
 725 410 l 5
 157 410 l 5
 659 5 l 5
 842 6 l 5
EndSplineSet
EndChar

StartChar: uF0212
Encoding: 983570 983570 530
Width: 1000
Flags: W
LayerCount: 2
Fore
SplineSet
844 1 m 5
 736 -141 l 5
 864 -141 l 5
 971 4 l 5
 844 1 l 5
844 0 m 5
 470 299 l 5
 844 296 l 5
 332 795 l 5
 154 803 l 5
 578 404 l 5
 158 404 l 5
 650 2 l 5
 844 0 l 5
EndSplineSet
EndChar

StartChar: uF0213
Encoding: 983571 983571 531
Width: 1000
Flags: W
LayerCount: 2
Fore
SplineSet
570 0 m 5
 462 -142 l 5
 590 -142 l 5
 697 3 l 5
 570 0 l 5
570 0 m 5
 358 301 l 5
 581 300 l 5
 844 804 l 5
 704 804 l 5
 493 405 l 5
 151 405 l 5
 440 0 l 5
 570 0 l 5
EndSplineSet
EndChar

StartChar: uF0214
Encoding: 983572 983572 532
Width: 1000
Flags: W
LayerCount: 2
Fore
SplineSet
844 1 m 5
 736 -141 l 5
 864 -141 l 5
 971 4 l 5
 844 1 l 5
844 0 m 5
 566 223 l 5
 844 405 l 5
 342 803 l 5
 154 803 l 5
 654 404 l 5
 389 230 l 5
 670 2 l 5
 844 0 l 5
EndSplineSet
EndChar

StartChar: uF0215
Encoding: 983573 983573 533
Width: 1000
Flags: W
LayerCount: 2
Fore
SplineSet
844 0 m 5
 736 -142 l 5
 864 -142 l 5
 971 3 l 5
 844 0 l 5
625 196 m 5
 843 383 l 5
 573 383 l 5
 994 802 l 5
 836 801 l 5
 307 291 l 5
 559 291 l 5
 455 195 l 5
 690 0 l 5
 847 1 l 5
 625 196 l 5
EndSplineSet
EndChar

StartChar: uF0216
Encoding: 983574 983574 534
Width: 1000
Flags: W
LayerCount: 2
Fore
SplineSet
659 -1 m 5
 551 -143 l 5
 679 -143 l 5
 786 2 l 5
 659 -1 l 5
659 -1 m 5
 486 186 l 5
 636 401 l 5
 630 698 l 5
 498 801 l 5
 499 405 l 5
 323 187 l 5
 501 0 l 5
 659 -1 l 5
EndSplineSet
EndChar

StartChar: uF0217
Encoding: 983575 983575 535
Width: 1000
Flags: W
VStem: 148 143<51.5 412> 152 131<0 360.5>
LayerCount: 2
Fore
SplineSet
283 0 m 5x40
 175 -142 l 5
 303 -142 l 5
 410 3 l 5
 283 0 l 5x40
283 0 m 5
 291 412 l 5
 840 802 l 5
 646 802 l 5
 148 462 l 5x80
 152 0 l 5
 283 0 l 5
EndSplineSet
EndChar

StartChar: uF0218
Encoding: 983576 983576 536
Width: 1000
Flags: W
LayerCount: 2
Fore
SplineSet
659 1 m 5
 551 -141 l 5
 679 -141 l 5
 786 4 l 5
 659 1 l 5
331 403 m 5
 151 406 l 5
 500 0 l 5
 659 1 l 5
 331 403 l 5
331 403 m 5
 703 802 l 5
 844 802 l 5
 490 403 l 5
 331 403 l 5
EndSplineSet
EndChar

StartChar: uF0219
Encoding: 983577 983577 537
Width: 1000
Flags: W
HStem: -1 21G<497 613>
VStem: 497 116<0 399>
LayerCount: 2
Fore
SplineSet
613 -1 m 5
 505 -143 l 5
 633 -143 l 5
 740 2 l 5
 613 -1 l 5
497 0 m 5
 497 399 l 5
 613 399 l 5
 613 -1 l 5
 497 0 l 5
336 399 m 5
 701 798 l 5
 839 798 l 5
 497 399 l 5
 336 399 l 5
EndSplineSet
EndChar

StartChar: uF021A
Encoding: 983578 983578 538
Width: 1000
Flags: W
HStem: -1 21G<391 499>
VStem: 391 108<0 399>
LayerCount: 2
Fore
SplineSet
499 -1 m 5
 391 -143 l 5
 519 -143 l 5
 626 2 l 5
 499 -1 l 5
391 477 m 5
 499 399 l 5
 499 -1 l 5
 391 0 l 5
 391 477 l 5
499 399 m 5
 726 798 l 5
 840 798 l 5
 578 349 l 5
 499 399 l 5
EndSplineSet
EndChar

StartChar: uF021B
Encoding: 983579 983579 539
Width: 1000
Flags: W
LayerCount: 2
Fore
SplineSet
844 1 m 5
 736 -141 l 5
 864 -141 l 5
 971 4 l 5
 844 1 l 5
844 0 m 5
 500 310 l 5
 847 305 l 5
 847 443 844 601 844 803 c 5
 726 701 l 5
 727 404 l 5
 584 404 l 5
 417 222 l 5
 671 1 l 5
 844 0 l 5
EndSplineSet
EndChar

StartChar: uF021C
Encoding: 983580 983580 540
Width: 1000
Flags: W
LayerCount: 2
Fore
SplineSet
676 0 m 5
 568 -142 l 5
 696 -142 l 5
 803 3 l 5
 676 0 l 5
676 0 m 5
 415 294 l 5
 599 290 l 5
 840 504 l 5
 842 801 l 5
 717 702 l 5
 711 402 l 5
 151 399 l 5
 503 1 l 5
 676 0 l 5
EndSplineSet
EndChar

StartChar: uF021D
Encoding: 983581 983581 541
Width: 1000
Flags: W
LayerCount: 2
Fore
SplineSet
844 0 m 5
 736 -142 l 5
 864 -142 l 5
 971 3 l 5
 844 0 l 5
844 1 m 5
 492 298 l 5
 656 297 l 5
 840 483 l 5
 497 801 l 5
 316 801 l 5
 751 402 l 5
 158 403 l 5
 670 1 l 5
 844 1 l 5
EndSplineSet
EndChar

StartChar: uF021E
Encoding: 983582 983582 542
Width: 1000
Flags: W
LayerCount: 2
Fore
SplineSet
666 0 m 5
 558 -142 l 5
 686 -142 l 5
 793 3 l 5
 666 0 l 5
666 0 m 5
 349 293 l 5
 626 290 l 5
 844 514 l 5
 844 803 l 5
 728 671 l 5
 729 404 l 5
 494 404 l 5
 246 229 l 5
 500 2 l 5
 666 0 l 5
EndSplineSet
EndChar

StartChar: uF021F
Encoding: 983583 983583 543
Width: 1000
Flags: W
HStem: 306 105<492 727>
VStem: 606 121<508 701>
LayerCount: 2
Fore
SplineSet
844 8 m 5
 736 -134 l 5
 864 -134 l 5
 971 11 l 5
 844 8 l 5
844 7 m 5
 670 9 l 5
 168 411 l 5
 727 411 l 5
 844 302 l 5
 492 306 l 5
 844 7 l 5
728 701 m 5
 727 411 l 5
 606 508 l 5
 609 803 l 5
 728 701 l 5
EndSplineSet
EndChar

StartChar: uF0220
Encoding: 983584 983584 544
Width: 1000
Flags: W
LayerCount: 2
Fore
SplineSet
844 1 m 5
 736 -141 l 5
 864 -141 l 5
 971 4 l 5
 844 1 l 5
643 238 m 5
 844 422 l 5
 442 424 l 5
 272 803 l 5
 151 803 l 5
 364 319 l 5
 556 319 l 5
 482 235 l 5
 695 0 l 5
 844 0 l 5
 643 238 l 5
EndSplineSet
EndChar

StartChar: uF0221
Encoding: 983585 983585 545
Width: 1000
Flags: W
HStem: 291 115<413 583> 299 107<413 583>
LayerCount: 2
Fore
SplineSet
667 1 m 5x00
 559 -141 l 5
 687 -141 l 5
 794 4 l 5
 667 1 l 5x00
667 1 m 5
 332 299 l 5x40
 658 291 l 5
 844 805 l 5
 734 805 l 5
 583 406 l 5
 413 406 l 5x80
 244 225 l 5
 499 0 l 5
 667 1 l 5
EndSplineSet
EndChar

StartChar: uF0222
Encoding: 983586 983586 546
Width: 1000
Flags: W
HStem: 331 118<395 464>
VStem: 566 114<334 686>
LayerCount: 2
Fore
SplineSet
649 -2 m 5
 541 -144 l 5
 669 -144 l 5
 776 1 l 5
 649 -2 l 5
496 0 m 5
 151 446 l 5
 464 449 l 5
 566 334 l 5
 395 331 l 5
 649 -2 l 5
 496 0 l 5
563 800 m 5
 680 686 l 5
 680 203 l 5
 566 334 l 5
 563 800 l 5
EndSplineSet
EndChar

StartChar: uF0223
Encoding: 983587 983587 547
Width: 1000
Flags: W
HStem: 0 21G<510 661.889>
LayerCount: 2
Fore
SplineSet
684 0 m 5
 576 -142 l 5
 704 -142 l 5
 811 3 l 5
 684 0 l 5
684 0 m 5
 510 2 l 5
 305 186 l 5
 530 404 l 5
 715 405 l 5
 485 180 l 5
 684 0 l 5
516 604 m 5
 334 803 l 5
 499 803 l 5
 665 600 l 5
 530 404 l 5
 391 405 l 5
 516 604 l 5
EndSplineSet
EndChar

StartChar: uF0224
Encoding: 983588 983588 548
Width: 1000
Flags: W
LayerCount: 2
Fore
SplineSet
685 -2 m 5
 577 -144 l 5
 705 -144 l 5
 812 1 l 5
 685 -2 l 5
511 0 m 5
 306 204 l 5
 525 402 l 5
 686 403 l 5
 486 199 l 5
 685 -2 l 5
 511 0 l 5
339 801 m 5
 499 799 l 5
 840 401 l 5
 686 403 l 5
 339 801 l 5
EndSplineSet
EndChar

StartChar: uF0225
Encoding: 983589 983589 549
Width: 1000
Flags: W
HStem: 0 21G<511 665.199>
LayerCount: 2
Fore
SplineSet
685 0 m 5
 577 -142 l 5
 705 -142 l 5
 812 3 l 5
 685 0 l 5
685 0 m 5
 511 2 l 5
 316 206 l 5
 495 403 l 5
 656 401 l 5
 486 201 l 5
 685 0 l 5
349 400 m 5
 696 801 l 5
 836 801 l 5
 495 403 l 5
 349 400 l 5
EndSplineSet
EndChar

StartChar: uF0226
Encoding: 983590 983590 550
Width: 1000
Flags: W
VStem: 374 121<404 708>
LayerCount: 2
Fore
SplineSet
685 2 m 5
 577 -140 l 5
 705 -140 l 5
 812 5 l 5
 685 2 l 5
685 2 m 5
 511 4 l 5
 316 218 l 5
 495 404 l 5
 656 403 l 5
 486 215 l 5
 685 2 l 5
499 801 m 5
 495 404 l 5
 374 404 l 5
 376 708 l 5
 499 801 l 5
EndSplineSet
EndChar

StartChar: uF0227
Encoding: 983591 983591 551
Width: 1000
Flags: W
HStem: 0 21G<511 664.485>
LayerCount: 2
Fore
SplineSet
685 0 m 5
 577 -142 l 5
 705 -142 l 5
 812 3 l 5
 685 0 l 5
511 2 m 5
 306 199 l 5
 494 399 l 5
 495 397 l 5
 656 401 l 5
 486 194 l 5
 685 0 l 5
 511 2 l 5
494 399 m 5
 494 400 l 5
 495 400 l 5
 494 399 l 5
305 801 m 5
 494 400 l 5
 351 400 l 5
 155 801 l 5
 305 801 l 5
EndSplineSet
EndChar

StartChar: uF0228
Encoding: 983592 983592 552
Width: 1000
Flags: W
HStem: 0 21G<497 649.983>
LayerCount: 2
Fore
SplineSet
497 2 m 1
 236 236 l 1
 483 452 l 1
 650 452 l 1
 423 236 l 1
 671 0 l 1
 497 2 l 1
650 452 m 1
 821 617 l 1
 605 807 l 1
 793 806 l 1
 1000 623 l 1
 815 452 l 1
 650 452 l 1
-162 806 m 1
 -230 948 l 1
 -112 948 l 1
 -45 803 l 1
 -162 806 l 1
EndSplineSet
EndChar

StartChar: uF0229
Encoding: 983593 983593 553
Width: 1000
Flags: W
HStem: 296 114<276 515>
VStem: 157 119<410 704>
LayerCount: 2
Fore
SplineSet
157 7 m 5
 265 -135 l 5
 137 -135 l 5
 30 10 l 5
 157 7 l 5
159 6 m 5
 515 301 l 5
 157 296 l 5
 157 704 l 5
 280 804 l 5
 276 410 l 5
 844 410 l 5
 342 5 l 5
 159 6 l 5
EndSplineSet
EndChar

StartChar: uF022A
Encoding: 983594 983594 554
Width: 1000
Flags: W
HStem: 0 21G<179.017 348> 299 105<420 528>
LayerCount: 2
Fore
SplineSet
154 1 m 5
 262 -141 l 5
 134 -141 l 5
 27 4 l 5
 154 1 l 5
154 0 m 5
 528 299 l 5
 154 296 l 5
 666 795 l 5
 844 803 l 5
 420 404 l 5
 840 404 l 5
 348 2 l 5
 154 0 l 5
EndSplineSet
EndChar

StartChar: uF022B
Encoding: 983595 983595 555
Width: 1000
Flags: W
HStem: 0 21G<425 569.272> 300 105<502 637>
LayerCount: 2
Fore
SplineSet
425 0 m 5
 533 -142 l 5
 405 -142 l 5
 298 3 l 5
 425 0 l 5
425 0 m 5
 637 301 l 5
 414 300 l 5
 151 804 l 5
 291 804 l 5
 502 405 l 5
 844 405 l 5
 555 0 l 5
 425 0 l 5
EndSplineSet
EndChar

StartChar: uF022C
Encoding: 983596 983596 556
Width: 1000
Flags: W
HStem: 0 21G<178.933 328>
LayerCount: 2
Fore
SplineSet
154 1 m 5
 262 -141 l 5
 134 -141 l 5
 27 4 l 5
 154 1 l 5
154 0 m 5
 432 223 l 5
 154 405 l 5
 656 803 l 5
 844 803 l 5
 344 404 l 5
 609 230 l 5
 328 2 l 5
 154 0 l 5
EndSplineSet
EndChar

StartChar: uF022D
Encoding: 983597 983597 557
Width: 1000
Flags: W
HStem: 0 21G<454 635.103>
LayerCount: 2
Fore
SplineSet
457 0 m 5
 565 -142 l 5
 437 -142 l 5
 330 3 l 5
 457 0 l 5
676 196 m 5
 458 383 l 5
 728 383 l 5
 307 802 l 5
 465 801 l 5
 994 291 l 5
 742 291 l 5
 846 195 l 5
 611 0 l 5
 454 1 l 5
 676 196 l 5
EndSplineSet
EndChar

StartChar: uF022E
Encoding: 983598 983598 558
Width: 1000
Flags: W
HStem: -1 21G<341.503 481>
VStem: 346 137<405 698>
LayerCount: 2
Fore
SplineSet
323 -1 m 5
 431 -143 l 5
 303 -143 l 5
 196 2 l 5
 323 -1 l 5
323 -1 m 5
 496 186 l 5
 346 401 l 5
 352 698 l 5
 484 801 l 5
 483 405 l 5
 659 187 l 5
 481 0 l 5
 323 -1 l 5
EndSplineSet
EndChar

StartChar: uF022F
Encoding: 983599 983599 559
Width: 1000
Flags: W
HStem: 0 21G<704.612 836.173>
VStem: 697 143<51.5 412> 705 131<0 360.5>
LayerCount: 2
Fore
SplineSet
705 0 m 5xa0
 813 -142 l 5
 685 -142 l 5
 578 3 l 5
 705 0 l 5xa0
705 0 m 5
 697 412 l 5
 148 802 l 5
 342 802 l 5
 840 462 l 5xc0
 836 0 l 5
 705 0 l 5
EndSplineSet
EndChar

StartChar: uF0230
Encoding: 983600 983600 560
Width: 1000
Flags: W
HStem: 0 21G<336 512.192>
LayerCount: 2
Fore
SplineSet
336 1 m 5
 444 -141 l 5
 316 -141 l 5
 209 4 l 5
 336 1 l 5
664 403 m 5
 844 406 l 5
 495 0 l 5
 336 1 l 5
 664 403 l 5
664 403 m 5
 292 802 l 5
 151 802 l 5
 505 403 l 5
 664 403 l 5
EndSplineSet
EndChar

StartChar: uF0231
Encoding: 983601 983601 561
Width: 1000
Flags: W
LayerCount: 2
Fore
SplineSet
562 -1 m 5
 670 -143 l 5
 542 -143 l 5
 435 2 l 5
 562 -1 l 5
678 0 m 5
 678 399 l 5
 562 399 l 5
 562 -1 l 5
 678 0 l 5
839 399 m 5
 474 798 l 5
 336 798 l 5
 678 399 l 5
 839 399 l 5
EndSplineSet
EndChar

StartChar: uF0232
Encoding: 983602 983602 562
Width: 1000
Flags: W
LayerCount: 2
Fore
SplineSet
732 -1 m 5
 840 -143 l 5
 712 -143 l 5
 605 2 l 5
 732 -1 l 5
840 477 m 5
 732 399 l 5
 732 -1 l 5
 840 0 l 5
 840 477 l 5
732 399 m 5
 505 798 l 5
 391 798 l 5
 653 349 l 5
 732 399 l 5
EndSplineSet
EndChar

StartChar: uF0233
Encoding: 983603 983603 563
Width: 1000
Flags: W
HStem: 0 21G<442.194 593> 305 99<537 680>
VStem: 417 120<404 701>
LayerCount: 2
Fore
SplineSet
420 1 m 5
 528 -141 l 5
 400 -141 l 5
 293 4 l 5
 420 1 l 5
420 0 m 5
 764 310 l 5
 417 305 l 5
 417 443 420 601 420 803 c 5
 538 701 l 5
 537 404 l 5
 680 404 l 5
 847 222 l 5
 593 1 l 5
 420 0 l 5
EndSplineSet
EndChar

StartChar: uF0234
Encoding: 983604 983604 564
Width: 1000
Flags: W
HStem: 0 21G<334.755 490> 294 105<394 578>
VStem: 153 129<504 702>
LayerCount: 2
Fore
SplineSet
317 0 m 5
 425 -142 l 5
 297 -142 l 5
 190 3 l 5
 317 0 l 5
317 0 m 5
 578 294 l 5
 394 290 l 5
 153 504 l 5
 151 801 l 5
 276 702 l 5
 282 402 l 5
 842 399 l 5
 490 1 l 5
 317 0 l 5
EndSplineSet
EndChar

StartChar: uF0235
Encoding: 983605 983605 565
Width: 1000
Flags: W
HStem: 1 21G<158 357.473> 297 105<346 510>
LayerCount: 2
Fore
SplineSet
158 0 m 5
 266 -142 l 5
 138 -142 l 5
 31 3 l 5
 158 0 l 5
158 1 m 5
 510 298 l 5
 346 297 l 5
 162 483 l 5
 505 801 l 5
 686 801 l 5
 251 402 l 5
 844 403 l 5
 332 1 l 5
 158 1 l 5
EndSplineSet
EndChar

StartChar: uF0236
Encoding: 983606 983606 566
Width: 1000
Flags: W
HStem: 0 21G<445.638 590> 290 114<464 596>
VStem: 246 115<514 671>
LayerCount: 2
Fore
SplineSet
424 0 m 5
 532 -142 l 5
 404 -142 l 5
 297 3 l 5
 424 0 l 5
424 0 m 5
 741 293 l 5
 464 290 l 5
 246 514 l 5
 246 803 l 5
 362 671 l 5
 361 404 l 5
 596 404 l 5
 844 229 l 5
 590 2 l 5
 424 0 l 5
EndSplineSet
EndChar

StartChar: uF0237
Encoding: 983607 983607 567
Width: 1000
Flags: W
LayerCount: 2
Fore
SplineSet
168 8 m 5
 276 -134 l 5
 148 -134 l 5
 41 11 l 5
 168 8 l 5
168 7 m 5
 342 9 l 5
 844 411 l 5
 285 411 l 5
 168 302 l 5
 520 306 l 5
 168 7 l 5
284 701 m 5
 285 411 l 5
 406 508 l 5
 403 803 l 5
 284 701 l 5
EndSplineSet
EndChar

StartChar: uF0238
Encoding: 983608 983608 568
Width: 1000
Flags: W
HStem: 0 21G<151 318.128> 319 105<439 553>
LayerCount: 2
Fore
SplineSet
151 1 m 5
 259 -141 l 5
 131 -141 l 5
 24 4 l 5
 151 1 l 5
352 238 m 5
 151 422 l 5
 553 424 l 5
 723 803 l 5
 844 803 l 5
 631 319 l 5
 439 319 l 5
 513 235 l 5
 300 0 l 5
 151 0 l 5
 352 238 l 5
EndSplineSet
EndChar

StartChar: uF0239
Encoding: 983609 983609 569
Width: 1000
Flags: W
HStem: 0 21G<421 611.667> 291 115<505 675> 299 107<505 675>
LayerCount: 2
Fore
SplineSet
421 1 m 5x80
 529 -141 l 5
 401 -141 l 5
 294 4 l 5
 421 1 l 5x80
421 1 m 5
 756 299 l 5xa0
 430 291 l 5
 244 805 l 5
 354 805 l 5
 505 406 l 5
 675 406 l 5xc0
 844 225 l 5
 589 0 l 5
 421 1 l 5
EndSplineSet
EndChar

StartChar: uF023A
Encoding: 983610 983610 570
Width: 1000
Flags: W
HStem: -19 20G<69.7586 182>
LayerCount: 2
Fore
SplineSet
182 -2 m 5
 290 -144 l 5
 162 -144 l 5
 55 1 l 5
 182 -2 l 5
335 0 m 5
 680 446 l 5
 367 449 l 5
 265 334 l 5
 436 331 l 5
 182 -2 l 5
 335 0 l 5
268 800 m 5
 151 686 l 5
 151 203 l 5
 265 334 l 5
 268 800 l 5
EndSplineSet
EndChar

StartChar: uF023B
Encoding: 983611 983611 571
Width: 1000
Flags: W
LayerCount: 2
Fore
SplineSet
336 0 m 5
 444 -142 l 5
 316 -142 l 5
 209 3 l 5
 336 0 l 5
336 0 m 5
 510 2 l 5
 715 186 l 5
 490 404 l 5
 305 405 l 5
 535 180 l 5
 336 0 l 5
504 604 m 5
 686 803 l 5
 521 803 l 5
 355 600 l 5
 490 404 l 5
 629 405 l 5
 504 604 l 5
EndSplineSet
EndChar

StartChar: uF023C
Encoding: 983612 983612 572
Width: 1000
Flags: W
HStem: -19 20G<348.759 461>
LayerCount: 2
Fore
SplineSet
461 -2 m 5
 569 -144 l 5
 441 -144 l 5
 334 1 l 5
 461 -2 l 5
635 0 m 5
 840 204 l 5
 621 402 l 5
 460 403 l 5
 660 199 l 5
 461 -2 l 5
 635 0 l 5
807 801 m 5
 647 799 l 5
 306 401 l 5
 460 403 l 5
 807 801 l 5
EndSplineSet
EndChar

StartChar: uF023D
Encoding: 983613 983613 573
Width: 1000
Flags: W
LayerCount: 2
Fore
SplineSet
467 0 m 5
 575 -142 l 5
 447 -142 l 5
 340 3 l 5
 467 0 l 5
467 0 m 5
 641 2 l 5
 836 206 l 5
 657 403 l 5
 496 401 l 5
 666 201 l 5
 467 0 l 5
803 400 m 5
 456 801 l 5
 316 801 l 5
 657 403 l 5
 803 400 l 5
EndSplineSet
EndChar

StartChar: uF023E
Encoding: 983614 983614 574
Width: 1000
Flags: W
LayerCount: 2
Fore
SplineSet
316 2 m 5
 424 -140 l 5
 296 -140 l 5
 189 5 l 5
 316 2 l 5
316 2 m 5
 490 4 l 5
 685 218 l 5
 506 404 l 5
 345 403 l 5
 515 215 l 5
 316 2 l 5
502 801 m 5
 506 404 l 5
 627 404 l 5
 625 708 l 5
 502 801 l 5
EndSplineSet
EndChar

StartChar: uF023F
Encoding: 983615 983615 575
Width: 1000
Flags: W
LayerCount: 2
Fore
SplineSet
155 0 m 5
 263 -142 l 5
 135 -142 l 5
 28 3 l 5
 155 0 l 5
329 2 m 5
 534 199 l 5
 346 399 l 5
 345 397 l 5
 184 401 l 5
 354 194 l 5
 155 0 l 5
 329 2 l 5
346 399 m 5
 346 400 l 5
 345 400 l 5
 346 399 l 5
535 801 m 5
 346 400 l 5
 489 400 l 5
 685 801 l 5
 535 801 l 5
EndSplineSet
EndChar

StartChar: uF0240
Encoding: 983616 983616 576
Width: 1000
Flags: W
HStem: 0 21G<623.848 844>
LayerCount: 2
Fore
SplineSet
990.73828125 804.224609375 m 5
 1029.09277344 706.787109375 976.236328125 605.376953125 921.063476562 559.3671875 c 5
 981.083984375 735.5078125 838.16015625 782.439453125 844 802 c 5
 990.73828125 804.224609375 l 5
844 802 m 1
 349 399 l 1
 844 0 l 1
 649 0 l 1
 151 396 l 1
 646 802 l 1
 844 802 l 1
EndSplineSet
EndChar

StartChar: uF0241
Encoding: 983617 983617 577
Width: 1000
Flags: W
HStem: 399 109<486 725>
VStem: 721 123<105 399>
LayerCount: 2
Fore
SplineSet
990.73828125 804.224609375 m 5
 1029.09277344 706.787109375 976.236328125 605.376953125 921.063476562 559.3671875 c 5
 981.083984375 735.5078125 838.16015625 782.439453125 844 802 c 5
 990.73828125 804.224609375 l 5
842 803 m 1
 486 508 l 1
 844 513 l 1
 844 105 l 1
 721 5 l 1
 725 399 l 1
 157 399 l 1
 659 804 l 1
 842 803 l 1
EndSplineSet
EndChar

StartChar: uF0242
Encoding: 983618 983618 578
Width: 1000
Flags: W
HStem: 0 21G<175.253 332> 399 105<470 578>
LayerCount: 2
Fore
SplineSet
990.73828125 804.224609375 m 5
 1029.09277344 706.787109375 976.236328125 605.376953125 921.063476562 559.3671875 c 5
 981.083984375 735.5078125 838.16015625 782.439453125 844 802 c 5
 990.73828125 804.224609375 l 5
844 803 m 1
 470 504 l 1
 844 507 l 1
 332 8 l 1
 154 0 l 1
 578 399 l 1
 158 399 l 1
 650 801 l 1
 844 803 l 1
EndSplineSet
EndChar

StartChar: uF0243
Encoding: 983619 983619 579
Width: 1000
Flags: W
HStem: 0 21G<693.424 844> 399 104<358 493>
LayerCount: 2
Fore
SplineSet
716.73828125 806.224609375 m 5
 755.092773438 708.787109375 702.236328125 607.376953125 647.063476562 561.3671875 c 5
 707.083984375 737.5078125 564.16015625 784.439453125 570 804 c 5
 716.73828125 806.224609375 l 5
570 804 m 1
 358 503 l 1
 581 504 l 1
 844 0 l 1
 704 0 l 1
 493 399 l 1
 151 399 l 1
 440 804 l 1
 570 804 l 1
EndSplineSet
EndChar

StartChar: uF0244
Encoding: 983620 983620 580
Width: 1000
Flags: W
HStem: 0 21G<154 367.226>
LayerCount: 2
Fore
SplineSet
990.73828125 804.224609375 m 5
 1029.09277344 706.787109375 976.236328125 605.376953125 921.063476562 559.3671875 c 5
 981.083984375 735.5078125 838.16015625 782.439453125 844 802 c 5
 990.73828125 804.224609375 l 5
844 803 m 1
 566 580 l 1
 844 398 l 1
 342 0 l 1
 154 0 l 1
 654 399 l 1
 389 573 l 1
 670 801 l 1
 844 803 l 1
EndSplineSet
EndChar

StartChar: uF0245
Encoding: 983621 983621 581
Width: 1000
Flags: W
HStem: 0 21G<836 973.905>
LayerCount: 2
Fore
SplineSet
990.73828125 804.224609375 m 5
 1029.09277344 706.787109375 976.236328125 605.376953125 921.063476562 559.3671875 c 5
 981.083984375 735.5078125 838.16015625 782.439453125 844 802 c 5
 990.73828125 804.224609375 l 5
625 606 m 1
 843 419 l 1
 573 419 l 1
 994 0 l 1
 836 1 l 1
 307 511 l 1
 559 511 l 1
 455 607 l 1
 690 802 l 1
 847 801 l 1
 625 606 l 1
EndSplineSet
EndChar

StartChar: uF0246
Encoding: 983622 983622 582
Width: 1000
Flags: W
HStem: -1 21G<498.051 523.631>
VStem: 498 132<102 395>
LayerCount: 2
Fore
SplineSet
805.73828125 803.224609375 m 5
 844.092773438 705.787109375 791.236328125 604.376953125 736.063476562 558.3671875 c 5
 796.083984375 734.5078125 653.16015625 781.439453125 659 801 c 5
 805.73828125 803.224609375 l 5
659 801 m 1
 486 614 l 1
 636 399 l 1
 630 102 l 1
 498 -1 l 1
 499 395 l 1
 323 613 l 1
 501 800 l 1
 659 801 l 1
EndSplineSet
EndChar

StartChar: uF0247
Encoding: 983623 983623 583
Width: 1000
Flags: W
HStem: 0 21G<616.706 840>
VStem: 148 143<390 688> 152 131<441.5 688>
LayerCount: 2
Fore
SplineSet
385.40234375 907.123046875 m 5xa0
 481.3359375 865.147460938 515.444335938 755.995117188 508.818359375 684.4609375 c 5
 427.051757812 851.62109375 292.665039062 784.01953125 283 802 c 5
 385.40234375 907.123046875 l 5xa0
283 802 m 1
 291 390 l 1
 840 0 l 1
 646 0 l 1
 148 340 l 1xc0
 152 688 l 1
 283 802 l 1
EndSplineSet
EndChar

StartChar: uF0248
Encoding: 983624 983624 584
Width: 1000
Flags: W
LayerCount: 2
Fore
SplineSet
805.73828125 803.224609375 m 5
 844.092773438 705.787109375 791.236328125 604.376953125 736.063476562 558.3671875 c 5
 796.083984375 734.5078125 653.16015625 781.439453125 659 801 c 5
 805.73828125 803.224609375 l 5
331 399 m 1
 151 396 l 1
 500 802 l 1
 659 801 l 1
 331 399 l 1
331 399 m 1
 703 0 l 1
 844 0 l 1
 490 399 l 1
 331 399 l 1
EndSplineSet
EndChar

StartChar: uF0249
Encoding: 983625 983625 585
Width: 1000
Flags: W
LayerCount: 2
Fore
SplineSet
715.40234375 898.123046875 m 1
 811.3359375 856.147460938 845.444335938 746.995117188 838.818359375 675.4609375 c 1
 757.051757812 842.62109375 622.665039062 775.01953125 613 793 c 1
 715.40234375 898.123046875 l 1
497 673 m 1
 497 399 l 1
 613 399 l 1
 613 793 l 1
 497 673 l 1
336 399 m 1
 701 0 l 1
 839 0 l 1
 497 399 l 1
 336 399 l 1
EndSplineSet
EndChar

StartChar: uF024A
Encoding: 983626 983626 586
Width: 1000
Flags: W
LayerCount: 2
Fore
SplineSet
601.40234375 901.123046875 m 1
 697.3359375 859.147460938 731.444335938 749.995117188 724.818359375 678.4609375 c 1
 643.051757812 845.62109375 508.665039062 778.01953125 499 796 c 1
 601.40234375 901.123046875 l 1
391 321 m 1
 499 399 l 1
 499 796 l 1
 391 676 l 1
 391 321 l 1
499 399 m 1
 726 0 l 1
 840 0 l 1
 578 449 l 1
 499 399 l 1
EndSplineSet
EndChar

StartChar: uF024B
Encoding: 983627 983627 587
Width: 1000
Flags: W
HStem: 0 21G<820.863 844> 399 94<584 727>
VStem: 726 118<102 399>
LayerCount: 2
Fore
SplineSet
990.73828125 804.224609375 m 5
 1029.09277344 706.787109375 976.236328125 605.376953125 921.063476562 559.3671875 c 5
 981.083984375 735.5078125 838.16015625 782.439453125 844 802 c 5
 990.73828125 804.224609375 l 5
844 803 m 1
 500 493 l 1
 847 498 l 1
 847 360 844 202 844 0 c 1
 726 102 l 1
 727 399 l 1
 584 399 l 1
 417 581 l 1
 671 802 l 1
 844 803 l 1
EndSplineSet
EndChar

StartChar: uF024C
Encoding: 983628 983628 588
Width: 1000
Flags: W
HStem: 0 21G<816.747 841.865> 402 105<415 599>
VStem: 717 125<99 297>
LayerCount: 2
Fore
SplineSet
822.73828125 803.224609375 m 5
 861.092773438 705.787109375 808.236328125 604.376953125 753.063476562 558.3671875 c 5
 813.083984375 734.5078125 670.16015625 781.439453125 676 801 c 5
 822.73828125 803.224609375 l 5
676 801 m 1
 415 507 l 1
 599 511 l 1
 840 297 l 1
 842 0 l 1
 717 99 l 1
 711 399 l 1
 151 402 l 1
 503 800 l 1
 676 801 l 1
EndSplineSet
EndChar

StartChar: uF024D
Encoding: 983629 983629 589
Width: 1000
Flags: W
HStem: 1 21G<316 518.572> 400 104<492 656>
LayerCount: 2
Fore
SplineSet
990.73828125 804.224609375 m 5
 1029.09277344 706.787109375 976.236328125 605.376953125 921.063476562 559.3671875 c 5
 981.083984375 735.5078125 838.16015625 782.439453125 844 802 c 5
 990.73828125 804.224609375 l 5
844 801 m 1
 492 504 l 1
 656 505 l 1
 840 319 l 1
 497 1 l 1
 316 1 l 1
 751 400 l 1
 158 399 l 1
 670 801 l 1
 844 801 l 1
EndSplineSet
EndChar

StartChar: uF024E
Encoding: 983630 983630 590
Width: 1000
Flags: W
HStem: 0 21G<826.424 844> 399 114<494 626>
VStem: 728 116<132 289>
LayerCount: 2
Fore
SplineSet
812.73828125 805.224609375 m 5
 851.092773438 707.787109375 798.236328125 606.376953125 743.063476562 560.3671875 c 5
 803.083984375 736.5078125 660.16015625 783.439453125 666 803 c 5
 812.73828125 805.224609375 l 5
666 803 m 1
 349 510 l 1
 626 513 l 1
 844 289 l 1
 844 0 l 1
 728 132 l 1
 729 399 l 1
 494 399 l 1
 246 574 l 1
 500 801 l 1
 666 803 l 1
EndSplineSet
EndChar

StartChar: uF024F
Encoding: 983631 983631 591
Width: 1000
Flags: W
LayerCount: 2
Fore
SplineSet
990.73828125 804.224609375 m 5
 1029.09277344 706.787109375 976.236328125 605.376953125 921.063476562 559.3671875 c 5
 981.083984375 735.5078125 838.16015625 782.439453125 844 802 c 5
 990.73828125 804.224609375 l 5
844 803 m 1
 670 801 l 1
 168 399 l 1
 727 399 l 1
 844 508 l 1
 492 504 l 1
 844 803 l 1
728 109 m 1
 727 399 l 1
 606 302 l 1
 609 7 l 1
 728 109 l 1
EndSplineSet
EndChar

StartChar: uF0250
Encoding: 983632 983632 592
Width: 1000
Flags: W
HStem: 0 21G<151 280.971> 379 105<442 556>
LayerCount: 2
Fore
SplineSet
990.73828125 804.224609375 m 5
 1029.09277344 706.787109375 976.236328125 605.376953125 921.063476562 559.3671875 c 5
 981.083984375 735.5078125 838.16015625 782.439453125 844 802 c 5
 990.73828125 804.224609375 l 5
643 565 m 1
 844 381 l 1
 442 379 l 1
 272 0 l 1
 151 0 l 1
 364 484 l 1
 556 484 l 1
 482 568 l 1
 695 803 l 1
 844 803 l 1
 643 565 l 1
EndSplineSet
EndChar

StartChar: uF0251
Encoding: 983633 983633 593
Width: 1000
Flags: W
HStem: 0 21G<726.431 844> 399 115<413 583> 399 107<413 583>
LayerCount: 2
Fore
SplineSet
813.73828125 806.224609375 m 5x80
 852.092773438 708.787109375 799.236328125 607.376953125 744.063476562 561.3671875 c 5
 804.083984375 737.5078125 661.16015625 784.439453125 667 804 c 5
 813.73828125 806.224609375 l 5x80
667 804 m 1
 332 506 l 1xa0
 658 514 l 1
 844 0 l 1
 734 0 l 1
 583 399 l 1
 413 399 l 1xc0
 244 580 l 1
 499 805 l 1
 667 804 l 1
EndSplineSet
EndChar

StartChar: uF0252
Encoding: 983634 983634 594
Width: 1000
Flags: W
LayerCount: 2
Fore
SplineSet
795.73828125 802.224609375 m 5
 834.092773438 704.787109375 781.236328125 603.376953125 726.063476562 557.3671875 c 5
 786.083984375 733.5078125 643.16015625 780.439453125 649 800 c 5
 795.73828125 802.224609375 l 5
496 798 m 1
 151 352 l 1
 464 349 l 1
 566 464 l 1
 395 467 l 1
 649 800 l 1
 496 798 l 1
563 -2 m 1
 680 112 l 1
 680 595 l 1
 566 464 l 1
 563 -2 l 1
EndSplineSet
EndChar

StartChar: uF0253
Encoding: 983635 983635 595
Width: 1000
Flags: W
LayerCount: 2
Fore
SplineSet
830.73828125 805.224609375 m 5
 869.092773438 707.787109375 816.236328125 606.376953125 761.063476562 560.3671875 c 5
 821.083984375 736.5078125 678.16015625 783.439453125 684 803 c 5
 830.73828125 805.224609375 l 5
684 803 m 1
 510 801 l 1
 305 617 l 1
 530 399 l 1
 715 398 l 1
 485 623 l 1
 684 803 l 1
516 199 m 1
 334 0 l 1
 499 0 l 1
 665 203 l 1
 530 399 l 1
 391 398 l 1
 516 199 l 1
EndSplineSet
EndChar

StartChar: uF0254
Encoding: 983636 983636 596
Width: 1000
Flags: W
LayerCount: 2
Fore
SplineSet
831.73828125 803.224609375 m 5
 870.092773438 705.787109375 817.236328125 604.376953125 762.063476562 558.3671875 c 5
 822.083984375 734.5078125 679.16015625 781.439453125 685 801 c 5
 831.73828125 803.224609375 l 5
511 799 m 1
 306 595 l 1
 525 397 l 1
 686 396 l 1
 486 600 l 1
 685 801 l 1
 511 799 l 1
339 -2 m 1
 499 0 l 1
 840 398 l 1
 686 396 l 1
 339 -2 l 1
EndSplineSet
EndChar

